<svg viewBox="0 0 100 100" xmlns="http://www.w3.org/2000/svg"><polygon points="28.364758,43.323872 28.955639,47.460091 27.922817,43.503853" fill="#4c4c4c"/><polygon points="52.724098,47.138958 50.834858,42.523376 54.635113,42.575691" fill="#894c4c"/><polygon points="55.532188,48.360596 54.635113,42.575691 57.844357,42.693489" fill="#944c4c"/><polygon points="28.955639,47.460091 33.341019,50.636898 29.871351,48.556656" fill="#5e4c4c"/><polygon points="49.878056,50.691647 52.724098,47.138958 55.532188,48.360596" fill="#8f4c4c"/><polygon points="28.895161,45.454239 31.596649,49.133667 28.955639,47.460091" fill="#584c4c"/><polygon points="48.343910,49.057560 49.879059,44.946667 52.724098,47.138958" fill="#874c4c"/><polygon points="30.487711,46.271740 34.498981,47.343319 31.596649,49.133667" fill="#764c4c"/><polygon points="44.191906,47.210262 47.365837,45.939716 48.343910,49.057560" fill="#6c4c4c"/><polygon points="31.596649,49.133667 37.151932,48.470989 33.341019,50.636898" fill="#894c4c"/><polygon points="44.520149,48.413563 48.343910,49.057560 49.878056,50.691647" fill="#694c4c"/><polygon points="35.929573,43.086155 37.151932,48.470989 34.498981,47.343319" fill="#934c4c"/><polygon points="42.637974,42.848263 44.520149,48.413563 42.502357,43.028519" fill="#4c4c4c"/><polygon points="31.946812,45.337460 35.929573,43.086155 34.498981,47.343319" fill="#7f4c4c"/><polygon points="42.637974,42.848263 45.090347,45.016579 44.191906,47.210262" fill="#4c4c4c"/><polygon points="32.652103,43.091747 34.498981,38.930485 35.929573,43.086155" fill="#6e4c4c"/><polygon points="44.191906,38.376083 44.290749,42.672298 42.637974,42.848263" fill="#4c4c4c"/><polygon points="34.498981,38.930485 38.815624,43.156048 35.929573,43.086155" fill="#754c4c"/><polygon points="44.191906,38.376083 42.502357,43.028519 44.520149,37.308617" fill="#4c4c4c"/><polygon points="31.596649,37.438148 37.151928,37.768017 34.498981,38.930485" fill="#4c4c4c"/><polygon points="48.343910,36.334572 44.520149,37.308617 49.878056,34.784115" fill="#4c4c4c"/><polygon points="30.487711,39.911720 34.498981,38.930485 31.946812,40.674889" fill="#4c4c4c"/><polygon points="47.365837,39.013302 44.191906,38.376083 48.343910,36.334572" fill="#4c4c4c"/><polygon points="28.895161,40.908447 31.596649,37.438148 30.487711,39.911720" fill="#4c4c4c"/><polygon points="49.879059,39.893303 48.343910,36.334572 52.724098,38.078987" fill="#574c4c"/><polygon points="28.955639,39.417034 33.341019,35.988567 31.596649,37.438148" fill="#4c4c4c"/><polygon points="52.724098,38.078987 49.878056,34.784115 55.532188,36.884869" fill="#4c4c4c"/><polygon points="54.635113,42.575691 55.532188,36.884869 57.844357,42.693489" fill="#794c4c"/><polygon points="28.364758,43.323872 28.955639,39.417034 28.895161,40.908447" fill="#4c4c4c"/><polygon points="50.834858,42.523376 52.724098,38.078987 54.635113,42.575691" fill="#774c4c"/><polygon points="32.652103,43.091747 31.701778,40.398121 31.946812,40.674889" fill="#6c4c4c"/><polygon points="32.652103,43.091747 31.701780,45.534019 32.588165,43.045540" fill="#834c4c"/><polygon points="29.637506,43.136559 28.443604,45.661102 27.914330,43.309162" fill="#4c4c4c"/><polygon points="50.806114,42.489876 49.846123,45.165775 46.614498,42.518974" fill="#764c4c"/><polygon points="30.064617,46.694725 28.443604,45.661102 29.637506,43.136559" fill="#504c4c"/><polygon points="46.614498,42.518974 49.846123,45.165775 46.992104,46.398849" fill="#764c4c"/><polygon points="29.637506,43.136559 31.701780,45.534019 30.064617,46.694725" fill="#5e4c4c"/><polygon points="46.992104,46.398849 44.506207,45.234211 46.614498,42.518974" fill="#6a4c4c"/><polygon points="29.637506,43.136559 32.588165,43.045540 31.701780,45.534019" fill="#614c4c"/><polygon points="44.506207,45.234211 43.506424,42.649292 46.614498,42.518974" fill="#5a4c4c"/><polygon points="29.637506,43.136559 31.701778,40.398121 32.588165,43.045540" fill="#5f4c4c"/><polygon points="43.506424,42.649292 44.506207,39.753532 46.614498,42.518974" fill="#574c4c"/><polygon points="29.637506,43.136559 30.064617,39.423164 31.701778,40.398121" fill="#4e4c4c"/><polygon points="44.506207,39.753532 46.992104,38.476368 46.614498,42.518974" fill="#5a4c4c"/><polygon points="29.637506,43.136559 28.443604,40.671349 30.064617,39.423164" fill="#4c4c4c"/><polygon points="46.992104,38.476368 49.846123,39.606396 46.614498,42.518974" fill="#664c4c"/><polygon points="29.637506,43.136559 27.914330,43.309162 28.443604,40.671349" fill="#4c4c4c"/><polygon points="49.846123,39.606396 50.806114,42.489876 46.614498,42.518974" fill="#714c4c"/><polygon points="37.232800,75.888397 41.885761,77.632278 38.150047,76.514420" fill="#724c4c"/><polygon points="44.954727,76.906944 41.885761,77.632278 40.893906,76.874077" fill="#814c4c"/><polygon points="35.653530,75.248466 38.150047,76.514420 35.394787,75.291992" fill="#6c4c4c"/><polygon points="46.689167,76.679634 46.526760,77.640785 44.954727,76.906944" fill="#864c4c"/><polygon points="34.429234,73.761581 35.653530,75.248466 35.394787,75.291992" fill="#4c4c4c"/><polygon points="46.689167,76.679634 51.520626,75.860779 50.647648,77.276131" fill="#904c4c"/><polygon points="34.123039,68.723053 34.433632,72.718353 34.429234,73.761581" fill="#4c4c4c"/><polygon points="46.991974,74.193031 50.564102,70.316711 51.520626,75.860779" fill="#884c4c"/><polygon points="34.968456,61.832371 34.383095,69.599312 34.123039,68.723053" fill="#4c4c4c"/><polygon points="46.235786,70.800362 49.577641,62.723392 50.564102,70.316711" fill="#7f4c4c"/><polygon points="37.501656,55.126068 31.394638,51.280666 35.069611,52.947235" fill="#614c4c"/><polygon points="50.273865,51.407631 46.981243,55.373314 41.084450,53.038563" fill="#8f4c4c"/><polygon points="28.779016,51.013912 31.394638,51.280666 32.937260,53.722897" fill="#604c4c"/><polygon points="58.367718,51.173645 50.273865,51.407631 56.782627,48.329155" fill="#8a4c4c"/><polygon points="28.779016,51.013912 25.822773,44.719368 27.619059,48.554939" fill="#4c4c4c"/><polygon points="60.122730,43.739563 58.367718,51.173645 56.782627,48.329155" fill="#924c4c"/><polygon points="23.354153,39.002758 25.822773,44.719368 26.508886,46.289795" fill="#4c4c4c"/><polygon points="64.001343,36.551918 60.122730,43.739563 59.835640,38.277084" fill="#884c4c"/><polygon points="25.722874,37.331013 24.543242,40.167377 23.354153,39.002758" fill="#4c4c4c"/><polygon points="59.374409,35.023506 59.835640,38.277084 57.319664,36.942497" fill="#754c4c"/><polygon points="29.120619,33.687943 24.371973,38.930965 25.722874,37.331013" fill="#4c4c4c"/><polygon points="52.515148,31.659767 57.319664,36.942497 49.393600,33.038345" fill="#574c4c"/><polygon points="45.463707,30.275965 52.515148,31.659767 49.393600,33.038345" fill="#614c4c"/><polygon points="35.300381,29.453741 30.364229,31.732317 32.009842,28.849745" fill="#4c4c4c"/><polygon points="42.769108,28.664104 45.463707,30.275965 42.386765,31.195007" fill="#4c4c4c"/><polygon points="37.615280,35.795315 32.561409,32.112312 35.300381,29.453741" fill="#764c4c"/><polygon points="40.598991,35.579792 42.386765,31.195007 39.971550,37.095394" fill="#4c4c4c"/><polygon points="39.227043,37.526047 35.065952,37.413498 37.615280,35.795315" fill="#634c4c"/><polygon points="39.227043,37.526047 39.971550,37.095394 37.896076,39.625221" fill="#4c4c4c"/><polygon points="33.166382,36.747406 35.065952,37.413498 34.849098,38.136536" fill="#534c4c"/><polygon points="45.122978,35.922981 39.971550,37.095394 42.386765,31.195007" fill="#884c4c"/><polygon points="33.166382,36.747406 30.364229,31.732317 32.561409,32.112312" fill="#614c4c"/><polygon points="45.463707,30.275965 45.122978,35.922981 42.386765,31.195007" fill="#7c4c4c"/><polygon points="28.327572,34.752674 31.699869,36.690529 29.901304,37.979179" fill="#754c4c"/><polygon points="49.393600,33.038345 47.372730,35.596878 45.463707,30.275965" fill="#6a4c4c"/><polygon points="24.371973,38.930965 29.901304,37.979179 27.253168,39.999916" fill="#7e4c4c"/><polygon points="57.319664,36.942497 50.388176,36.675732 49.393600,33.038345" fill="#6e4c4c"/><polygon points="24.543242,40.167377 27.253168,39.999916 26.729362,42.140682" fill="#604c4c"/><polygon points="59.835640,38.277084 55.810730,38.466927 57.319664,36.942497" fill="#7c4c4c"/><polygon points="25.822773,44.719368 26.729362,42.140682 27.048260,45.027702" fill="#4c4c4c"/><polygon points="60.122730,43.739563 57.102272,40.855667 59.835640,38.277084" fill="#734c4c"/><polygon points="27.619059,48.554939 27.048260,45.027702 29.395111,48.310379" fill="#4f4c4c"/><polygon points="56.782627,48.329155 56.672165,44.236126 60.122730,43.739563" fill="#7d4c4c"/><polygon points="31.394638,51.280666 29.395111,48.310379 31.358646,49.569332" fill="#524c4c"/><polygon points="50.273865,51.407631 52.743958,48.101013 56.782627,48.329155" fill="#7b4c4c"/><polygon points="35.069611,52.947235 31.358646,49.569332 34.498981,47.343319" fill="#4c4c4c"/><polygon points="41.084450,53.038563 49.192036,49.528992 50.273865,51.407631" fill="#824c4c"/><polygon points="34.498981,47.343319 39.488075,48.643623 35.069611,52.947235" fill="#534c4c"/><polygon points="39.488075,48.643623 44.191906,47.210262 41.084450,53.038563" fill="#4c4c4c"/><polygon points="35.065952,37.413498 35.887497,41.243721 34.849098,38.136536" fill="#4c4c4c"/><polygon points="39.971550,37.095394 41.867500,40.975090 37.896076,39.625221" fill="#7b4c4c"/><polygon points="35.887497,41.243721 38.832329,43.846375 35.841320,43.953323" fill="#5c4c4c"/><polygon points="38.832329,43.846375 41.867500,40.975090 42.189087,43.756363" fill="#634c4c"/><polygon points="35.255913,45.990215 38.832329,43.846375 39.488075,48.643623" fill="#674c4c"/><polygon points="43.090748,45.828522 38.832329,43.846375 42.189087,43.756363" fill="#644c4c"/><polygon points="38.534294,75.192886 40.893906,76.874077 37.232800,75.888397" fill="#714c4c"/><polygon points="40.893906,76.874077 41.497879,75.570786 44.954727,76.906944" fill="#7d4c4c"/><polygon points="37.002235,73.777580 37.232800,75.888397 35.653530,75.248466" fill="#6b4c4c"/><polygon points="44.954727,76.906944 42.570511,74.452965 46.689167,76.679634" fill="#7b4c4c"/><polygon points="37.002235,73.777580 34.433632,72.718353 36.785992,70.561554" fill="#504c4c"/><polygon points="42.570511,74.452965 46.991974,74.193031 46.689167,76.679634" fill="#7f4c4c"/><polygon points="34.860119,62.528130 36.604832,69.649384 34.383095,69.599312" fill="#4c4c4c"/><polygon points="42.189293,70.210266 44.887398,63.176022 46.235786,70.800362" fill="#714c4c"/><polygon points="36.785992,70.561554 34.383095,69.599312 36.604832,69.649384" fill="#4c4c4c"/><polygon points="46.235786,70.800362 41.998001,71.108826 42.189293,70.210266" fill="#734c4c"/><polygon points="39.227043,59.525558 37.248577,62.827869 37.198792,58.305702" fill="#5b4c4c"/><polygon points="39.227043,59.525558 40.978336,63.071621 39.095905,62.948597" fill="#594c4c"/><polygon points="37.248577,62.827869 39.357773,69.699463 36.604832,69.649384" fill="#5f4c4c"/><polygon points="40.978336,63.071621 39.357773,69.699463 39.095905,62.948597" fill="#5f4c4c"/><polygon points="36.785992,70.561554 39.357773,69.699463 39.357773,72.190178" fill="#5c4c4c"/><polygon points="41.998001,71.108826 39.357773,69.699463 42.189293,70.210266" fill="#5c4c4c"/><polygon points="40.839180,58.095127 42.125065,56.688599 41.297661,58.479187" fill="#984c4c"/><polygon points="41.540779,56.762207 41.678764,54.362484 42.125065,56.688599" fill="#774c4c"/><polygon points="38.299965,55.505901 39.227043,54.082382 39.095905,55.679203" fill="#894c4c"/><polygon points="38.299965,55.505901 39.227043,54.082382 39.507431,53.675968" fill="#4c4c4c"/><polygon points="41.297661,58.479187 38.567020,59.375031 40.839180,58.095127" fill="#914c4c"/><polygon points="36.345940,57.913147 38.165771,58.502243 38.567020,59.375031" fill="#614c4c"/><polygon points="40.839180,58.095127 38.165771,58.502243 40.061195,57.423981" fill="#844c4c"/><polygon points="38.299965,55.505901 36.910042,54.348373 37.635475,53.641308" fill="#644c4c"/><polygon points="39.165154,54.398418 38.299965,55.505901 39.507431,53.675968" fill="#4c4c4c"/><polygon points="37.635475,53.641308 35.801620,54.551327 35.980602,53.836319" fill="#4c4c4c"/><polygon points="40.312286,54.656693 39.507431,53.675968 41.222961,53.939449" fill="#4c4c4c"/><polygon points="35.801620,54.551327 35.162212,56.547161 35.980602,53.836319" fill="#4c4c4c"/><polygon points="40.312286,54.656693 41.540779,56.762207 40.432304,56.787968" fill="#774c4c"/><polygon points="35.162212,56.547161 36.306091,57.283962 36.345940,57.913147" fill="#5c4c4c"/><polygon points="40.061195,57.423981 41.540779,56.762207 40.839180,58.095127" fill="#854c4c"/><polygon points="35.159409,56.608528 36.910042,54.348373 37.760544,56.004265" fill="#4e4c4c"/><polygon points="40.432304,56.787968 39.165154,54.398418 40.312286,54.656693" fill="#544c4c"/><polygon points="37.760544,56.004265 36.306091,57.283962 35.159409,56.608528" fill="#7c4c4c"/><polygon points="40.061195,57.423981 37.760544,56.004265 40.432304,56.787968" fill="#6c4c4c"/><polygon points="39.227043,54.082382 35.069611,52.947235 39.488075,48.643623" fill="#764c4c"/><polygon points="41.084450,53.038563 39.227043,54.082382 39.488075,48.643623" fill="#4c4c4c"/><polygon points="36.834496,54.257195 35.925316,56.851002 35.069611,52.947235" fill="#924c4c"/><polygon points="43.722309,57.124992 41.678764,54.362484 41.084450,53.038563" fill="#4c4c4c"/><polygon points="37.198792,58.305702 35.925316,56.851002 36.156624,56.490147" fill="#4c4c4c"/><polygon points="41.297661,58.479187 43.722309,57.124992 44.109207,59.211060" fill="#6c4c4c"/><polygon points="37.248577,62.827869 35.568935,58.823822 37.198792,58.305702" fill="#4c4c4c"/><polygon points="40.978336,63.071621 44.109207,59.211060 44.887398,63.176022" fill="#6a4c4c"/><polygon points="36.418598,58.477936 34.860119,62.528130 34.968456,61.832371" fill="#4c4c4c"/><polygon points="48.442806,58.999496 44.887398,63.176022 44.109207,59.211060" fill="#7f4c4c"/><polygon points="47.864258,57.179520 44.109207,59.211060 43.722309,57.124992" fill="#804c4c"/><polygon points="43.722309,57.124992 46.981243,55.373314 47.864258,57.179520" fill="#754c4c"/><polygon points="39.357773,72.190178 37.281700,71.237320 36.785992,70.561554" fill="#624c4c"/><polygon points="39.357773,72.190178 41.744610,71.720116 39.617939,72.344009" fill="#894c4c"/><polygon points="37.002235,73.777580 37.281700,71.237320 37.545193,73.397736" fill="#6c4c4c"/><polygon points="41.744610,71.720116 42.570511,74.452965 41.999477,73.927902" fill="#5d4c4c"/><polygon points="38.534294,75.192886 37.545193,73.397736 39.029202,74.753143" fill="#764c4c"/><polygon points="41.999477,73.927902 41.497879,75.570786 41.249683,75.030655" fill="#4c4c4c"/><polygon points="40.133255,75.563850 39.029202,74.753143 40.133255,75.115356" fill="#5c4c4c"/><polygon points="41.249683,75.030655 40.133255,75.563850 40.133255,75.115356" fill="#5c4c4c"/><polygon points="39.029202,74.753143 41.019276,74.392120 40.133255,75.115356" fill="#4c4c4c"/><polygon points="41.249683,75.030655 41.019276,74.392120 42.128113,74.304321" fill="#4c4c4c"/><polygon points="39.029202,74.753143 38.710434,72.846130 39.922592,74.037857" fill="#564c4c"/><polygon points="37.545193,73.397736 38.325722,71.188934 38.710434,72.846130" fill="#894c4c"/><polygon points="39.617939,72.344009 42.754242,71.664391 40.641975,72.281013" fill="#8b4c4c"/><polygon points="40.641975,72.281013 39.922592,74.037857 38.325722,71.188934" fill="#684c4c"/><polygon points="42.128113,74.304321 40.641975,72.281013 42.754242,71.664391" fill="#6a4c4c"/><polygon points="38.325722,71.188934 39.922592,74.037857 38.710434,72.846130" fill="#624c4c"/><polygon points="43.126133,73.356285 42.128113,74.304321 42.754242,71.664391" fill="#734c4c"/><polygon points="35.841320,43.953323 34.311180,45.535637 34.532825,43.728245" fill="#804c4c"/><polygon points="43.292446,45.328259 42.189087,43.756363 42.772949,43.461258" fill="#4c4c4c"/><polygon points="35.887497,41.243721 34.532825,43.728245 34.353348,41.496223" fill="#6b4c4c"/><polygon points="42.772949,43.461258 41.867500,40.975090 42.968399,41.117397" fill="#4c4c4c"/><polygon points="35.887497,41.243721 33.638817,39.298077 34.849098,38.136536" fill="#674c4c"/><polygon points="41.867500,40.975090 43.753944,38.736237 42.968399,41.117397" fill="#4c4c4c"/><polygon points="34.498981,47.343319 34.311180,45.535637 35.255913,45.990215" fill="#884c4c"/><polygon points="44.191906,47.210262 43.292446,45.328259 44.148991,46.708340" fill="#4c4c4c"/><polygon points="34.498981,47.343319 30.670965,48.263912 33.283550,46.884361" fill="#844c4c"/><polygon points="48.591366,48.099915 44.191906,47.210262 44.148991,46.708340" fill="#714c4c"/><polygon points="31.358646,49.569332 28.898527,47.224277 30.670965,48.263912" fill="#5a4c4c"/><polygon points="51.634151,46.888481 49.192036,49.528992 48.591366,48.099915" fill="#894c4c"/><polygon points="29.395111,48.310379 27.460320,44.762413 28.898527,47.224277" fill="#4c4c4c"/><polygon points="54.948494,43.990429 52.743958,48.101013 51.634151,46.888481" fill="#924c4c"/><polygon points="27.048260,45.027702 27.159618,42.243439 27.460320,44.762413" fill="#4c4c4c"/><polygon points="55.050243,41.081562 56.672165,44.236126 54.948494,43.990429" fill="#7f4c4c"/><polygon points="27.253168,39.999916 27.159618,42.243439 26.729362,42.140682" fill="#4c4c4c"/><polygon points="55.810730,38.466927 55.050243,41.081562 54.298038,39.166965" fill="#774c4c"/><polygon points="29.901304,37.979179 27.507029,40.527412 27.253168,39.999916" fill="#4c4c4c"/><polygon points="50.388176,36.675732 54.298038,39.166965 49.342117,37.730843" fill="#574c4c"/><polygon points="29.901304,37.979179 31.250965,37.972843 29.091866,38.923164" fill="#4c4c4c"/><polygon points="47.329464,36.956589 50.388176,36.675732 49.342117,37.730843" fill="#4c4c4c"/><polygon points="31.699869,36.690529 32.364136,38.067600 31.250965,37.972843" fill="#4c4c4c"/><polygon points="45.469444,37.250576 47.372730,35.596878 47.329464,36.956589" fill="#574c4c"/><polygon points="33.166382,36.747406 33.638817,39.298077 32.364136,38.067600" fill="#554c4c"/><polygon points="43.753944,38.736237 45.122978,35.922981 45.469444,37.250576" fill="#4c4c4c"/><polygon points="33.638817,39.298077 32.327477,38.758614 32.364136,38.067600" fill="#544c4c"/><polygon points="43.753944,38.736237 45.794971,37.967480 44.726860,39.228561" fill="#874c4c"/><polygon points="31.250965,37.972843 32.327477,38.758614 31.389500,38.646698" fill="#564c4c"/><polygon points="45.794971,37.967480 47.329464,36.956589 47.452370,37.689014" fill="#7a4c4c"/><polygon points="31.250965,37.972843 29.682484,39.181221 29.091866,38.923164" fill="#8f4c4c"/><polygon points="47.329464,36.956589 49.497730,38.045258 47.452370,37.689014" fill="#664c4c"/><polygon points="29.091866,38.923164 28.436634,40.944153 27.507029,40.527412" fill="#744c4c"/><polygon points="49.342117,37.730843 53.677452,39.724892 49.497730,38.045258" fill="#6e4c4c"/><polygon points="27.159618,42.243439 28.436634,40.944153 28.085258,42.449547" fill="#7e4c4c"/><polygon points="53.677452,39.724892 55.050243,41.081562 54.423328,41.386787" fill="#514c4c"/><polygon points="27.159618,42.243439 28.248005,44.332222 27.460320,44.762413" fill="#6f4c4c"/><polygon points="55.050243,41.081562 54.211937,43.546471 54.423328,41.386787" fill="#4c4c4c"/><polygon points="28.898527,47.224277 28.248005,44.332222 29.508387,46.801357" fill="#534c4c"/><polygon points="54.211937,43.546471 51.634151,46.888481 51.451103,46.429100" fill="#4c4c4c"/><polygon points="28.898527,47.224277 30.947332,47.620277 30.670965,48.263912" fill="#4c4c4c"/><polygon points="51.634151,46.888481 48.832870,47.396240 51.451103,46.429100" fill="#4c4c4c"/><polygon points="30.670965,48.263912 33.342415,46.462742 33.283550,46.884361" fill="#4c4c4c"/><polygon points="48.591366,48.099915 44.924740,46.249775 48.832870,47.396240" fill="#564c4c"/><polygon points="34.311180,45.535637 33.342415,46.462742 34.363453,45.121666" fill="#4c4c4c"/><polygon points="44.924740,46.249775 43.292446,45.328259 44.065773,44.876930" fill="#5e4c4c"/><polygon points="33.638817,39.298077 34.405495,41.552582 33.518787,39.821053" fill="#4c4c4c"/><polygon points="43.743248,41.144810 43.753944,38.736237 44.726860,39.228561" fill="#894c4c"/><polygon points="43.870007,43.253387 42.968399,41.117397 43.743248,41.144810" fill="#8a4c4c"/><polygon points="34.532825,43.728245 34.363453,45.121666 34.541298,43.563568" fill="#4c4c4c"/><polygon points="44.065773,44.876930 42.772949,43.461258 43.870007,43.253387" fill="#814c4c"/><polygon points="39.227043,37.526047 38.859810,37.143669 41.516762,38.542114" fill="#4c4c4c"/><polygon points="37.615280,35.795315 36.785614,31.631878 38.859810,37.143669" fill="#694c4c"/><polygon points="52.389194,75.709053 51.520626,75.860779 51.644772,69.843048" fill="#794c4c"/><polygon points="51.644772,69.843048 50.564102,70.316711 50.589802,63.914467" fill="#774c4c"/><polygon points="50.589802,63.914467 49.577641,62.723392 49.995811,59.796516" fill="#784c4c"/><polygon points="49.290138,57.859882 47.864258,57.179520 48.545174,56.375736" fill="#774c4c"/><polygon points="49.995811,59.796516 48.442806,58.999496 49.290138,57.859882" fill="#754c4c"/><polygon points="47.864258,57.179520 47.903736,54.863033 48.545174,56.375736" fill="#784c4c"/><polygon points="50.718388,61.137238 49.290138,57.859882 52.668156,60.355518" fill="#984c4c"/><polygon points="66.585831,51.293976 64.237144,45.157181 69.807159,43.462746" fill="#974c4c"/><polygon points="57.600208,26.484962 50.968494,25.593948 61.134766,25.789305" fill="#4c4c4c"/><polygon points="63.427277,38.173862 60.247856,36.443470 61.596210,37.102470" fill="#4c4c4c"/><polygon points="32.943977,38.777405 32.155853,36.663368 36.150787,33.272583" fill="#4c4c4c"/><polygon points="67.642380,34.187988 61.596210,37.102470 64.361816,30.854898" fill="#4c4c4c"/><polygon points="70.066078,33.458782 64.361816,30.854898 66.938019,30.529625" fill="#504c4c"/><polygon points="64.361816,30.854898 61.134766,25.789305 66.938019,30.529625" fill="#5c4c4c"/><polygon points="61.596210,37.102470 57.600208,26.484962 64.361816,30.854898" fill="#714c4c"/><polygon points="34.092087,36.439049 46.166119,26.167721 42.007996,34.015995" fill="#4c4c4c"/><polygon points="55.300232,34.949860 46.166119,26.167721 57.600208,26.484962" fill="#4d4c4c"/><polygon points="38.859810,37.143669 34.092087,36.439049 42.007996,34.015995" fill="#4c4c4c"/><polygon points="55.300232,34.949860 43.991825,36.810265 42.007996,34.015995" fill="#514c4c"/><polygon points="41.516762,38.542114 38.859810,37.143669 42.007996,34.015995" fill="#5d4c4c"/><polygon points="42.007996,34.015995 43.991825,36.810265 41.516762,38.542114" fill="#4c4c4c"/><polygon points="64.237144,45.157181 63.427277,38.173862 69.807159,43.462746" fill="#7f4c4c"/><polygon points="67.642380,34.187988 69.807159,43.462746 63.427277,38.173862" fill="#874c4c"/><polygon points="70.066078,33.458782 71.004288,41.236008 67.642380,34.187988" fill="#7e4c4c"/><polygon points="72.274040,36.195599 71.462784,41.326714 70.066078,33.458782" fill="#844c4c"/><polygon points="59.639698,57.725822 57.497864,54.642212 62.089016,54.943844" fill="#964c4c"/><polygon points="57.497864,54.642212 65.490601,53.247597 62.089016,54.943844" fill="#8d4c4c"/><polygon points="57.497864,54.642212 59.150242,50.000000 66.585831,51.293976" fill="#904c4c"/><polygon points="49.290138,57.859882 54.177055,52.709820 57.497864,54.642212" fill="#974c4c"/><polygon points="57.497864,54.642212 52.668156,60.355518 49.290138,57.859882" fill="#994c4c"/><polygon points="33.955078,52.452808 38.497044,54.641979 38.813824,56.076839" fill="#5e4c4c"/><polygon points="48.545174,56.375736 47.903736,54.863033 54.177055,52.709820" fill="#7e4c4c"/><polygon points="63.436089,53.516098 62.089016,54.943844 66.620674,49.437805" fill="#904c4c"/><polygon points="35.510540,41.001076 34.040108,41.009319 34.216385,39.697098" fill="#4c4c4c"/><polygon points="73.527077,39.242580 77.208023,38.999176 74.191597,40.422550" fill="#574c4c"/><polygon points="34.216385,39.697098 32.459526,40.788589 32.091572,39.401569" fill="#4c4c4c"/><polygon points="82.497360,38.381638 77.599548,37.384193 83.963257,36.525162" fill="#714c4c"/><polygon points="32.459526,40.788589 30.174351,43.381901 32.091572,39.401569" fill="#4c4c4c"/><polygon points="82.497360,38.381638 87.134613,41.389565 84.696503,42.280224" fill="#674c4c"/><polygon points="31.370434,43.969234 31.422890,48.864548 30.174351,43.381901" fill="#534c4c"/><polygon points="84.696503,42.280224 85.273392,48.543510 83.230606,47.926117" fill="#714c4c"/><polygon points="32.274734,48.362320 34.153347,52.187328 31.422890,48.864548" fill="#4c4c4c"/><polygon points="83.230606,47.926117 78.129272,52.685234 77.740181,51.036495" fill="#864c4c"/><polygon points="34.153347,52.187328 35.262184,51.592335 36.157681,53.205208" fill="#4c4c4c"/><polygon points="71.010544,51.885303 78.129272,52.685234 69.546555,53.753475" fill="#8d4c4c"/><polygon points="33.977470,50.844921 35.335693,50.521496 35.262184,51.592335" fill="#4c4c4c"/><polygon points="73.120758,50.622871 77.740181,51.036495 71.010544,51.885303" fill="#5c4c4c"/><polygon points="32.274734,48.362320 34.666561,50.000000 33.977470,50.844921" fill="#4c4c4c"/><polygon points="78.434944,50.000000 83.230606,47.926117 77.740181,51.036495" fill="#4c4c4c"/><polygon points="32.397934,44.800556 32.274734,48.362320 31.370434,43.969234" fill="#7e4c4c"/><polygon points="84.121933,43.395699 83.230606,47.926117 82.880836,47.536026" fill="#4c4c4c"/><polygon points="33.333221,42.476513 31.370434,43.969234 32.459526,40.788589" fill="#884c4c"/><polygon points="82.415146,40.556931 84.696503,42.280224 84.121933,43.395699" fill="#4c4c4c"/><polygon points="34.833378,42.622044 32.459526,40.788589 34.040108,41.009319" fill="#554c4c"/><polygon points="77.970940,40.980381 82.497360,38.381638 82.415146,40.556931" fill="#8a4c4c"/><polygon points="34.040108,41.009319 35.269127,43.342083 34.833378,42.622044" fill="#4c4c4c"/><polygon points="75.393692,41.967201 77.208023,38.999176 77.970940,40.980381" fill="#944c4c"/><polygon points="65.490601,53.247597 67.827469,50.000000 68.628098,50.616333" fill="#964c4c"/><polygon points="36.157681,53.205208 37.801891,50.532879 40.044376,52.879536" fill="#594c4c"/><polygon points="69.546555,53.753475 68.628098,50.616333 71.010544,51.885303" fill="#4c4c4c"/><polygon points="67.827469,50.000000 69.807159,43.462746 71.004288,41.236008" fill="#8f4c4c"/><polygon points="36.357479,42.647675 34.743858,42.042469 35.510540,41.001076" fill="#4c4c4c"/><polygon points="74.191597,40.422550 71.462784,41.326714 73.527077,39.242580" fill="#4f4c4c"/><polygon points="35.262184,51.592335 37.429825,50.346443 37.801891,50.532879" fill="#4c4c4c"/><polygon points="71.902405,50.407234 71.010544,51.885303 68.628098,50.616333" fill="#4c4c4c"/><polygon points="38.010078,49.114155 37.429825,50.346443 36.867462,49.654545" fill="#514c4c"/><polygon points="68.778168,48.975834 71.902405,50.407234 68.628098,50.616333" fill="#7b4c4c"/><polygon points="38.421776,47.910831 36.867462,49.654545 37.288940,48.095905" fill="#5c4c4c"/><polygon points="72.684296,49.591385 70.546700,47.570938 72.097366,47.758308" fill="#5c4c4c"/><polygon points="36.887753,45.444370 38.421776,47.910831 37.007744,46.197289" fill="#4d4c4c"/><polygon points="70.944740,44.652473 70.546700,47.570938 68.778168,48.975834" fill="#974c4c"/><polygon points="36.887753,45.444370 35.926559,44.661762 36.038109,43.545116" fill="#4c4c4c"/><polygon points="70.944740,44.652473 73.799500,43.624763 72.488335,45.509060" fill="#914c4c"/><polygon points="36.038109,43.545116 35.269127,43.342083 34.743858,42.042469" fill="#4d4c4c"/><polygon points="72.126579,42.350964 75.393692,41.967201 73.799500,43.624763" fill="#894c4c"/><polygon points="72.126579,42.350964 71.004288,41.236008 71.462784,41.326714" fill="#644c4c"/><polygon points="67.827469,50.000000 70.944740,44.652473 68.778168,48.975834" fill="#914c4c"/><polygon points="68.778168,48.975834 68.628098,50.616333 67.827469,50.000000" fill="#884c4c"/><polygon points="74.268585,43.893509 75.393692,41.967201 76.045731,42.450825" fill="#984c4c"/><polygon points="72.488335,45.509060 74.268585,43.893509 73.094055,45.544453" fill="#994c4c"/><polygon points="71.162575,47.589920 72.488335,45.509060 73.094055,45.544453" fill="#984c4c"/><polygon points="72.684296,49.591385 72.705170,47.978142 73.288979,49.594608" fill="#774c4c"/><polygon points="72.317596,50.403694 72.684296,49.591385 73.288979,49.594608" fill="#964c4c"/><polygon points="37.429825,50.346443 36.065758,50.344646 38.038689,50.343880" fill="#4c4c4c"/><polygon points="73.601288,50.410954 71.902405,50.407234 72.317596,50.403694" fill="#4c4c4c"/><polygon points="76.045731,42.450825 77.970940,40.980381 78.795845,41.463760" fill="#964c4c"/><polygon points="33.333221,42.476513 35.274330,43.025837 33.677658,42.863544" fill="#694c4c"/><polygon points="78.795845,41.463760 82.415146,40.556931 83.149956,41.031509" fill="#8a4c4c"/><polygon points="32.397934,44.800556 33.677658,42.863544 32.619942,45.008034" fill="#8f4c4c"/><polygon points="32.397934,44.800556 33.289948,48.219463 33.174255,48.042301" fill="#6a4c4c"/><polygon points="33.174255,48.042301 35.241287,50.000000 34.666561,50.000000" fill="#4c4c4c"/><polygon points="34.666561,50.000000 36.065758,50.344646 35.335693,50.521496" fill="#4c4c4c"/><polygon points="37.339264,49.657341 36.746380,47.612785 37.758316,48.283043" fill="#544c4c"/><polygon points="73.288979,49.594608 74.334824,47.154461 75.584534,48.368111" fill="#664c4c"/><polygon points="36.021973,48.643288 35.815357,46.285912 36.746380,47.612785" fill="#4c4c4c"/><polygon points="75.584534,48.368111 76.308174,45.514069 77.430603,46.733265" fill="#724c4c"/><polygon points="35.815357,46.285912 34.602394,46.001205 35.171661,44.978172" fill="#4c4c4c"/><polygon points="78.959114,45.085197 76.308174,45.514069 77.892639,43.873486" fill="#6a4c4c"/><polygon points="34.602394,46.001205 34.171165,44.191399 35.171661,44.978172" fill="#4f4c4c"/><polygon points="78.959114,45.085197 79.828293,42.818752 80.438972,44.446014" fill="#624c4c"/><polygon points="35.274330,43.025837 35.171661,44.978172 34.171165,44.191399" fill="#4c4c4c"/><polygon points="77.892639,43.873486 78.795845,41.463760 79.828293,42.818752" fill="#4c4c4c"/><polygon points="35.815357,46.285912 35.850128,43.741631 36.644775,44.878277" fill="#4c4c4c"/><polygon points="76.308174,45.514069 76.045731,42.450825 77.892639,43.873486" fill="#764c4c"/><polygon points="37.478745,46.228062 35.815357,46.285912 36.644775,44.878277" fill="#554c4c"/><polygon points="73.094055,45.544453 76.308174,45.514069 74.334824,47.154461" fill="#684c4c"/><polygon points="37.758316,48.283043 37.478745,46.228062 38.884605,47.927860" fill="#5c4c4c"/><polygon points="73.094055,45.544453 72.705170,47.978142 71.162575,47.589920" fill="#5c4c4c"/><polygon points="36.065758,50.344646 37.339264,49.657341 38.038689,50.343880" fill="#594c4c"/><polygon points="73.601288,50.410954 73.288979,49.594608 75.584534,48.368111" fill="#4c4c4c"/><polygon points="35.241287,50.000000 36.021973,48.643288 36.065758,50.344646" fill="#4c4c4c"/><polygon points="75.584534,48.368111 79.055588,50.000000 73.601288,50.410954" fill="#784c4c"/><polygon points="34.602394,46.001205 35.241287,50.000000 33.289948,48.219463" fill="#4c4c4c"/><polygon points="78.959114,45.085197 79.055588,50.000000 77.430603,46.733265" fill="#804c4c"/><polygon points="33.773468,45.528301 33.289948,48.219463 32.619942,45.008034" fill="#4c4c4c"/><polygon points="80.438972,44.446014 83.765076,47.752167 78.959114,45.085197" fill="#7e4c4c"/><polygon points="33.677658,42.863544 33.773468,45.528301 32.619942,45.008034" fill="#4c4c4c"/><polygon points="80.438972,44.446014 83.149956,41.031509 85.055710,43.642258" fill="#6b4c4c"/><polygon points="35.274330,43.025837 34.171165,44.191399 33.677658,42.863544" fill="#4c4c4c"/><polygon points="83.149956,41.031509 79.828293,42.818752 78.795845,41.463760" fill="#514c4c"/><polygon points="79.383530,52.203556 85.273392,48.543510 86.759857,48.566391" fill="#924c4c"/><polygon points="85.273392,48.543510 88.041359,42.124561 86.759857,48.566391" fill="#944c4c"/><polygon points="87.134613,41.389565 85.203339,37.830429 88.041359,42.124561" fill="#654c4c"/><polygon points="34.216385,39.697098 38.002716,41.692444 35.510540,41.001076" fill="#4c4c4c"/><polygon points="36.357479,42.647675 38.002716,41.692444 40.218941,44.240112" fill="#634c4c"/><polygon points="28.364758,43.323872 28.895161,45.454239 28.955639,47.460091" fill="#4c4c4c"/><polygon points="52.724098,47.138958 49.879059,44.946667 50.834858,42.523376" fill="#894c4c"/><polygon points="55.532188,48.360596 52.724098,47.138958 54.635113,42.575691" fill="#944c4c"/><polygon points="28.955639,47.460091 31.596649,49.133667 33.341019,50.636898" fill="#5d4c4c"/><polygon points="49.878056,50.691647 48.343910,49.057560 52.724098,47.138958" fill="#904c4c"/><polygon points="28.895161,45.454239 30.487711,46.271740 31.596649,49.133667" fill="#5b4c4c"/><polygon points="48.343910,49.057560 47.365837,45.939716 49.879059,44.946667" fill="#834c4c"/><polygon points="30.487711,46.271740 31.946812,45.337460 34.498981,47.343319" fill="#774c4c"/><polygon points="44.191906,47.210262 45.090347,45.016579 47.365837,45.939716" fill="#6f4c4c"/><polygon points="31.596649,49.133667 34.498981,47.343319 37.151932,48.470989" fill="#8a4c4c"/><polygon points="44.520149,48.413563 44.191906,47.210262 48.343910,49.057560" fill="#684c4c"/><polygon points="35.929573,43.086155 38.815624,43.156048 37.151932,48.470989" fill="#924c4c"/><polygon points="42.637974,42.848263 44.191906,47.210262 44.520149,48.413563" fill="#4c4c4c"/><polygon points="31.946812,45.337460 32.652103,43.091747 35.929573,43.086155" fill="#7f4c4c"/><polygon points="42.637974,42.848263 44.290749,42.672298 45.090347,45.016579" fill="#4c4c4c"/><polygon points="32.652103,43.091747 31.946812,40.674889 34.498981,38.930485" fill="#704c4c"/><polygon points="44.191906,38.376083 45.090347,40.033127 44.290749,42.672298" fill="#4c4c4c"/><polygon points="34.498981,38.930485 37.151928,37.768017 38.815624,43.156048" fill="#754c4c"/><polygon points="44.191906,38.376083 42.637974,42.848263 42.502357,43.028519" fill="#4c4c4c"/><polygon points="31.596649,37.438148 33.341019,35.988567 37.151928,37.768017" fill="#4c4c4c"/><polygon points="48.343910,36.334572 44.191906,38.376083 44.520149,37.308617" fill="#4c4c4c"/><polygon points="30.487711,39.911720 31.596649,37.438148 34.498981,38.930485" fill="#4c4c4c"/><polygon points="47.365837,39.013302 45.090347,40.033127 44.191906,38.376083" fill="#4c4c4c"/><polygon points="28.895161,40.908447 28.955639,39.417034 31.596649,37.438148" fill="#4c4c4c"/><polygon points="49.879059,39.893303 47.365837,39.013302 48.343910,36.334572" fill="#564c4c"/><polygon points="28.955639,39.417034 29.871351,38.453354 33.341019,35.988567" fill="#4c4c4c"/><polygon points="52.724098,38.078987 48.343910,36.334572 49.878056,34.784115" fill="#4c4c4c"/><polygon points="54.635113,42.575691 52.724098,38.078987 55.532188,36.884869" fill="#794c4c"/><polygon points="28.364758,43.323872 27.922817,43.503853 28.955639,39.417034" fill="#4c4c4c"/><polygon points="50.834858,42.523376 49.879059,39.893303 52.724098,38.078987" fill="#794c4c"/><polygon points="49.879059,39.893303 50.834858,42.523376 50.806114,42.489876" fill="#694c4c"/><polygon points="32.652103,43.091747 32.588165,43.045540 31.701778,40.398121" fill="#654c4c"/><polygon points="32.652103,43.091747 31.946812,45.337460 31.701780,45.534019" fill="#884c4c"/><polygon points="50.806114,42.489876 50.834858,42.523376 49.879059,44.946667" fill="#884c4c"/><polygon points="37.232800,75.888397 40.893906,76.874077 41.885761,77.632278" fill="#744c4c"/><polygon points="44.954727,76.906944 46.526760,77.640785 41.885761,77.632278" fill="#834c4c"/><polygon points="35.653530,75.248466 37.232800,75.888397 38.150047,76.514420" fill="#6e4c4c"/><polygon points="46.689167,76.679634 50.647648,77.276131 46.526760,77.640785" fill="#884c4c"/><polygon points="34.429234,73.761581 34.433632,72.718353 35.653530,75.248466" fill="#4c4c4c"/><polygon points="46.689167,76.679634 46.991974,74.193031 51.520626,75.860779" fill="#8e4c4c"/><polygon points="34.123039,68.723053 34.383095,69.599312 34.433632,72.718353" fill="#4c4c4c"/><polygon points="46.991974,74.193031 46.235786,70.800362 50.564102,70.316711" fill="#864c4c"/><polygon points="46.235786,70.800362 44.887398,63.176022 49.577641,62.723392" fill="#844c4c"/><polygon points="37.501656,55.126068 32.937260,53.722897 31.394638,51.280666" fill="#6a4c4c"/><polygon points="50.273865,51.407631 53.316776,54.118114 46.981243,55.373314" fill="#864c4c"/><polygon points="28.779016,51.013912 27.619059,48.554939 31.394638,51.280666" fill="#584c4c"/><polygon points="58.367718,51.173645 53.316776,54.118114 50.273865,51.407631" fill="#8c4c4c"/><polygon points="28.779016,51.013912 26.508886,46.289795 25.822773,44.719368" fill="#4c4c4c"/><polygon points="60.122730,43.739563 64.919373,45.521729 58.367718,51.173645" fill="#924c4c"/><polygon points="23.354153,39.002758 24.543242,40.167377 25.822773,44.719368" fill="#4c4c4c"/><polygon points="64.001343,36.551918 64.919373,45.521729 60.122730,43.739563" fill="#924c4c"/><polygon points="59.374409,35.023506 64.001343,36.551918 59.835640,38.277084" fill="#5e4c4c"/><polygon points="29.120619,33.687943 28.327572,34.752674 24.371973,38.930965" fill="#4c4c4c"/><polygon points="52.515148,31.659767 59.374409,35.023506 57.319664,36.942497" fill="#574c4c"/><polygon points="29.120619,33.687943 32.009842,28.849745 30.364229,31.732317" fill="#4c4c4c"/><polygon points="45.463707,30.275965 47.293533,27.157713 52.515148,31.659767" fill="#664c4c"/><polygon points="35.300381,29.453741 32.561409,32.112312 30.364229,31.732317" fill="#4c4c4c"/><polygon points="42.769108,28.664104 47.293533,27.157713 45.463707,30.275965" fill="#4c4c4c"/><polygon points="37.615280,35.795315 35.065952,37.413498 32.561409,32.112312" fill="#714c4c"/><polygon points="40.598991,35.579792 42.769108,28.664104 42.386765,31.195007" fill="#4c4c4c"/><polygon points="39.227043,37.526047 37.896076,39.625221 35.065952,37.413498" fill="#5f4c4c"/><polygon points="39.227043,37.526047 40.598991,35.579792 39.971550,37.095394" fill="#4c4c4c"/><polygon points="33.166382,36.747406 32.561409,32.112312 35.065952,37.413498" fill="#4c4c4c"/><polygon points="45.122978,35.922981 42.706730,37.655739 39.971550,37.095394" fill="#904c4c"/><polygon points="33.166382,36.747406 31.699869,36.690529 30.364229,31.732317" fill="#624c4c"/><polygon points="45.463707,30.275965 47.372730,35.596878 45.122978,35.922981" fill="#7c4c4c"/><polygon points="28.327572,34.752674 30.364229,31.732317 31.699869,36.690529" fill="#774c4c"/><polygon points="49.393600,33.038345 50.388176,36.675732 47.372730,35.596878" fill="#714c4c"/><polygon points="24.371973,38.930965 28.327572,34.752674 29.901304,37.979179" fill="#784c4c"/><polygon points="57.319664,36.942497 55.810730,38.466927 50.388176,36.675732" fill="#734c4c"/><polygon points="24.543242,40.167377 24.371973,38.930965 27.253168,39.999916" fill="#794c4c"/><polygon points="59.835640,38.277084 57.102272,40.855667 55.810730,38.466927" fill="#674c4c"/><polygon points="25.822773,44.719368 24.543242,40.167377 26.729362,42.140682" fill="#5f4c4c"/><polygon points="60.122730,43.739563 56.672165,44.236126 57.102272,40.855667" fill="#774c4c"/><polygon points="27.619059,48.554939 25.822773,44.719368 27.048260,45.027702" fill="#4c4c4c"/><polygon points="56.782627,48.329155 52.743958,48.101013 56.672165,44.236126" fill="#784c4c"/><polygon points="31.394638,51.280666 27.619059,48.554939 29.395111,48.310379" fill="#534c4c"/><polygon points="50.273865,51.407631 49.192036,49.528992 52.743958,48.101013" fill="#7e4c4c"/><polygon points="35.069611,52.947235 31.394638,51.280666 31.358646,49.569332" fill="#4c4c4c"/><polygon points="41.084450,53.038563 44.191906,47.210262 49.192036,49.528992" fill="#644c4c"/><polygon points="34.498981,47.343319 35.255913,45.990215 39.488075,48.643623" fill="#664c4c"/><polygon points="39.488075,48.643623 43.090748,45.828522 44.191906,47.210262" fill="#634c4c"/><polygon points="35.065952,37.413498 37.896076,39.625221 35.887497,41.243721" fill="#654c4c"/><polygon points="39.971550,37.095394 42.706730,37.655739 41.867500,40.975090" fill="#8d4c4c"/><polygon points="35.887497,41.243721 37.896076,39.625221 38.832329,43.846375" fill="#5a4c4c"/><polygon points="38.832329,43.846375 37.896076,39.625221 41.867500,40.975090" fill="#7a4c4c"/><polygon points="35.255913,45.990215 35.841320,43.953323 38.832329,43.846375" fill="#5c4c4c"/><polygon points="43.090748,45.828522 39.488075,48.643623 38.832329,43.846375" fill="#664c4c"/><polygon points="38.534294,75.192886 40.133255,75.563850 40.893906,76.874077" fill="#764c4c"/><polygon points="40.893906,76.874077 40.133255,75.563850 41.497879,75.570786" fill="#754c4c"/><polygon points="37.002235,73.777580 38.534294,75.192886 37.232800,75.888397" fill="#634c4c"/><polygon points="44.954727,76.906944 41.497879,75.570786 42.570511,74.452965" fill="#804c4c"/><polygon points="37.002235,73.777580 35.653530,75.248466 34.433632,72.718353" fill="#584c4c"/><polygon points="42.570511,74.452965 41.998001,71.108826 46.991974,74.193031" fill="#764c4c"/><polygon points="34.860119,62.528130 37.248577,62.827869 36.604832,69.649384" fill="#4c4c4c"/><polygon points="42.189293,70.210266 40.978336,63.071621 44.887398,63.176022" fill="#6e4c4c"/><polygon points="36.785992,70.561554 34.433632,72.718353 34.383095,69.599312" fill="#4e4c4c"/><polygon points="46.235786,70.800362 46.991974,74.193031 41.998001,71.108826" fill="#754c4c"/><polygon points="39.227043,59.525558 39.095905,62.948597 37.248577,62.827869" fill="#594c4c"/><polygon points="39.227043,59.525558 41.297661,58.479187 40.978336,63.071621" fill="#594c4c"/><polygon points="37.248577,62.827869 39.095905,62.948597 39.357773,69.699463" fill="#5f4c4c"/><polygon points="40.978336,63.071621 42.189293,70.210266 39.357773,69.699463" fill="#5f4c4c"/><polygon points="36.785992,70.561554 36.604832,69.649384 39.357773,69.699463" fill="#5c4c4c"/><polygon points="41.998001,71.108826 39.357773,72.190178 39.357773,69.699463" fill="#5c4c4c"/><polygon points="40.839180,58.095127 41.540779,56.762207 42.125065,56.688599" fill="#954c4c"/><polygon points="41.540779,56.762207 41.222961,53.939449 41.678764,54.362484" fill="#794c4c"/><polygon points="38.299965,55.505901 37.635475,53.641308 39.227043,54.082382" fill="#654c4c"/><polygon points="41.297661,58.479187 39.227043,59.525558 38.567020,59.375031" fill="#904c4c"/><polygon points="36.345940,57.913147 36.306091,57.283962 38.165771,58.502243" fill="#614c4c"/><polygon points="40.839180,58.095127 38.567020,59.375031 38.165771,58.502243" fill="#844c4c"/><polygon points="38.299965,55.505901 37.760544,56.004265 36.910042,54.348373" fill="#5c4c4c"/><polygon points="37.635475,53.641308 36.910042,54.348373 35.801620,54.551327" fill="#4c4c4c"/><polygon points="40.312286,54.656693 39.165154,54.398418 39.507431,53.675968" fill="#4c4c4c"/><polygon points="35.801620,54.551327 35.159409,56.608528 35.162212,56.547161" fill="#4c4c4c"/><polygon points="40.312286,54.656693 41.222961,53.939449 41.540779,56.762207" fill="#774c4c"/><polygon points="40.061195,57.423981 40.432304,56.787968 41.540779,56.762207" fill="#904c4c"/><polygon points="35.159409,56.608528 35.801620,54.551327 36.910042,54.348373" fill="#504c4c"/><polygon points="40.432304,56.787968 37.760544,56.004265 39.165154,54.398418" fill="#544c4c"/><polygon points="37.760544,56.004265 38.165771,58.502243 36.306091,57.283962" fill="#5f4c4c"/><polygon points="40.061195,57.423981 38.165771,58.502243 37.760544,56.004265" fill="#6f4c4c"/><polygon points="39.227043,54.082382 36.834496,54.257195 35.069611,52.947235" fill="#7e4c4c"/><polygon points="41.084450,53.038563 41.678764,54.362484 39.227043,54.082382" fill="#764c4c"/><polygon points="36.834496,54.257195 36.156624,56.490147 35.925316,56.851002" fill="#4c4c4c"/><polygon points="43.722309,57.124992 42.125065,56.688599 41.678764,54.362484" fill="#764c4c"/><polygon points="37.198792,58.305702 35.568935,58.823822 35.925316,56.851002" fill="#4c4c4c"/><polygon points="41.297661,58.479187 42.125065,56.688599 43.722309,57.124992" fill="#8c4c4c"/><polygon points="37.248577,62.827869 34.860119,62.528130 35.568935,58.823822" fill="#4c4c4c"/><polygon points="40.978336,63.071621 41.297661,58.479187 44.109207,59.211060" fill="#6e4c4c"/><polygon points="48.442806,58.999496 49.577641,62.723392 44.887398,63.176022" fill="#704c4c"/><polygon points="47.864258,57.179520 48.442806,58.999496 44.109207,59.211060" fill="#784c4c"/><polygon points="43.722309,57.124992 41.084450,53.038563 46.981243,55.373314" fill="#884c4c"/><polygon points="39.357773,72.190178 39.617939,72.344009 37.281700,71.237320" fill="#6a4c4c"/><polygon points="39.357773,72.190178 41.998001,71.108826 41.744610,71.720116" fill="#784c4c"/><polygon points="37.002235,73.777580 36.785992,70.561554 37.281700,71.237320" fill="#6f4c4c"/><polygon points="41.744610,71.720116 41.998001,71.108826 42.570511,74.452965" fill="#5a4c4c"/><polygon points="38.534294,75.192886 37.002235,73.777580 37.545193,73.397736" fill="#6b4c4c"/><polygon points="41.999477,73.927902 42.570511,74.452965 41.497879,75.570786" fill="#5d4c4c"/><polygon points="40.133255,75.563850 38.534294,75.192886 39.029202,74.753143" fill="#574c4c"/><polygon points="41.249683,75.030655 41.497879,75.570786 40.133255,75.563850" fill="#4c4c4c"/><polygon points="39.029202,74.753143 39.922592,74.037857 41.019276,74.392120" fill="#4c4c4c"/><polygon points="41.249683,75.030655 40.133255,75.115356 41.019276,74.392120" fill="#4c4c4c"/><polygon points="39.029202,74.753143 37.545193,73.397736 38.710434,72.846130" fill="#5b4c4c"/><polygon points="37.545193,73.397736 37.281700,71.237320 38.325722,71.188934" fill="#894c4c"/><polygon points="39.617939,72.344009 41.744610,71.720116 42.754242,71.664391" fill="#8b4c4c"/><polygon points="40.641975,72.281013 41.019276,74.392120 39.922592,74.037857" fill="#654c4c"/><polygon points="42.128113,74.304321 41.019276,74.392120 40.641975,72.281013" fill="#6b4c4c"/><polygon points="35.841320,43.953323 35.255913,45.990215 34.311180,45.535637" fill="#894c4c"/><polygon points="43.292446,45.328259 43.090748,45.828522 42.189087,43.756363" fill="#4c4c4c"/><polygon points="35.887497,41.243721 35.841320,43.953323 34.532825,43.728245" fill="#7d4c4c"/><polygon points="42.772949,43.461258 42.189087,43.756363 41.867500,40.975090" fill="#4c4c4c"/><polygon points="35.887497,41.243721 34.353348,41.496223 33.638817,39.298077" fill="#674c4c"/><polygon points="41.867500,40.975090 42.706730,37.655739 43.753944,38.736237" fill="#524c4c"/><polygon points="34.498981,47.343319 33.283550,46.884361 34.311180,45.535637" fill="#934c4c"/><polygon points="44.191906,47.210262 43.090748,45.828522 43.292446,45.328259" fill="#544c4c"/><polygon points="34.498981,47.343319 31.358646,49.569332 30.670965,48.263912" fill="#7c4c4c"/><polygon points="48.591366,48.099915 49.192036,49.528992 44.191906,47.210262" fill="#6e4c4c"/><polygon points="31.358646,49.569332 29.395111,48.310379 28.898527,47.224277" fill="#594c4c"/><polygon points="51.634151,46.888481 52.743958,48.101013 49.192036,49.528992" fill="#8c4c4c"/><polygon points="29.395111,48.310379 27.048260,45.027702 27.460320,44.762413" fill="#4c4c4c"/><polygon points="54.948494,43.990429 56.672165,44.236126 52.743958,48.101013" fill="#864c4c"/><polygon points="27.048260,45.027702 26.729362,42.140682 27.159618,42.243439" fill="#4c4c4c"/><polygon points="55.050243,41.081562 57.102272,40.855667 56.672165,44.236126" fill="#814c4c"/><polygon points="27.253168,39.999916 27.507029,40.527412 27.159618,42.243439" fill="#4c4c4c"/><polygon points="55.810730,38.466927 57.102272,40.855667 55.050243,41.081562" fill="#764c4c"/><polygon points="29.901304,37.979179 29.091866,38.923164 27.507029,40.527412" fill="#4c4c4c"/><polygon points="50.388176,36.675732 55.810730,38.466927 54.298038,39.166965" fill="#604c4c"/><polygon points="29.901304,37.979179 31.699869,36.690529 31.250965,37.972843" fill="#4c4c4c"/><polygon points="47.329464,36.956589 47.372730,35.596878 50.388176,36.675732" fill="#5f4c4c"/><polygon points="31.699869,36.690529 33.166382,36.747406 32.364136,38.067600" fill="#4c4c4c"/><polygon points="45.469444,37.250576 45.122978,35.922981 47.372730,35.596878" fill="#534c4c"/><polygon points="33.166382,36.747406 34.849098,38.136536 33.638817,39.298077" fill="#504c4c"/><polygon points="43.753944,38.736237 42.706730,37.655739 45.122978,35.922981" fill="#534c4c"/><polygon points="33.638817,39.298077 33.518787,39.821053 32.327477,38.758614" fill="#5c4c4c"/><polygon points="43.753944,38.736237 45.469444,37.250576 45.794971,37.967480" fill="#764c4c"/><polygon points="31.250965,37.972843 32.364136,38.067600 32.327477,38.758614" fill="#554c4c"/><polygon points="45.794971,37.967480 45.469444,37.250576 47.329464,36.956589" fill="#754c4c"/><polygon points="31.250965,37.972843 31.389500,38.646698 29.682484,39.181221" fill="#6d4c4c"/><polygon points="47.329464,36.956589 49.342117,37.730843 49.497730,38.045258" fill="#614c4c"/><polygon points="29.091866,38.923164 29.682484,39.181221 28.436634,40.944153" fill="#874c4c"/><polygon points="49.342117,37.730843 54.298038,39.166965 53.677452,39.724892" fill="#7e4c4c"/><polygon points="27.159618,42.243439 27.507029,40.527412 28.436634,40.944153" fill="#7a4c4c"/><polygon points="53.677452,39.724892 54.298038,39.166965 55.050243,41.081562" fill="#514c4c"/><polygon points="27.159618,42.243439 28.085258,42.449547 28.248005,44.332222" fill="#744c4c"/><polygon points="55.050243,41.081562 54.948494,43.990429 54.211937,43.546471" fill="#4e4c4c"/><polygon points="28.898527,47.224277 27.460320,44.762413 28.248005,44.332222" fill="#4c4c4c"/><polygon points="54.211937,43.546471 54.948494,43.990429 51.634151,46.888481" fill="#4c4c4c"/><polygon points="28.898527,47.224277 29.508387,46.801357 30.947332,47.620277" fill="#4c4c4c"/><polygon points="51.634151,46.888481 48.591366,48.099915 48.832870,47.396240" fill="#4c4c4c"/><polygon points="30.670965,48.263912 30.947332,47.620277 33.342415,46.462742" fill="#4c4c4c"/><polygon points="48.591366,48.099915 44.148991,46.708340 44.924740,46.249775" fill="#524c4c"/><polygon points="34.311180,45.535637 33.283550,46.884361 33.342415,46.462742" fill="#4c4c4c"/><polygon points="44.924740,46.249775 44.148991,46.708340 43.292446,45.328259" fill="#5e4c4c"/><polygon points="43.743248,41.144810 42.968399,41.117397 43.753944,38.736237" fill="#934c4c"/><polygon points="43.870007,43.253387 42.772949,43.461258 42.968399,41.117397" fill="#8a4c4c"/><polygon points="34.532825,43.728245 34.311180,45.535637 34.363453,45.121666" fill="#4c4c4c"/><polygon points="44.065773,44.876930 43.292446,45.328259 42.772949,43.461258" fill="#804c4c"/><polygon points="37.615280,35.795315 35.300381,29.453741 36.785614,31.631878" fill="#694c4c"/><polygon points="52.389194,75.709053 50.647648,77.276131 51.520626,75.860779" fill="#944c4c"/><polygon points="51.644772,69.843048 51.520626,75.860779 50.564102,70.316711" fill="#794c4c"/><polygon points="50.589802,63.914467 49.995811,59.796516 50.718388,61.137238" fill="#774c4c"/><polygon points="50.589802,63.914467 50.564102,70.316711 49.577641,62.723392" fill="#784c4c"/><polygon points="49.290138,57.859882 48.442806,58.999496 47.864258,57.179520" fill="#714c4c"/><polygon points="49.995811,59.796516 49.577641,62.723392 48.442806,58.999496" fill="#6f4c4c"/><polygon points="47.864258,57.179520 46.981243,55.373314 47.903736,54.863033" fill="#714c4c"/><polygon points="50.718388,61.137238 49.995811,59.796516 49.290138,57.859882" fill="#684c4c"/><polygon points="66.585831,51.293976 59.150242,50.000000 64.237144,45.157181" fill="#984c4c"/><polygon points="57.600208,26.484962 46.166119,26.167721 50.968494,25.593948" fill="#4c4c4c"/><polygon points="32.943977,38.777405 30.253942,39.937363 32.155853,36.663368" fill="#4c4c4c"/><polygon points="67.642380,34.187988 63.427277,38.173862 61.596210,37.102470" fill="#4c4c4c"/><polygon points="70.066078,33.458782 67.642380,34.187988 64.361816,30.854898" fill="#524c4c"/><polygon points="64.361816,30.854898 57.600208,26.484962 61.134766,25.789305" fill="#5c4c4c"/><polygon points="37.249691,28.693943 34.092087,36.439049 32.943977,38.777405" fill="#4c4c4c"/><polygon points="61.596210,37.102470 55.300232,34.949860 57.600208,26.484962" fill="#6f4c4c"/><polygon points="34.092087,36.439049 37.249691,28.693943 46.166119,26.167721" fill="#4c4c4c"/><polygon points="55.300232,34.949860 42.007996,34.015995 46.166119,26.167721" fill="#4d4c4c"/><polygon points="67.642380,34.187988 71.004288,41.236008 69.807159,43.462746" fill="#854c4c"/><polygon points="70.066078,33.458782 71.462784,41.326714 71.004288,41.236008" fill="#7c4c4c"/><polygon points="72.274040,36.195599 72.377686,43.310493 71.462784,41.326714" fill="#864c4c"/><polygon points="59.639698,57.725822 52.668156,60.355518 57.497864,54.642212" fill="#974c4c"/><polygon points="57.497864,54.642212 66.585831,51.293976 65.490601,53.247597" fill="#8d4c4c"/><polygon points="57.497864,54.642212 54.177055,52.709820 59.150242,50.000000" fill="#944c4c"/><polygon points="33.955078,52.452808 38.813824,56.076839 39.246407,57.480942" fill="#5e4c4c"/><polygon points="49.290138,57.859882 48.545174,56.375736 54.177055,52.709820" fill="#834c4c"/><polygon points="63.436089,53.516098 59.639698,57.725822 62.089016,54.943844" fill="#8f4c4c"/><polygon points="35.510540,41.001076 34.743858,42.042469 34.040108,41.009319" fill="#4c4c4c"/><polygon points="73.527077,39.242580 77.599548,37.384193 77.208023,38.999176" fill="#644c4c"/><polygon points="34.216385,39.697098 34.040108,41.009319 32.459526,40.788589" fill="#4c4c4c"/><polygon points="82.497360,38.381638 77.208023,38.999176 77.599548,37.384193" fill="#6b4c4c"/><polygon points="32.459526,40.788589 31.370434,43.969234 30.174351,43.381901" fill="#514c4c"/><polygon points="82.497360,38.381638 83.963257,36.525162 87.134613,41.389565" fill="#664c4c"/><polygon points="31.370434,43.969234 32.274734,48.362320 31.422890,48.864548" fill="#4d4c4c"/><polygon points="84.696503,42.280224 87.134613,41.389565 85.273392,48.543510" fill="#6c4c4c"/><polygon points="32.274734,48.362320 33.977470,50.844921 34.153347,52.187328" fill="#4c4c4c"/><polygon points="83.230606,47.926117 85.273392,48.543510 78.129272,52.685234" fill="#6c4c4c"/><polygon points="34.153347,52.187328 33.977470,50.844921 35.262184,51.592335" fill="#4c4c4c"/><polygon points="71.010544,51.885303 77.740181,51.036495 78.129272,52.685234" fill="#884c4c"/><polygon points="33.977470,50.844921 34.666561,50.000000 35.335693,50.521496" fill="#4c4c4c"/><polygon points="73.120758,50.622871 78.434944,50.000000 77.740181,51.036495" fill="#4c4c4c"/><polygon points="32.274734,48.362320 33.174255,48.042301 34.666561,50.000000" fill="#4c4c4c"/><polygon points="78.434944,50.000000 82.880836,47.536026 83.230606,47.926117" fill="#4c4c4c"/><polygon points="32.397934,44.800556 33.174255,48.042301 32.274734,48.362320" fill="#7b4c4c"/><polygon points="84.121933,43.395699 84.696503,42.280224 83.230606,47.926117" fill="#4c4c4c"/><polygon points="33.333221,42.476513 32.397934,44.800556 31.370434,43.969234" fill="#884c4c"/><polygon points="82.415146,40.556931 82.497360,38.381638 84.696503,42.280224" fill="#4c4c4c"/><polygon points="34.833378,42.622044 33.333221,42.476513 32.459526,40.788589" fill="#554c4c"/><polygon points="77.970940,40.980381 77.208023,38.999176 82.497360,38.381638" fill="#8e4c4c"/><polygon points="34.040108,41.009319 34.743858,42.042469 35.269127,43.342083" fill="#4c4c4c"/><polygon points="75.393692,41.967201 74.191597,40.422550 77.208023,38.999176" fill="#934c4c"/><polygon points="65.490601,53.247597 66.585831,51.293976 67.827469,50.000000" fill="#914c4c"/><polygon points="36.157681,53.205208 35.262184,51.592335 37.801891,50.532879" fill="#5c4c4c"/><polygon points="69.546555,53.753475 65.490601,53.247597 68.628098,50.616333" fill="#4c4c4c"/><polygon points="67.827469,50.000000 66.585831,51.293976 69.807159,43.462746" fill="#914c4c"/><polygon points="36.357479,42.647675 36.038109,43.545116 34.743858,42.042469" fill="#554c4c"/><polygon points="74.191597,40.422550 72.126579,42.350964 71.462784,41.326714" fill="#6b4c4c"/><polygon points="35.262184,51.592335 35.335693,50.521496 37.429825,50.346443" fill="#4c4c4c"/><polygon points="71.902405,50.407234 73.120758,50.622871 71.010544,51.885303" fill="#4c4c4c"/><polygon points="38.010078,49.114155 37.801891,50.532879 37.429825,50.346443" fill="#4c4c4c"/><polygon points="68.778168,48.975834 72.684296,49.591385 71.902405,50.407234" fill="#884c4c"/><polygon points="38.421776,47.910831 38.010078,49.114155 36.867462,49.654545" fill="#4c4c4c"/><polygon points="72.684296,49.591385 68.778168,48.975834 70.546700,47.570938" fill="#5c4c4c"/><polygon points="70.944740,44.652473 72.488335,45.509060 70.546700,47.570938" fill="#904c4c"/><polygon points="36.887753,45.444370 37.007744,46.197289 35.926559,44.661762" fill="#4c4c4c"/><polygon points="70.944740,44.652473 72.126579,42.350964 73.799500,43.624763" fill="#894c4c"/><polygon points="36.038109,43.545116 35.926559,44.661762 35.269127,43.342083" fill="#4c4c4c"/><polygon points="72.126579,42.350964 74.191597,40.422550 75.393692,41.967201" fill="#914c4c"/><polygon points="72.126579,42.350964 70.944740,44.652473 71.004288,41.236008" fill="#974c4c"/><polygon points="67.827469,50.000000 71.004288,41.236008 70.944740,44.652473" fill="#944c4c"/><polygon points="74.268585,43.893509 73.799500,43.624763 75.393692,41.967201" fill="#984c4c"/><polygon points="72.488335,45.509060 73.799500,43.624763 74.268585,43.893509" fill="#984c4c"/><polygon points="71.162575,47.589920 70.546700,47.570938 72.488335,45.509060" fill="#984c4c"/><polygon points="72.097366,47.758308 70.546700,47.570938 71.162575,47.589920" fill="#4c4c4c"/><polygon points="72.684296,49.591385 72.097366,47.758308 72.705170,47.978142" fill="#794c4c"/><polygon points="72.317596,50.403694 71.902405,50.407234 72.684296,49.591385" fill="#964c4c"/><polygon points="37.429825,50.346443 35.335693,50.521496 36.065758,50.344646" fill="#4c4c4c"/><polygon points="73.601288,50.410954 73.120758,50.622871 71.902405,50.407234" fill="#4c4c4c"/><polygon points="76.045731,42.450825 75.393692,41.967201 77.970940,40.980381" fill="#974c4c"/><polygon points="33.333221,42.476513 34.833378,42.622044 35.274330,43.025837" fill="#694c4c"/><polygon points="78.795845,41.463760 77.970940,40.980381 82.415146,40.556931" fill="#8a4c4c"/><polygon points="32.397934,44.800556 33.333221,42.476513 33.677658,42.863544" fill="#944c4c"/><polygon points="32.397934,44.800556 32.619942,45.008034 33.289948,48.219463" fill="#6e4c4c"/><polygon points="34.666561,50.000000 35.241287,50.000000 36.065758,50.344646" fill="#4c4c4c"/><polygon points="78.434944,50.000000 73.120758,50.622871 73.601288,50.410954" fill="#4c4c4c"/><polygon points="37.339264,49.657341 36.021973,48.643288 36.746380,47.612785" fill="#514c4c"/><polygon points="73.288979,49.594608 72.705170,47.978142 74.334824,47.154461" fill="#614c4c"/><polygon points="36.021973,48.643288 35.339966,47.314743 35.815357,46.285912" fill="#4c4c4c"/><polygon points="75.584534,48.368111 74.334824,47.154461 76.308174,45.514069" fill="#674c4c"/><polygon points="35.815357,46.285912 35.339966,47.314743 34.602394,46.001205" fill="#4c4c4c"/><polygon points="78.959114,45.085197 77.430603,46.733265 76.308174,45.514069" fill="#714c4c"/><polygon points="34.602394,46.001205 33.773468,45.528301 34.171165,44.191399" fill="#534c4c"/><polygon points="78.959114,45.085197 77.892639,43.873486 79.828293,42.818752" fill="#684c4c"/><polygon points="35.274330,43.025837 35.850128,43.741631 35.171661,44.978172" fill="#4c4c4c"/><polygon points="77.892639,43.873486 76.045731,42.450825 78.795845,41.463760" fill="#734c4c"/><polygon points="35.815357,46.285912 35.171661,44.978172 35.850128,43.741631" fill="#4c4c4c"/><polygon points="76.308174,45.514069 74.268585,43.893509 76.045731,42.450825" fill="#744c4c"/><polygon points="37.478745,46.228062 36.746380,47.612785 35.815357,46.285912" fill="#4c4c4c"/><polygon points="73.094055,45.544453 74.268585,43.893509 76.308174,45.514069" fill="#734c4c"/><polygon points="37.758316,48.283043 36.746380,47.612785 37.478745,46.228062" fill="#554c4c"/><polygon points="73.094055,45.544453 74.334824,47.154461 72.705170,47.978142" fill="#654c4c"/><polygon points="36.065758,50.344646 36.021973,48.643288 37.339264,49.657341" fill="#4c4c4c"/><polygon points="73.601288,50.410954 72.317596,50.403694 73.288979,49.594608" fill="#4c4c4c"/><polygon points="35.241287,50.000000 35.339966,47.314743 36.021973,48.643288" fill="#4c4c4c"/><polygon points="75.584534,48.368111 77.430603,46.733265 79.055588,50.000000" fill="#824c4c"/><polygon points="34.602394,46.001205 35.339966,47.314743 35.241287,50.000000" fill="#4c4c4c"/><polygon points="78.959114,45.085197 83.765076,47.752167 79.055588,50.000000" fill="#7e4c4c"/><polygon points="33.773468,45.528301 34.602394,46.001205 33.289948,48.219463" fill="#5a4c4c"/><polygon points="80.438972,44.446014 85.055710,43.642258 83.765076,47.752167" fill="#824c4c"/><polygon points="33.677658,42.863544 34.171165,44.191399 33.773468,45.528301" fill="#4c4c4c"/><polygon points="80.438972,44.446014 79.828293,42.818752 83.149956,41.031509" fill="#724c4c"/><polygon points="79.383530,52.203556 78.129272,52.685234 85.273392,48.543510" fill="#904c4c"/><polygon points="85.273392,48.543510 87.134613,41.389565 88.041359,42.124561" fill="#944c4c"/><polygon points="87.134613,41.389565 83.963257,36.525162 85.203339,37.830429" fill="#674c4c"/><polygon points="34.216385,39.697098 36.435959,40.787239 38.002716,41.692444" fill="#4c4c4c"/><polygon points="36.357479,42.647675 35.510540,41.001076 38.002716,41.692444" fill="#5b4c4c"/></svg>