<svg viewBox="0 0 100 100" xmlns="http://www.w3.org/2000/svg" shape-rendering="crispEdges"><polygon points="35.570000,44.110000 35.700000,48.890000 34.610000,43.550000" fill="#291505"/><polygon points="36.440000,40.990000 34.610000,43.550000 36.240000,39.640000" fill="#25160d"/><polygon points="36.440000,40.990000 35.570000,44.110000 34.610000,43.550000" fill="#25160d"/><polygon points="36.590000,44.920000 37.830000,43.010000 36.950000,45.120000" fill="#291913"/><polygon points="36.590000,44.920000 36.950000,45.120000 37.500000,48.260000" fill="#291913"/><polygon points="35.570000,44.110000 36.340000,48.400000 35.700000,48.890000" fill="#291505"/><polygon points="37.360000,42.630000 36.590000,44.920000 35.570000,44.110000" fill="#29160b"/><polygon points="36.590000,44.920000 37.360000,42.630000 37.830000,43.010000" fill="#291913"/><polygon points="36.590000,44.920000 36.340000,48.400000 35.570000,44.110000" fill="#291913"/><polygon points="36.590000,44.920000 37.500000,48.260000 37.260000,48.080000" fill="#291913"/><polygon points="37.360000,42.630000 35.570000,44.110000 36.440000,40.990000" fill="#29160b"/><polygon points="37.830000,43.010000 37.570000,45.620000 36.950000,45.120000" fill="#2b1506"/><polygon points="37.570000,45.620000 37.500000,48.260000 36.950000,45.120000" fill="#321d20"/><polygon points="36.590000,44.920000 37.260000,48.080000 36.340000,48.400000" fill="#291913"/><polygon points="37.360000,42.630000 38.950000,43.150000 37.830000,43.010000" fill="#29160b"/><polygon points="37.260000,48.080000 37.500000,48.260000 38.950000,50.000000" fill="#271814"/><polygon points="37.650000,39.900000 36.440000,40.990000 36.240000,39.640000" fill="#241305"/><polygon points="36.340000,48.400000 37.650000,52.140000 35.700000,48.890000" fill="#2c1b16"/><polygon points="37.830000,43.010000 37.910000,44.310000 37.570000,45.620000" fill="#2b1506"/><polygon points="36.340000,48.400000 37.260000,48.080000 38.250000,50.000000" fill="#2c1b16"/><polygon points="38.950000,43.150000 37.910000,44.310000 37.830000,43.010000" fill="#241305"/><polygon points="37.570000,45.620000 38.250000,46.080000 37.500000,48.260000" fill="#321d20"/><polygon points="38.250000,46.080000 38.950000,50.000000 37.500000,48.260000" fill="#321d20"/><polygon points="37.360000,42.630000 38.360000,42.760000 38.950000,43.150000" fill="#29160b"/><polygon points="37.260000,48.080000 38.950000,50.000000 38.250000,50.000000" fill="#271814"/><polygon points="38.250000,46.080000 37.570000,45.620000 37.910000,44.310000" fill="#321d20"/><polygon points="37.650000,39.900000 37.400000,41.190000 36.440000,40.990000" fill="#241305"/><polygon points="36.340000,48.400000 38.250000,50.000000 37.410000,50.830000" fill="#2c1b16"/><polygon points="38.950000,43.150000 38.710000,45.070000 37.910000,44.310000" fill="#241305"/><polygon points="36.340000,48.400000 37.410000,50.830000 37.650000,52.140000" fill="#2c1b16"/><polygon points="38.250000,46.080000 37.910000,44.310000 38.710000,45.070000" fill="#321d20"/><polygon points="38.250000,46.080000 38.830000,47.360000 38.950000,50.000000" fill="#321d20"/><polygon points="37.650000,39.900000 40.210000,40.940000 41.190000,41.820000" fill="#241305"/><polygon points="38.950000,43.150000 39.170000,43.850000 38.710000,45.070000" fill="#241305"/><polygon points="39.170000,46.350000 38.250000,46.080000 38.710000,45.070000" fill="#321d20"/><polygon points="39.170000,46.350000 38.830000,47.360000 38.250000,46.080000" fill="#321d20"/><polygon points="38.950000,50.000000 38.830000,47.360000 39.290000,48.670000" fill="#321d20"/><polygon points="37.400000,41.190000 38.460000,43.470000 38.360000,42.760000" fill="#241305"/><polygon points="39.170000,46.350000 38.710000,45.070000 39.170000,43.850000" fill="#321d20"/><polygon points="38.250000,50.000000 38.950000,50.000000 39.050000,50.340000" fill="#1d130f"/><polygon points="39.290000,48.670000 38.830000,47.360000 39.170000,46.350000" fill="#321d20"/><polygon points="38.440000,41.170000 37.400000,41.190000 37.650000,39.900000" fill="#2b170b"/><polygon points="38.950000,50.000000 39.290000,48.670000 39.050000,50.340000" fill="#321d20"/><polygon points="37.410000,50.830000 38.250000,50.000000 38.200000,50.510000" fill="#241305"/><polygon points="39.170000,46.350000 39.170000,43.850000 39.770000,44.970000" fill="#321d20"/><polygon points="37.650000,39.900000 41.190000,41.820000 38.440000,41.170000" fill="#241305"/><polygon points="37.400000,41.190000 37.720000,42.200000 38.460000,43.470000" fill="#241305"/><polygon points="39.290000,48.670000 39.170000,46.350000 39.890000,47.650000" fill="#321d20"/><polygon points="38.440000,41.170000 37.720000,42.200000 37.400000,41.190000" fill="#2b170b"/><polygon points="40.490000,46.290000 39.170000,46.350000 39.770000,44.970000" fill="#241305"/><polygon points="40.490000,46.290000 39.890000,47.650000 39.170000,46.350000" fill="#241305"/><polygon points="38.250000,50.000000 39.050000,50.340000 38.200000,50.510000" fill="#1d130f"/><polygon points="40.370000,49.660000 39.290000,48.670000 39.890000,47.650000" fill="#301c1e"/><polygon points="39.050000,50.340000 39.290000,48.670000 40.370000,49.660000" fill="#331e21"/><polygon points="40.370000,49.660000 39.890000,47.650000 40.730000,48.310000" fill="#301c1e"/><polygon points="40.730000,48.310000 39.890000,47.650000 40.490000,46.290000" fill="#291613"/><polygon points="39.050000,50.340000 40.370000,49.660000 40.970000,50.340000" fill="#331e21"/><polygon points="37.410000,50.830000 38.200000,50.510000 37.810000,51.560000" fill="#241305"/><polygon points="40.730000,48.310000 40.490000,46.290000 41.700000,47.960000" fill="#291613"/><polygon points="40.260000,50.340000 39.050000,50.340000 40.970000,50.340000" fill="#1a110d"/><polygon points="40.260000,50.340000 38.200000,50.510000 39.050000,50.340000" fill="#1a110d"/><polygon points="40.130000,48.130000 40.730000,48.310000 41.700000,47.960000" fill="#1a110d"/><polygon points="40.130000,48.130000 41.700000,47.960000 41.110000,47.940000" fill="#1a110d"/><polygon points="37.810000,51.560000 38.200000,50.510000 40.260000,50.340000" fill="#241305"/><polygon points="37.810000,51.560000 40.260000,50.340000 40.150000,50.520000" fill="#241305"/><polygon points="38.540000,53.150000 37.810000,51.560000 40.150000,50.520000" fill="#251305"/><polygon points="38.540000,53.150000 40.150000,50.520000 42.060000,52.840000" fill="#251305"/><polygon points="26.310000,44.900000 24.970000,40.520000 26.770000,42.400000" fill="#25160d"/><polygon points="24.970000,40.520000 24.400000,39.330000 27.100000,40.330000" fill="#241305"/><polygon points="24.970000,40.520000 27.100000,40.330000 26.770000,42.400000" fill="#241305"/><polygon points="26.310000,44.900000 26.770000,42.400000 27.030000,45.190000" fill="#25160d"/><polygon points="66.390000,30.050000 64.910000,28.210000 69.830000,32.660000" fill="#321807"/><polygon points="27.630000,48.600000 26.310000,44.900000 27.030000,45.190000" fill="#271a13"/><polygon points="83.920000,35.850000 79.290000,38.300000 85.780000,37.190000" fill="#2c1606"/><polygon points="87.060000,40.910000 85.780000,37.190000 88.380000,41.680000" fill="#351907"/><polygon points="27.100000,40.330000 26.880000,42.500000 26.770000,42.400000" fill="#32271b"/><polygon points="27.030000,45.190000 26.770000,42.400000 26.880000,42.500000" fill="#32271b"/><polygon points="87.060000,40.910000 83.920000,35.850000 85.780000,37.190000" fill="#351907"/><polygon points="66.390000,30.050000 60.380000,25.410000 64.910000,28.210000" fill="#321807"/><polygon points="27.100000,40.330000 27.110000,40.830000 26.880000,42.500000" fill="#32271b"/><polygon points="24.400000,39.330000 28.900000,38.330000 27.100000,40.330000" fill="#241305"/><polygon points="27.030000,45.190000 26.880000,42.500000 27.170000,44.930000" fill="#32271b"/><polygon points="85.250000,48.470000 88.380000,41.680000 87.250000,48.490000" fill="#251711"/><polygon points="83.430000,40.590000 84.190000,43.060000 85.360000,43.310000" fill="#241305"/><polygon points="72.250000,35.740000 66.390000,30.050000 69.830000,32.660000" fill="#351907"/><polygon points="34.160000,74.700000 36.720000,76.040000 34.610000,74.750000" fill="#241305"/><polygon points="27.630000,48.600000 27.030000,45.190000 28.790000,48.360000" fill="#271a13"/><polygon points="83.430000,40.590000 82.470000,40.100000 84.190000,43.060000" fill="#241305"/><polygon points="26.880000,42.500000 27.110000,40.830000 27.960000,41.230000" fill="#32271b"/><polygon points="61.970000,55.030000 69.620000,50.200000 67.770000,49.420000" fill="#311c12"/><polygon points="26.880000,42.500000 27.860000,44.510000 27.170000,44.930000" fill="#32271b"/><polygon points="85.250000,48.470000 87.060000,40.910000 88.380000,41.680000" fill="#251711"/><polygon points="26.880000,42.500000 27.960000,41.230000 27.720000,42.690000" fill="#32271b"/><polygon points="26.880000,42.500000 27.720000,42.690000 27.860000,44.510000" fill="#32271b"/><polygon points="78.810000,41.100000 82.470000,40.100000 83.430000,40.590000" fill="#2f1707"/><polygon points="80.290000,44.200000 83.430000,40.590000 85.360000,43.310000" fill="#3f2227"/><polygon points="28.790000,48.360000 27.030000,45.190000 27.170000,44.930000" fill="#32271b"/><polygon points="82.310000,37.820000 83.920000,35.850000 87.060000,40.910000" fill="#2c1606"/><polygon points="28.900000,38.330000 27.110000,40.830000 27.100000,40.330000" fill="#32271b"/><polygon points="83.920000,35.850000 77.130000,36.870000 79.290000,38.300000" fill="#2c1606"/><polygon points="80.290000,44.200000 85.360000,43.310000 84.040000,47.640000" fill="#3f2227"/><polygon points="82.470000,40.100000 84.560000,41.880000 84.190000,43.060000" fill="#241305"/><polygon points="24.400000,39.330000 27.130000,35.240000 28.900000,38.330000" fill="#241305"/><polygon points="83.430000,40.590000 79.700000,42.500000 78.810000,41.100000" fill="#241305"/><polygon points="82.470000,40.100000 82.310000,37.820000 84.560000,41.880000" fill="#241305"/><polygon points="55.480000,26.260000 51.250000,25.550000 60.380000,25.410000" fill="#2e1606"/><polygon points="82.310000,37.820000 87.060000,40.910000 84.560000,41.880000" fill="#2c1606"/><polygon points="77.130000,36.870000 74.040000,39.830000 79.290000,38.300000" fill="#251305"/><polygon points="51.490000,60.390000 59.980000,57.840000 55.380000,59.110000" fill="#301706"/><polygon points="84.560000,41.880000 87.060000,40.910000 85.250000,48.470000" fill="#241305"/><polygon points="80.290000,44.200000 79.700000,42.500000 83.430000,40.590000" fill="#3f2227"/><polygon points="82.310000,37.820000 77.130000,36.870000 83.920000,35.850000" fill="#2c1606"/><polygon points="55.480000,26.260000 45.100000,26.320000 51.250000,25.550000" fill="#2e1606"/><polygon points="28.090000,47.310000 27.170000,44.930000 27.860000,44.510000" fill="#32271b"/><polygon points="77.730000,40.610000 82.310000,37.820000 82.470000,40.100000" fill="#301706"/><polygon points="78.810000,41.100000 77.730000,40.610000 82.470000,40.100000" fill="#2f1707"/><polygon points="27.890000,39.260000 27.960000,41.230000 27.110000,40.830000" fill="#32271b"/><polygon points="34.160000,74.700000 35.460000,75.380000 36.720000,76.040000" fill="#241305"/><polygon points="78.810000,44.870000 84.040000,47.640000 79.100000,50.000000" fill="#3d2126"/><polygon points="84.560000,41.880000 85.250000,48.470000 83.110000,47.820000" fill="#241305"/><polygon points="80.290000,44.200000 84.040000,47.640000 78.810000,44.870000" fill="#3f2227"/><polygon points="28.790000,48.360000 27.170000,44.930000 28.090000,47.310000" fill="#32271b"/><polygon points="77.730000,43.620000 78.810000,41.100000 79.700000,42.500000" fill="#3e2126"/><polygon points="30.410000,51.250000 27.630000,48.600000 28.790000,48.360000" fill="#241305"/><polygon points="36.970000,37.370000 31.260000,35.720000 34.070000,36.750000" fill="#2e1606"/><polygon points="78.220000,50.000000 82.970000,47.420000 83.110000,47.820000" fill="#1a110d"/><polygon points="28.900000,38.330000 27.890000,39.260000 27.110000,40.830000" fill="#32271b"/><polygon points="75.790000,42.160000 77.730000,40.610000 78.810000,41.100000" fill="#321807"/><polygon points="77.730000,43.620000 75.790000,42.160000 78.810000,41.100000" fill="#3e2126"/><polygon points="78.810000,44.870000 79.700000,42.500000 80.290000,44.200000" fill="#3d2126"/><polygon points="72.250000,35.740000 72.730000,43.090000 70.680000,41.060000" fill="#351907"/><polygon points="28.090000,47.310000 27.860000,44.510000 28.680000,46.900000" fill="#32271b"/><polygon points="78.810000,44.870000 77.730000,43.620000 79.700000,42.500000" fill="#3d2126"/><polygon points="35.460000,75.380000 39.710000,77.270000 36.720000,76.040000" fill="#241305"/><polygon points="51.490000,60.390000 55.380000,59.110000 46.880000,61.950000" fill="#301706"/><polygon points="77.730000,40.610000 76.630000,38.560000 82.310000,37.820000" fill="#301706"/><polygon points="78.810000,44.870000 79.100000,50.000000 77.250000,46.600000" fill="#3d2126"/><polygon points="70.680000,41.060000 72.730000,43.090000 74.040000,39.830000" fill="#361907"/><polygon points="83.110000,47.820000 85.250000,48.470000 77.720000,52.800000" fill="#1b120d"/><polygon points="82.310000,37.820000 76.630000,38.560000 77.130000,36.870000" fill="#2c1606"/><polygon points="27.890000,39.260000 28.520000,39.500000 27.960000,41.230000" fill="#32271b"/><polygon points="72.250000,35.740000 68.910000,32.980000 66.390000,30.050000" fill="#351907"/><polygon points="78.810000,44.870000 76.080000,45.340000 77.730000,43.620000" fill="#3d2126"/><polygon points="75.310000,48.310000 77.250000,46.600000 79.100000,50.000000" fill="#402227"/><polygon points="34.760000,73.300000 34.160000,74.700000 32.950000,72.190000" fill="#241305"/><polygon points="78.810000,44.870000 77.250000,46.600000 76.080000,45.340000" fill="#3d2126"/><polygon points="76.080000,45.340000 75.790000,42.160000 77.730000,43.620000" fill="#3e2126"/><polygon points="34.760000,73.300000 35.460000,75.380000 34.160000,74.700000" fill="#241305"/><polygon points="77.130000,36.870000 72.810000,38.870000 74.040000,39.830000" fill="#251305"/><polygon points="36.970000,37.370000 33.090000,31.810000 31.260000,35.720000" fill="#2e1606"/><polygon points="75.790000,42.160000 74.880000,41.670000 77.730000,40.610000" fill="#321807"/><polygon points="62.650000,30.480000 60.380000,25.410000 66.390000,30.050000" fill="#321807"/><polygon points="76.080000,45.340000 73.960000,43.680000 75.790000,42.160000" fill="#3e2126"/><polygon points="78.220000,50.000000 83.110000,47.820000 77.220000,51.080000" fill="#1a110d"/><polygon points="75.310000,48.310000 76.080000,45.340000 77.250000,46.600000" fill="#402227"/><polygon points="27.130000,35.240000 30.210000,37.050000 28.900000,38.330000" fill="#241305"/><polygon points="61.970000,55.030000 64.880000,53.320000 69.620000,50.200000" fill="#311c12"/><polygon points="78.220000,50.000000 73.040000,50.430000 79.100000,50.000000" fill="#1a110d"/><polygon points="74.880000,41.670000 76.630000,38.560000 77.730000,40.610000" fill="#331807"/><polygon points="72.840000,45.390000 73.960000,43.680000 76.080000,45.340000" fill="#311808"/><polygon points="30.190000,49.580000 28.790000,48.360000 28.090000,47.310000" fill="#32271b"/><polygon points="72.840000,45.390000 76.080000,45.340000 74.070000,47.050000" fill="#311808"/><polygon points="75.310000,48.310000 74.070000,47.050000 76.080000,45.340000" fill="#402227"/><polygon points="73.960000,43.680000 74.880000,41.670000 75.790000,42.160000" fill="#351a0f"/><polygon points="83.110000,47.820000 77.720000,52.800000 77.220000,51.080000" fill="#1b120d"/><polygon points="75.310000,48.310000 79.100000,50.000000 73.040000,50.430000" fill="#402227"/><polygon points="72.840000,45.390000 72.470000,47.910000 71.000000,47.520000" fill="#311808"/><polygon points="72.840000,45.390000 74.070000,47.050000 72.470000,47.910000" fill="#311808"/><polygon points="72.810000,38.870000 77.130000,36.870000 76.630000,38.560000" fill="#241305"/><polygon points="35.460000,75.380000 38.470000,76.470000 39.710000,77.270000" fill="#241305"/><polygon points="73.030000,49.580000 74.070000,47.050000 75.310000,48.310000" fill="#2c1606"/><polygon points="73.030000,49.580000 72.470000,47.910000 74.070000,47.050000" fill="#2c1606"/><polygon points="28.900000,38.330000 29.740000,38.310000 27.890000,39.260000" fill="#32271b"/><polygon points="28.090000,47.310000 28.680000,46.900000 29.700000,47.690000" fill="#32271b"/><polygon points="27.130000,35.240000 28.500000,32.270000 30.210000,37.050000" fill="#241305"/><polygon points="71.000000,47.520000 72.020000,45.360000 72.840000,45.390000" fill="#351907"/><polygon points="70.680000,41.060000 74.040000,39.830000 72.810000,38.870000" fill="#361907"/><polygon points="72.020000,45.360000 73.960000,43.680000 72.840000,45.390000" fill="#331807"/><polygon points="30.410000,51.250000 28.790000,48.360000 30.190000,49.580000" fill="#241305"/><polygon points="71.650000,47.690000 71.000000,47.520000 72.470000,47.910000" fill="#2f1706"/><polygon points="72.250000,35.740000 70.680000,41.060000 68.910000,32.980000" fill="#351907"/><polygon points="29.740000,38.310000 28.520000,39.500000 27.890000,39.260000" fill="#32271b"/><polygon points="28.970000,40.200000 27.320000,40.970000 27.790000,41.190000" fill="#4c4c4c"/><polygon points="72.100000,50.420000 72.210000,49.580000 73.030000,49.580000" fill="#351e14"/><polygon points="72.210000,49.580000 72.470000,47.910000 73.030000,49.580000" fill="#361a07"/><polygon points="73.960000,43.680000 73.230000,43.400000 74.880000,41.670000" fill="#351a0f"/><polygon points="28.900000,38.330000 30.210000,37.050000 29.740000,38.310000" fill="#32271b"/><polygon points="71.000000,47.520000 70.180000,47.500000 72.020000,45.360000" fill="#351907"/><polygon points="36.140000,74.730000 38.470000,76.470000 35.460000,75.380000" fill="#271405"/><polygon points="27.970000,43.340000 26.950000,43.520000 27.320000,40.970000" fill="#000000"/><polygon points="71.650000,47.690000 70.180000,47.500000 71.000000,47.520000" fill="#2f1706"/><polygon points="73.040000,50.430000 73.030000,49.580000 75.310000,48.310000" fill="#241305"/><polygon points="34.760000,73.300000 36.140000,74.730000 35.460000,75.380000" fill="#241305"/><polygon points="73.040000,50.430000 72.100000,50.420000 73.030000,49.580000" fill="#241305"/><polygon points="34.430000,70.140000 32.950000,72.190000 32.760000,69.140000" fill="#241305"/><polygon points="72.020000,45.360000 73.230000,43.400000 73.960000,43.680000" fill="#331807"/><polygon points="33.050000,29.920000 28.500000,32.270000 30.510000,29.420000" fill="#311806"/><polygon points="74.880000,41.670000 73.360000,40.090000 76.630000,38.560000" fill="#331807"/><polygon points="27.970000,43.340000 27.320000,45.800000 26.950000,43.520000" fill="#000000"/><polygon points="72.100000,50.420000 71.470000,50.420000 72.210000,49.580000" fill="#351e14"/><polygon points="72.210000,49.580000 71.650000,47.690000 72.470000,47.910000" fill="#361a07"/><polygon points="30.190000,49.580000 28.090000,47.310000 29.380000,48.310000" fill="#32271b"/><polygon points="73.040000,50.430000 71.470000,50.420000 72.100000,50.420000" fill="#241305"/><polygon points="28.090000,47.310000 29.700000,47.690000 29.380000,48.310000" fill="#32271b"/><polygon points="29.740000,38.310000 29.910000,38.960000 28.520000,39.500000" fill="#32271b"/><polygon points="72.810000,38.870000 76.630000,38.560000 73.360000,40.090000" fill="#241305"/><polygon points="34.760000,73.300000 32.950000,72.190000 34.430000,70.140000" fill="#241305"/><polygon points="28.970000,40.200000 28.470000,39.740000 27.320000,40.970000" fill="#4c4c4c"/><polygon points="72.210000,49.580000 70.180000,47.500000 71.650000,47.690000" fill="#361a07"/><polygon points="68.910000,32.980000 62.650000,30.480000 66.390000,30.050000" fill="#351907"/><polygon points="72.300000,50.640000 78.220000,50.000000 77.220000,51.080000" fill="#281405"/><polygon points="28.970000,46.380000 27.790000,45.590000 27.320000,45.800000" fill="#4c4c4c"/><polygon points="36.970000,37.370000 35.190000,32.000000 33.090000,31.810000" fill="#2e1606"/><polygon points="71.350000,42.110000 74.880000,41.670000 73.230000,43.400000" fill="#361b0d"/><polygon points="59.980000,57.840000 55.890000,54.690000 61.970000,55.030000" fill="#2e1606"/><polygon points="78.220000,50.000000 72.300000,50.640000 73.040000,50.430000" fill="#1a110d"/><polygon points="62.650000,30.480000 55.480000,26.260000 60.380000,25.410000" fill="#321807"/><polygon points="30.280000,37.780000 32.350000,36.330000 35.300000,38.010000" fill="#32271b"/><polygon points="70.240000,44.490000 72.020000,45.360000 70.180000,47.500000" fill="#3b231b"/><polygon points="27.970000,43.340000 27.320000,40.970000 28.470000,39.740000" fill="#000000"/><polygon points="71.350000,42.110000 73.360000,40.090000 74.880000,41.670000" fill="#361b0d"/><polygon points="70.240000,44.490000 73.230000,43.400000 72.020000,45.360000" fill="#3b231b"/><polygon points="36.970000,37.370000 34.070000,36.750000 39.860000,34.220000" fill="#2e1606"/><polygon points="73.360000,40.090000 70.680000,41.060000 72.810000,38.870000" fill="#30190d"/><polygon points="72.210000,49.580000 68.070000,48.950000 70.180000,47.500000" fill="#361a07"/><polygon points="31.300000,37.080000 30.210000,37.050000 28.500000,32.270000" fill="#32271b"/><polygon points="36.140000,74.730000 34.760000,73.300000 35.210000,72.940000" fill="#271405"/><polygon points="68.070000,48.950000 72.210000,49.580000 71.470000,50.420000" fill="#3a1e12"/><polygon points="36.600000,74.320000 36.640000,72.440000 37.710000,73.650000" fill="#2e180b"/><polygon points="30.210000,37.050000 30.540000,38.380000 29.740000,38.310000" fill="#32271b"/><polygon points="70.240000,44.490000 71.350000,42.110000 73.230000,43.400000" fill="#3b231b"/><polygon points="41.940000,76.650000 39.710000,77.270000 38.470000,76.470000" fill="#281405"/><polygon points="36.140000,74.730000 37.520000,75.150000 38.470000,76.470000" fill="#271405"/><polygon points="73.040000,50.430000 72.300000,50.640000 71.470000,50.420000" fill="#241305"/><polygon points="36.600000,74.320000 35.210000,72.940000 36.640000,72.440000" fill="#2e180b"/><polygon points="28.970000,46.380000 27.320000,45.800000 28.470000,46.790000" fill="#4c4c4c"/><polygon points="29.740000,38.310000 30.570000,39.060000 29.910000,38.960000" fill="#32271b"/><polygon points="28.470000,46.790000 27.320000,45.800000 27.970000,43.340000" fill="#110d09"/><polygon points="36.170000,70.800000 37.710000,73.650000 36.640000,72.440000" fill="#422328"/><polygon points="36.140000,74.730000 35.210000,72.940000 36.600000,74.320000" fill="#271405"/><polygon points="73.360000,40.090000 71.350000,42.110000 70.680000,41.060000" fill="#30190d"/><polygon points="70.240000,44.490000 70.180000,47.500000 68.070000,48.950000" fill="#3b231b"/><polygon points="69.880000,51.940000 77.220000,51.080000 77.720000,52.800000" fill="#2c1606"/><polygon points="35.210000,72.940000 36.170000,70.800000 36.640000,72.440000" fill="#321807"/><polygon points="37.520000,75.150000 36.140000,74.730000 36.600000,74.320000" fill="#261305"/><polygon points="36.600000,74.320000 37.710000,73.650000 38.620000,74.030000" fill="#2e180b"/><polygon points="34.760000,73.300000 34.890000,70.810000 35.210000,72.940000" fill="#241305"/><polygon points="28.970000,40.200000 30.280000,37.780000 32.500000,39.190000" fill="#4c4c4c"/><polygon points="33.050000,29.920000 30.170000,32.590000 28.500000,32.270000" fill="#311806"/><polygon points="34.430000,70.140000 32.760000,69.140000 34.280000,69.240000" fill="#241305"/><polygon points="68.070000,48.950000 71.470000,50.420000 67.850000,50.630000" fill="#3a1e12"/><polygon points="30.210000,37.050000 31.300000,37.080000 30.540000,38.380000" fill="#32271b"/><polygon points="41.940000,76.650000 43.800000,77.450000 39.710000,77.270000" fill="#281405"/><polygon points="30.050000,40.930000 28.470000,39.740000 28.970000,40.200000" fill="#685f62"/><polygon points="29.740000,38.310000 30.540000,38.380000 30.570000,39.060000" fill="#32271b"/><polygon points="31.300000,37.080000 28.500000,32.270000 30.170000,32.590000" fill="#32271b"/><polygon points="36.600000,74.320000 38.620000,74.030000 37.520000,74.710000" fill="#2e180b"/><polygon points="37.520000,75.150000 36.600000,74.320000 37.520000,74.710000" fill="#261305"/><polygon points="49.250000,61.140000 46.880000,61.950000 45.240000,62.750000" fill="#321807"/><polygon points="33.000000,62.240000 34.280000,69.240000 32.760000,69.140000" fill="#241305"/><polygon points="38.470000,76.470000 37.520000,75.150000 38.610000,75.200000" fill="#251305"/><polygon points="35.210000,72.940000 34.890000,70.810000 36.170000,70.800000" fill="#321807"/><polygon points="34.760000,73.300000 34.430000,70.140000 34.890000,70.810000" fill="#241305"/><polygon points="38.150000,71.940000 38.620000,74.030000 37.710000,73.650000" fill="#331d21"/><polygon points="38.150000,71.940000 37.710000,73.650000 36.170000,70.800000" fill="#331d21"/><polygon points="59.980000,57.840000 51.490000,60.390000 55.890000,54.690000" fill="#2e1606"/><polygon points="29.380000,48.310000 29.700000,47.690000 31.450000,46.550000" fill="#32271b"/><polygon points="27.970000,43.340000 28.470000,39.740000 29.690000,40.660000" fill="#000000"/><polygon points="72.300000,50.640000 77.220000,51.080000 69.880000,51.940000" fill="#281405"/><polygon points="71.470000,50.420000 72.300000,50.640000 69.880000,51.940000" fill="#311807"/><polygon points="71.470000,50.420000 69.880000,51.940000 67.850000,50.630000" fill="#311807"/><polygon points="38.450000,74.660000 37.520000,74.710000 38.620000,74.030000" fill="#241305"/><polygon points="32.500000,47.410000 30.190000,49.580000 29.380000,48.310000" fill="#382b1e"/><polygon points="38.450000,74.660000 37.520000,75.150000 37.520000,74.710000" fill="#241305"/><polygon points="30.280000,37.780000 35.300000,38.010000 32.500000,39.190000" fill="#32271b"/><polygon points="30.280000,49.160000 35.300000,48.500000 32.350000,50.620000" fill="#32271b"/><polygon points="38.470000,76.470000 38.610000,75.200000 41.940000,76.650000" fill="#251305"/><polygon points="49.250000,61.140000 51.490000,60.390000 46.880000,61.950000" fill="#321807"/><polygon points="69.880000,51.940000 77.720000,52.800000 68.460000,53.860000" fill="#2c1606"/><polygon points="30.050000,40.930000 29.690000,40.660000 28.470000,39.740000" fill="#685f62"/><polygon points="38.450000,74.660000 38.620000,74.030000 39.560000,73.980000" fill="#241305"/><polygon points="55.890000,54.690000 64.880000,53.320000 61.970000,55.030000" fill="#301706"/><polygon points="39.560000,73.980000 38.620000,74.030000 38.150000,71.940000" fill="#321d20"/><polygon points="30.050000,45.460000 28.970000,46.380000 28.470000,46.790000" fill="#696063"/><polygon points="28.970000,40.200000 32.500000,39.190000 30.050000,40.930000" fill="#4c4c4c"/><polygon points="68.460000,53.860000 64.880000,53.320000 67.850000,50.630000" fill="#261305"/><polygon points="71.350000,42.110000 69.400000,40.980000 70.680000,41.060000" fill="#361b0d"/><polygon points="68.910000,32.980000 70.680000,41.060000 69.400000,40.980000" fill="#351907"/><polygon points="38.450000,74.660000 38.610000,75.200000 37.520000,75.150000" fill="#241305"/><polygon points="36.880000,71.970000 36.170000,70.800000 34.890000,70.810000" fill="#241305"/><polygon points="27.970000,43.340000 29.690000,45.660000 28.470000,46.790000" fill="#000000"/><polygon points="71.350000,42.110000 70.240000,44.490000 69.400000,40.980000" fill="#361b0d"/><polygon points="32.480000,52.880000 30.410000,51.250000 30.190000,49.580000" fill="#33281b"/><polygon points="35.010000,36.070000 33.050000,29.920000 35.190000,32.000000" fill="#351907"/><polygon points="28.970000,46.380000 32.500000,47.410000 30.280000,49.160000" fill="#4c4c4c"/><polygon points="31.530000,39.570000 30.570000,39.060000 30.540000,38.380000" fill="#32271b"/><polygon points="31.300000,37.080000 31.530000,39.570000 30.540000,38.380000" fill="#32271b"/><polygon points="66.560000,50.000000 70.240000,44.490000 68.070000,48.950000" fill="#351907"/><polygon points="36.880000,71.970000 38.150000,71.940000 36.170000,70.800000" fill="#241305"/><polygon points="64.880000,53.320000 66.560000,50.000000 67.850000,50.630000" fill="#2a1506"/><polygon points="36.560000,71.810000 34.890000,70.810000 34.430000,70.140000" fill="#251305"/><polygon points="68.070000,48.950000 67.850000,50.630000 66.560000,50.000000" fill="#3a1e12"/><polygon points="31.530000,39.570000 31.590000,40.080000 30.570000,39.060000" fill="#32271b"/><polygon points="40.340000,73.080000 38.450000,74.660000 39.560000,73.980000" fill="#332123"/><polygon points="30.050000,45.460000 28.470000,46.790000 29.690000,45.660000" fill="#696063"/><polygon points="68.460000,53.860000 67.850000,50.630000 69.880000,51.940000" fill="#261305"/><polygon points="27.970000,43.340000 29.690000,40.660000 30.410000,43.230000" fill="#000000"/><polygon points="29.380000,48.310000 31.450000,46.550000 31.240000,46.960000" fill="#32271b"/><polygon points="43.420000,76.490000 43.800000,77.450000 41.940000,76.650000" fill="#2c1606"/><polygon points="35.010000,36.070000 35.190000,32.000000 36.970000,37.370000" fill="#351907"/><polygon points="36.560000,71.810000 36.880000,71.970000 34.890000,70.810000" fill="#251305"/><polygon points="34.430000,70.140000 34.280000,69.240000 36.560000,69.360000" fill="#241305"/><polygon points="30.620000,43.270000 29.690000,40.660000 30.050000,40.930000" fill="#564c4f"/><polygon points="28.970000,46.380000 30.050000,45.460000 32.500000,47.410000" fill="#4c4c4c"/><polygon points="52.220000,34.870000 45.100000,26.320000 55.480000,26.260000" fill="#2b1606"/><polygon points="27.970000,43.340000 30.410000,43.230000 29.690000,45.660000" fill="#000000"/><polygon points="35.010000,36.070000 30.170000,32.590000 33.050000,29.920000" fill="#351907"/><polygon points="68.910000,32.980000 65.260000,33.810000 62.650000,30.480000" fill="#351907"/><polygon points="38.920000,73.600000 38.610000,75.200000 38.450000,74.660000" fill="#241305"/><polygon points="32.500000,47.410000 29.380000,48.310000 31.240000,46.960000" fill="#382b1e"/><polygon points="39.560000,73.980000 38.150000,71.940000 39.870000,71.390000" fill="#321d20"/><polygon points="31.300000,37.080000 32.570000,38.410000 31.530000,39.570000" fill="#32271b"/><polygon points="30.620000,43.270000 30.050000,40.930000 32.500000,39.190000" fill="#564c4f"/><polygon points="43.420000,76.490000 47.550000,77.240000 43.800000,77.450000" fill="#2c1606"/><polygon points="41.940000,76.650000 38.610000,75.200000 39.400000,74.140000" fill="#281405"/><polygon points="30.280000,49.160000 32.500000,47.410000 35.300000,48.500000" fill="#32271b"/><polygon points="31.300000,37.080000 30.170000,32.590000 32.260000,37.710000" fill="#32271b"/><polygon points="34.430000,70.140000 36.560000,69.360000 36.560000,71.810000" fill="#241305"/><polygon points="40.340000,73.080000 38.920000,73.600000 38.450000,74.660000" fill="#332123"/><polygon points="40.340000,73.080000 39.560000,73.980000 39.870000,71.390000" fill="#332123"/><polygon points="30.620000,43.270000 30.050000,45.460000 29.690000,45.660000" fill="#564c4f"/><polygon points="31.530000,39.570000 32.310000,41.750000 31.590000,40.080000" fill="#32271b"/><polygon points="33.000000,62.240000 34.700000,62.570000 34.280000,69.240000" fill="#241305"/><polygon points="66.560000,50.000000 69.400000,40.980000 70.240000,44.490000" fill="#351907"/><polygon points="36.880000,71.970000 39.870000,71.390000 38.150000,71.940000" fill="#241305"/><polygon points="30.620000,43.270000 30.410000,43.230000 29.690000,40.660000" fill="#564c4f"/><polygon points="38.920000,73.600000 39.400000,74.140000 38.610000,75.200000" fill="#241305"/><polygon points="52.220000,34.870000 39.860000,34.220000 45.100000,26.320000" fill="#2b1606"/><polygon points="30.620000,43.270000 29.690000,45.660000 30.410000,43.230000" fill="#564c4f"/><polygon points="41.940000,76.650000 39.400000,74.140000 43.420000,76.490000" fill="#281405"/><polygon points="32.480000,52.880000 30.190000,49.580000 32.500000,47.410000" fill="#33281b"/><polygon points="68.910000,32.980000 69.400000,40.980000 65.260000,33.810000" fill="#351907"/><polygon points="34.700000,62.570000 33.000000,62.240000 33.580000,58.630000" fill="#241305"/><polygon points="31.300000,37.080000 32.260000,37.710000 32.570000,38.410000" fill="#32271b"/><polygon points="36.560000,71.810000 38.600000,71.410000 36.880000,71.970000" fill="#251305"/><polygon points="32.500000,39.190000 35.300000,38.010000 36.630000,43.280000" fill="#413022"/><polygon points="31.530000,39.570000 32.110000,41.700000 32.310000,41.750000" fill="#32271b"/><polygon points="30.050000,45.460000 30.620000,43.270000 33.670000,43.240000" fill="#696063"/><polygon points="30.620000,43.270000 32.500000,39.190000 33.670000,43.240000" fill="#564c4f"/><polygon points="34.700000,62.570000 36.560000,69.360000 34.280000,69.240000" fill="#241305"/><polygon points="32.130000,45.640000 31.240000,46.960000 31.450000,46.550000" fill="#34291c"/><polygon points="32.130000,45.640000 31.450000,46.550000 32.330000,45.240000" fill="#34291c"/><polygon points="43.420000,76.490000 48.250000,75.860000 47.550000,77.240000" fill="#2c1606"/><polygon points="32.110000,41.700000 32.480000,43.720000 32.310000,41.750000" fill="#32271b"/><polygon points="64.880000,53.320000 64.610000,51.320000 66.560000,50.000000" fill="#2a1506"/><polygon points="30.050000,45.460000 33.670000,43.240000 32.500000,47.410000" fill="#696063"/><polygon points="39.250000,38.700000 36.970000,37.370000 39.860000,34.220000" fill="#251305"/><polygon points="33.480000,41.440000 31.530000,39.570000 32.570000,38.410000" fill="#33281b"/><polygon points="36.880000,71.970000 38.600000,71.410000 39.870000,71.390000" fill="#241305"/><polygon points="32.500000,47.410000 31.240000,46.960000 32.130000,45.640000" fill="#382b1e"/><polygon points="48.340000,63.900000 49.250000,61.140000 46.330000,64.640000" fill="#331907"/><polygon points="33.480000,41.440000 32.110000,41.700000 31.530000,39.570000" fill="#33281b"/><polygon points="35.010000,36.070000 32.260000,37.710000 30.170000,32.590000" fill="#351907"/><polygon points="32.260000,43.880000 32.330000,45.240000 32.480000,43.720000" fill="#32271b"/><polygon points="38.600000,71.410000 39.400000,74.140000 38.920000,73.600000" fill="#241305"/><polygon points="32.110000,41.700000 32.260000,43.880000 32.480000,43.720000" fill="#32271b"/><polygon points="38.760000,70.820000 36.560000,71.810000 36.560000,69.360000" fill="#291405"/><polygon points="32.260000,43.880000 32.130000,45.640000 32.330000,45.240000" fill="#32271b"/><polygon points="58.780000,36.910000 55.480000,26.260000 62.650000,30.480000" fill="#2e1606"/><polygon points="32.500000,39.190000 36.630000,43.280000 33.670000,43.240000" fill="#413022"/><polygon points="49.250000,61.140000 46.970000,57.840000 51.490000,60.390000" fill="#321807"/><polygon points="33.670000,43.240000 35.300000,48.500000 32.500000,47.410000" fill="#4d3b30"/><polygon points="32.500000,47.410000 32.130000,45.640000 33.060000,46.080000" fill="#382b1e"/><polygon points="34.720000,58.140000 33.580000,58.630000 33.870000,56.700000" fill="#241306"/><polygon points="36.560000,71.810000 38.760000,70.820000 38.600000,71.410000" fill="#251305"/><polygon points="39.400000,74.140000 43.460000,74.030000 43.420000,76.490000" fill="#281405"/><polygon points="55.890000,54.690000 64.610000,51.320000 64.880000,53.320000" fill="#301706"/><polygon points="33.480000,41.440000 32.260000,43.880000 32.110000,41.700000" fill="#33281b"/><polygon points="32.260000,37.710000 33.480000,41.440000 32.570000,38.410000" fill="#271406"/><polygon points="43.420000,76.490000 43.460000,74.030000 48.250000,75.860000" fill="#2c1606"/><polygon points="34.700000,62.570000 33.580000,58.630000 34.720000,58.140000" fill="#241305"/><polygon points="38.600000,71.410000 38.760000,70.820000 39.400000,74.140000" fill="#241305"/><polygon points="33.490000,44.090000 32.130000,45.640000 32.260000,43.880000" fill="#3a2c1f"/><polygon points="36.390000,37.740000 35.010000,36.070000 36.970000,37.370000" fill="#241305"/><polygon points="33.670000,43.240000 36.630000,43.280000 35.300000,48.500000" fill="#4d3b30"/><polygon points="33.490000,44.090000 33.060000,46.080000 32.130000,45.640000" fill="#3a2c1f"/><polygon points="36.390000,37.740000 36.970000,37.370000 39.250000,38.700000" fill="#241305"/><polygon points="33.480000,41.440000 33.490000,44.090000 32.260000,43.880000" fill="#33281b"/><polygon points="34.720000,58.140000 33.870000,56.700000 33.800000,56.350000" fill="#241306"/><polygon points="66.560000,50.000000 67.690000,43.280000 69.400000,40.980000" fill="#351907"/><polygon points="34.410000,54.170000 33.800000,56.350000 33.870000,56.700000" fill="#302622"/><polygon points="39.400000,74.140000 38.760000,70.820000 43.460000,74.030000" fill="#281405"/><polygon points="38.760000,70.820000 36.560000,69.360000 38.920000,69.930000" fill="#291405"/><polygon points="39.860000,34.220000 41.280000,36.950000 39.250000,38.700000" fill="#251305"/><polygon points="55.890000,54.690000 51.490000,60.390000 46.970000,57.840000" fill="#301706"/><polygon points="34.700000,62.570000 36.230000,62.720000 36.560000,69.360000" fill="#241305"/><polygon points="48.340000,63.900000 47.730000,59.780000 49.250000,61.140000" fill="#331907"/><polygon points="34.410000,54.170000 33.870000,56.700000 32.480000,52.880000" fill="#302622"/><polygon points="65.260000,33.810000 58.780000,36.910000 62.650000,30.480000" fill="#341907"/><polygon points="34.410000,54.170000 32.670000,56.400000 33.800000,56.350000" fill="#302622"/><polygon points="32.500000,47.410000 33.060000,46.080000 36.720000,48.670000" fill="#382b1e"/><polygon points="36.390000,37.740000 32.260000,37.710000 35.010000,36.070000" fill="#241305"/><polygon points="65.260000,33.810000 69.400000,40.980000 67.690000,43.280000" fill="#341907"/><polygon points="49.250000,61.140000 47.730000,59.780000 46.970000,57.840000" fill="#321807"/><polygon points="34.410000,54.170000 33.450000,53.750000 32.670000,56.400000" fill="#302622"/><polygon points="66.560000,50.000000 64.610000,51.320000 67.690000,43.280000" fill="#351907"/><polygon points="36.390000,59.360000 34.700000,62.570000 34.720000,58.140000" fill="#251305"/><polygon points="33.060000,46.080000 33.490000,44.090000 35.900000,43.960000" fill="#3b2c1f"/><polygon points="43.460000,74.030000 47.160000,70.280000 48.250000,75.860000" fill="#311806"/><polygon points="37.800000,62.870000 38.920000,69.930000 36.560000,69.360000" fill="#281405"/><polygon points="32.260000,37.710000 34.750000,39.830000 33.480000,41.440000" fill="#271406"/><polygon points="33.480000,41.440000 35.900000,43.960000 33.490000,44.090000" fill="#33281b"/><polygon points="32.500000,47.410000 36.720000,48.670000 32.480000,52.880000" fill="#382b1e"/><polygon points="33.080000,54.450000 32.670000,56.400000 33.450000,53.750000" fill="#35292a"/><polygon points="33.080000,54.450000 32.450000,56.450000 32.670000,56.400000" fill="#35292a"/><polygon points="37.800000,62.870000 36.560000,69.360000 36.230000,62.720000" fill="#281405"/><polygon points="36.390000,59.360000 36.230000,62.720000 34.700000,62.570000" fill="#251305"/><polygon points="42.650000,70.630000 43.460000,74.030000 38.760000,70.820000" fill="#311806"/><polygon points="42.650000,70.630000 38.760000,70.820000 38.920000,69.930000" fill="#311806"/><polygon points="34.720000,58.140000 33.750000,57.740000 35.580000,59.200000" fill="#241306"/><polygon points="34.810000,53.570000 33.450000,53.750000 34.410000,54.170000" fill="#392b1e"/><polygon points="36.390000,37.740000 34.750000,39.830000 32.260000,37.710000" fill="#241305"/><polygon points="58.780000,36.910000 52.220000,34.870000 55.480000,26.260000" fill="#2e1606"/><polygon points="36.390000,54.010000 34.410000,54.170000 32.480000,52.880000" fill="#392b1e"/><polygon points="52.220000,34.870000 41.280000,36.950000 39.860000,34.220000" fill="#2b1606"/><polygon points="34.810000,53.570000 33.080000,54.450000 33.450000,53.750000" fill="#392b1e"/><polygon points="34.720000,58.140000 35.580000,59.200000 36.390000,59.360000" fill="#241306"/><polygon points="32.450000,56.450000 33.080000,54.450000 33.990000,54.260000" fill="#35292a"/><polygon points="33.060000,46.080000 35.900000,43.960000 36.720000,48.670000" fill="#3b2c1f"/><polygon points="33.480000,41.440000 34.750000,39.830000 35.900000,43.960000" fill="#33281b"/><polygon points="43.460000,74.030000 42.650000,70.630000 47.160000,70.280000" fill="#311806"/><polygon points="43.210000,27.310000 39.230000,28.940000 42.900000,30.930000" fill="#291506"/><polygon points="34.580000,55.880000 33.550000,57.130000 32.450000,56.450000" fill="#382a2b"/><polygon points="34.810000,53.570000 34.410000,54.170000 36.390000,54.010000" fill="#392b1e"/><polygon points="36.390000,59.360000 37.800000,62.870000 36.230000,62.720000" fill="#251305"/><polygon points="34.810000,53.570000 33.990000,54.260000 33.080000,54.450000" fill="#392b1e"/><polygon points="36.390000,54.010000 32.480000,52.880000 36.720000,48.670000" fill="#392b1e"/><polygon points="43.210000,27.310000 42.900000,30.930000 46.370000,29.910000" fill="#291506"/><polygon points="48.340000,63.900000 46.310000,62.690000 47.730000,59.780000" fill="#331907"/><polygon points="32.450000,56.450000 33.990000,54.260000 34.580000,55.880000" fill="#35292a"/><polygon points="36.390000,37.740000 37.480000,35.810000 36.290000,37.320000" fill="#241305"/><polygon points="34.580000,55.880000 35.080000,58.340000 33.550000,57.130000" fill="#382a2b"/><polygon points="48.340000,63.900000 47.160000,70.280000 46.310000,62.690000" fill="#331907"/><polygon points="38.920000,69.930000 41.350000,63.050000 42.650000,70.630000" fill="#291506"/><polygon points="36.390000,37.740000 36.290000,37.320000 34.750000,39.830000" fill="#241305"/><polygon points="35.240000,55.400000 33.990000,54.260000 34.810000,53.570000" fill="#3d2d2f"/><polygon points="65.260000,33.810000 67.690000,43.280000 60.090000,37.970000" fill="#341907"/><polygon points="38.120000,58.350000 36.390000,59.360000 35.580000,59.200000" fill="#301808"/><polygon points="47.730000,59.780000 45.440000,58.960000 46.970000,57.840000" fill="#361907"/><polygon points="35.240000,55.400000 34.810000,53.570000 36.390000,54.010000" fill="#3d2d2f"/><polygon points="38.920000,69.930000 37.800000,62.870000 41.350000,63.050000" fill="#291506"/><polygon points="35.240000,55.400000 36.390000,54.010000 36.230000,55.580000" fill="#3d2d2f"/><polygon points="36.390000,59.360000 38.120000,58.350000 37.800000,62.870000" fill="#251305"/><polygon points="35.240000,55.400000 34.580000,55.880000 33.990000,54.260000" fill="#3d2d2f"/><polygon points="46.970000,57.840000 44.940000,57.140000 46.080000,56.350000" fill="#381a07"/><polygon points="65.260000,33.810000 60.090000,37.970000 58.780000,36.910000" fill="#341907"/><polygon points="46.970000,57.840000 50.980000,52.720000 55.890000,54.690000" fill="#381a07"/><polygon points="42.650000,70.630000 46.310000,62.690000 47.160000,70.280000" fill="#311806"/><polygon points="37.460000,57.970000 35.580000,59.200000 35.080000,58.340000" fill="#483336"/><polygon points="35.240000,55.400000 36.390000,54.010000 36.350000,53.610000" fill="#3d2d2f"/><polygon points="35.900000,43.960000 34.750000,39.830000 38.430000,41.100000" fill="#34281c"/><polygon points="55.890000,54.690000 55.740000,50.000000 64.610000,51.320000" fill="#301706"/><polygon points="36.640000,57.300000 35.080000,58.340000 34.580000,55.880000" fill="#3d2d2f"/><polygon points="44.940000,57.140000 45.330000,54.840000 46.080000,56.350000" fill="#371a07"/><polygon points="38.120000,58.350000 35.580000,59.200000 37.460000,57.970000" fill="#301808"/><polygon points="47.730000,59.780000 46.310000,62.690000 45.440000,58.960000" fill="#361907"/><polygon points="35.850000,54.320000 34.580000,55.880000 35.240000,55.400000" fill="#2b2122"/><polygon points="46.970000,57.840000 45.440000,58.960000 44.940000,57.140000" fill="#381a07"/><polygon points="35.850000,54.320000 35.240000,55.400000 36.350000,53.610000" fill="#2b2122"/><polygon points="36.290000,37.320000 38.430000,41.100000 34.750000,39.830000" fill="#25150b"/><polygon points="40.540000,38.500000 39.710000,43.120000 41.470000,37.440000" fill="#32271b"/><polygon points="52.220000,34.870000 50.430000,33.530000 41.280000,36.950000" fill="#2b1606"/><polygon points="37.460000,57.970000 35.080000,58.340000 36.640000,57.300000" fill="#483336"/><polygon points="39.560000,45.880000 36.720000,48.670000 35.900000,43.960000" fill="#32271b"/><polygon points="37.800000,62.870000 38.120000,58.350000 40.690000,59.110000" fill="#281405"/><polygon points="37.440000,52.990000 36.390000,54.010000 36.720000,48.670000" fill="#33261a"/><polygon points="64.610000,51.320000 60.560000,45.070000 67.690000,43.280000" fill="#331807"/><polygon points="42.650000,70.630000 41.350000,63.050000 46.310000,62.690000" fill="#311806"/><polygon points="46.970000,57.840000 46.080000,56.350000 50.980000,52.720000" fill="#381a07"/><polygon points="44.940000,57.140000 44.140000,55.340000 45.330000,54.840000" fill="#371a07"/><polygon points="48.020000,31.650000 43.210000,27.310000 46.370000,29.910000" fill="#311706"/><polygon points="37.800000,62.870000 40.690000,59.110000 41.350000,63.050000" fill="#281405"/><polygon points="35.900000,43.960000 38.430000,41.100000 38.750000,43.840000" fill="#34281c"/><polygon points="46.080000,56.350000 45.330000,54.840000 50.980000,52.720000" fill="#371a07"/><polygon points="36.780000,56.680000 34.580000,55.880000 35.850000,54.320000" fill="#432f31"/><polygon points="39.240000,42.940000 41.470000,48.430000 39.710000,43.120000" fill="#32271b"/><polygon points="37.460000,57.970000 38.750000,56.600000 38.120000,58.350000" fill="#483336"/><polygon points="36.640000,57.300000 34.580000,55.880000 36.780000,56.680000" fill="#3d2d2f"/><polygon points="37.440000,52.990000 38.430000,54.300000 36.390000,54.010000" fill="#33261a"/><polygon points="36.800000,54.580000 35.850000,54.320000 36.350000,53.610000" fill="#423032"/><polygon points="40.540000,38.500000 39.240000,42.940000 39.710000,43.120000" fill="#32271b"/><polygon points="36.290000,37.320000 39.070000,37.820000 38.430000,41.100000" fill="#25150b"/><polygon points="45.440000,58.960000 46.310000,62.690000 41.350000,63.050000" fill="#371a07"/><polygon points="40.370000,57.040000 44.140000,55.340000 44.940000,57.140000" fill="#351907"/><polygon points="38.120000,58.350000 38.750000,56.600000 40.370000,57.040000" fill="#301808"/><polygon points="44.940000,57.140000 45.440000,58.960000 40.690000,59.110000" fill="#371a07"/><polygon points="41.210000,36.060000 36.290000,37.320000 38.230000,31.460000" fill="#3b2d1f"/><polygon points="39.560000,45.880000 35.900000,43.960000 38.750000,43.840000" fill="#32271b"/><polygon points="38.120000,58.350000 40.370000,57.040000 40.690000,59.110000" fill="#301808"/><polygon points="45.440000,58.960000 41.350000,63.050000 40.690000,59.110000" fill="#371a07"/><polygon points="36.640000,57.300000 37.930000,56.660000 37.460000,57.970000" fill="#3d2d2f"/><polygon points="41.210000,36.060000 39.070000,37.820000 36.290000,37.320000" fill="#3b2d1f"/><polygon points="36.800000,54.580000 36.350000,53.610000 37.780000,53.880000" fill="#423032"/><polygon points="55.890000,54.690000 50.980000,52.720000 55.740000,50.000000" fill="#301706"/><polygon points="44.940000,57.140000 40.690000,59.110000 40.370000,57.040000" fill="#371a07"/><polygon points="40.370000,57.040000 38.750000,56.600000 38.430000,54.300000" fill="#351907"/><polygon points="48.020000,31.650000 46.370000,29.910000 50.430000,33.530000" fill="#311706"/><polygon points="37.460000,57.970000 37.930000,56.660000 38.750000,56.600000" fill="#483336"/><polygon points="36.780000,56.680000 35.850000,54.320000 36.800000,54.580000" fill="#432f31"/><polygon points="44.220000,36.410000 41.470000,37.440000 46.250000,34.830000" fill="#362a1d"/><polygon points="40.920000,30.470000 41.210000,36.060000 38.230000,31.460000" fill="#2b1506"/><polygon points="37.930000,56.660000 38.430000,54.300000 38.750000,56.600000" fill="#53383c"/><polygon points="45.330000,54.840000 44.140000,55.340000 49.810000,54.130000" fill="#351907"/><polygon points="44.220000,36.410000 40.540000,38.500000 41.470000,37.440000" fill="#362a1d"/><polygon points="38.430000,41.100000 39.070000,37.820000 39.890000,38.870000" fill="#35291c"/><polygon points="40.920000,30.470000 43.210000,27.310000 48.020000,31.650000" fill="#2b1506"/><polygon points="36.640000,57.300000 36.780000,56.680000 37.930000,56.660000" fill="#3d2d2f"/><polygon points="60.560000,45.070000 60.090000,37.970000 67.690000,43.280000" fill="#371a07"/><polygon points="36.720000,48.670000 39.560000,45.880000 40.540000,47.240000" fill="#34281c"/><polygon points="37.930000,56.660000 37.780000,53.880000 38.430000,54.300000" fill="#53383c"/><polygon points="40.370000,57.040000 37.440000,52.990000 44.140000,55.340000" fill="#351907"/><polygon points="36.720000,48.670000 40.540000,47.240000 37.440000,52.990000" fill="#34281c"/><polygon points="40.370000,57.040000 38.430000,54.300000 37.440000,52.990000" fill="#351907"/><polygon points="36.800000,54.580000 37.780000,53.880000 37.930000,56.660000" fill="#423032"/><polygon points="39.070000,43.550000 38.750000,43.840000 38.430000,41.100000" fill="#392b1e"/><polygon points="36.800000,54.580000 37.930000,56.660000 36.780000,56.680000" fill="#423032"/><polygon points="39.890000,38.870000 39.070000,37.820000 41.210000,36.060000" fill="#392b1e"/><polygon points="60.090000,37.970000 56.190000,36.280000 58.780000,36.910000" fill="#341907"/><polygon points="38.430000,41.100000 39.890000,38.870000 39.230000,41.230000" fill="#35291c"/><polygon points="39.070000,43.550000 38.430000,41.100000 39.230000,41.230000" fill="#392b1e"/><polygon points="39.240000,42.940000 40.540000,47.240000 41.470000,48.430000" fill="#32271b"/><polygon points="45.330000,54.840000 49.810000,54.130000 50.980000,52.720000" fill="#351907"/><polygon points="40.920000,30.470000 43.220000,35.690000 41.210000,36.060000" fill="#2b1506"/><polygon points="40.050000,41.250000 39.230000,41.230000 39.890000,38.870000" fill="#4a3425"/><polygon points="39.560000,45.390000 39.560000,45.880000 38.750000,43.840000" fill="#34281c"/><polygon points="40.540000,38.500000 40.230000,42.750000 39.240000,42.940000" fill="#32271b"/><polygon points="64.610000,51.320000 55.740000,50.000000 60.560000,45.070000" fill="#331807"/><polygon points="39.560000,45.390000 38.750000,43.840000 39.070000,43.550000" fill="#34281c"/><polygon points="39.890000,38.870000 41.210000,36.060000 41.390000,37.370000" fill="#392b1e"/><polygon points="40.210000,43.330000 39.230000,41.230000 40.050000,41.250000" fill="#4a3526"/><polygon points="40.050000,41.250000 39.890000,38.870000 40.880000,39.340000" fill="#4a3425"/><polygon points="40.210000,43.330000 39.070000,43.550000 39.230000,41.230000" fill="#4a3526"/><polygon points="41.390000,37.370000 41.210000,36.060000 43.220000,35.690000" fill="#382b1e"/><polygon points="39.890000,38.870000 41.720000,38.080000 40.880000,39.340000" fill="#392b1e"/><polygon points="40.380000,44.930000 39.070000,43.550000 40.210000,43.330000" fill="#473324"/><polygon points="39.890000,38.870000 41.390000,37.370000 41.720000,38.080000" fill="#392b1e"/><polygon points="40.540000,47.240000 39.560000,45.880000 39.560000,45.390000" fill="#32271b"/><polygon points="40.380000,44.930000 39.560000,45.390000 39.070000,43.550000" fill="#473324"/><polygon points="46.210000,51.400000 44.140000,55.340000 37.440000,52.990000" fill="#2f190e"/><polygon points="44.530000,33.110000 43.220000,35.690000 40.920000,30.470000" fill="#2c1606"/><polygon points="39.240000,42.940000 40.900000,45.070000 40.540000,47.240000" fill="#32271b"/><polygon points="40.540000,38.500000 40.900000,40.130000 40.230000,42.750000" fill="#32271b"/><polygon points="41.390000,37.370000 43.220000,35.690000 43.070000,37.050000" fill="#382b1e"/><polygon points="40.920000,30.470000 48.020000,31.650000 44.530000,33.110000" fill="#2b1506"/><polygon points="41.720000,38.080000 41.390000,37.370000 43.070000,37.050000" fill="#3c2d1f"/><polygon points="42.930000,39.090000 40.540000,38.500000 44.220000,36.410000" fill="#4e4d4d"/><polygon points="41.040000,46.290000 39.560000,45.390000 40.380000,44.930000" fill="#402f21"/><polygon points="41.470000,48.430000 40.540000,47.240000 44.220000,49.060000" fill="#4c4c4c"/><polygon points="40.540000,47.240000 39.560000,45.390000 40.220000,46.750000" fill="#32271b"/><polygon points="39.240000,42.940000 40.230000,42.750000 40.900000,45.070000" fill="#32271b"/><polygon points="48.200000,38.070000 44.220000,36.410000 46.250000,34.830000" fill="#453223"/><polygon points="42.930000,39.090000 40.900000,40.130000 40.540000,38.500000" fill="#4e4d4d"/><polygon points="46.210000,51.400000 49.810000,54.130000 44.140000,55.340000" fill="#2f190e"/><polygon points="60.090000,37.970000 59.640000,37.540000 56.190000,36.280000" fill="#341907"/><polygon points="41.720000,38.080000 43.070000,37.050000 43.240000,37.770000" fill="#3c2d1f"/><polygon points="41.040000,46.290000 40.220000,46.750000 39.560000,45.390000" fill="#402f21"/><polygon points="41.470000,48.430000 44.220000,49.060000 46.250000,50.690000" fill="#4c4c4c"/><polygon points="43.070000,37.050000 43.220000,35.690000 45.960000,36.710000" fill="#3a2c1e"/><polygon points="48.200000,38.070000 46.250000,34.830000 51.430000,36.820000" fill="#453223"/><polygon points="54.460000,34.870000 48.020000,31.650000 50.430000,33.530000" fill="#2f1708"/><polygon points="60.560000,45.070000 59.640000,37.540000 60.090000,37.970000" fill="#371a07"/><polygon points="37.440000,52.990000 40.540000,47.240000 45.060000,49.530000" fill="#33261a"/><polygon points="44.530000,33.110000 45.960000,36.710000 43.220000,35.690000" fill="#2c1606"/><polygon points="54.460000,34.870000 50.430000,33.530000 56.190000,36.280000" fill="#2f1708"/><polygon points="43.070000,37.050000 44.970000,38.090000 43.240000,37.770000" fill="#3a2c1e"/><polygon points="44.260000,48.110000 40.540000,47.240000 40.220000,46.750000" fill="#392b1e"/><polygon points="50.980000,52.720000 49.810000,54.130000 54.190000,51.180000" fill="#2d1606"/><polygon points="43.070000,37.050000 45.960000,36.710000 44.670000,37.780000" fill="#3a2c1e"/><polygon points="50.980000,52.720000 54.190000,51.180000 55.740000,50.000000" fill="#2d1606"/><polygon points="40.540000,47.240000 40.900000,45.070000 42.930000,45.970000" fill="#32271b"/><polygon points="44.260000,48.110000 40.220000,46.750000 41.040000,46.290000" fill="#392b1e"/><polygon points="37.440000,52.990000 45.060000,49.530000 46.210000,51.400000" fill="#33261a"/><polygon points="43.070000,37.050000 44.670000,37.780000 44.970000,38.090000" fill="#3a2c1e"/><polygon points="45.180000,39.930000 42.930000,39.090000 44.220000,36.410000" fill="#6d6366"/><polygon points="59.640000,37.540000 54.460000,34.870000 56.190000,36.280000" fill="#321807"/><polygon points="40.540000,47.240000 42.930000,45.970000 44.220000,49.060000" fill="#32271b"/><polygon points="55.740000,50.000000 60.700000,45.440000 60.560000,45.070000" fill="#311b11"/><polygon points="44.260000,48.110000 45.060000,49.530000 40.540000,47.240000" fill="#392b1e"/><polygon points="45.180000,39.930000 44.220000,36.410000 48.200000,38.070000" fill="#6d6366"/><polygon points="60.700000,45.440000 59.640000,37.540000 60.560000,45.070000" fill="#361a07"/><polygon points="48.020000,31.650000 51.890000,36.850000 44.530000,33.110000" fill="#311706"/><polygon points="44.260000,48.110000 41.040000,46.290000 44.580000,47.410000" fill="#392b1e"/><polygon points="42.440000,46.430000 40.900000,45.070000 40.230000,45.290000" fill="#000000"/><polygon points="42.930000,39.090000 45.040000,39.640000 42.440000,38.560000" fill="#4e4d4d"/><polygon points="54.190000,51.180000 49.810000,54.130000 46.210000,51.400000" fill="#301706"/><polygon points="45.960000,36.710000 49.500000,39.140000 44.670000,37.780000" fill="#3a2c1f"/><polygon points="44.670000,37.780000 49.080000,39.700000 44.970000,38.090000" fill="#372a1d"/><polygon points="46.250000,50.690000 44.220000,49.060000 48.200000,47.140000" fill="#535151"/><polygon points="49.970000,42.550000 48.200000,38.070000 51.430000,36.820000" fill="#4a3525"/><polygon points="42.440000,46.430000 42.930000,45.970000 40.900000,45.070000" fill="#000000"/><polygon points="55.740000,50.000000 54.190000,51.180000 60.700000,45.440000" fill="#311b11"/><polygon points="51.890000,36.850000 45.960000,36.710000 44.530000,33.110000" fill="#2f1809"/><polygon points="42.930000,39.090000 45.180000,39.930000 45.040000,39.640000" fill="#4e4d4d"/><polygon points="48.020000,31.650000 54.460000,34.870000 51.890000,36.850000" fill="#311706"/><polygon points="42.440000,46.430000 40.230000,45.290000 41.940000,42.580000" fill="#000000"/><polygon points="42.440000,38.560000 45.040000,39.640000 41.940000,42.580000" fill="#090705"/><polygon points="49.970000,42.550000 51.430000,36.820000 53.570000,42.630000" fill="#4a3525"/><polygon points="46.250000,50.690000 48.200000,47.140000 51.430000,48.350000" fill="#535151"/><polygon points="59.640000,37.540000 58.800000,36.330000 54.460000,34.870000" fill="#321807"/><polygon points="45.960000,36.710000 51.050000,38.410000 49.500000,39.140000" fill="#3a2c1f"/><polygon points="46.210000,51.400000 45.060000,49.530000 48.330000,48.100000" fill="#2f190e"/><polygon points="60.700000,45.440000 58.800000,36.330000 59.640000,37.540000" fill="#361a07"/><polygon points="44.670000,37.780000 49.500000,39.140000 49.080000,39.700000" fill="#372a1d"/><polygon points="44.220000,49.060000 42.930000,45.970000 45.180000,44.960000" fill="#362a1d"/><polygon points="46.060000,42.540000 45.180000,39.930000 48.200000,38.070000" fill="#776a6e"/><polygon points="47.030000,46.890000 45.060000,49.530000 44.260000,48.110000" fill="#3d2d20"/><polygon points="47.030000,46.890000 44.260000,48.110000 44.580000,47.410000" fill="#3d2d20"/><polygon points="51.890000,36.850000 51.050000,38.410000 45.960000,36.710000" fill="#2f1809"/><polygon points="45.040000,45.180000 42.930000,45.970000 42.440000,46.430000" fill="#13100f"/><polygon points="51.430000,48.350000 49.970000,42.550000 53.570000,42.630000" fill="#6b6265"/><polygon points="47.030000,46.890000 48.330000,48.100000 45.060000,49.530000" fill="#3d2d20"/><polygon points="45.180000,39.930000 45.910000,42.510000 45.040000,39.640000" fill="#6d6366"/><polygon points="44.220000,49.060000 45.180000,44.960000 48.200000,47.140000" fill="#362a1d"/><polygon points="41.940000,42.580000 45.040000,45.180000 42.440000,46.430000" fill="#000000"/><polygon points="47.030000,46.890000 44.580000,47.410000 46.990000,46.430000" fill="#3d2d20"/><polygon points="45.040000,39.640000 45.910000,42.510000 41.940000,42.580000" fill="#231f1f"/><polygon points="46.060000,42.540000 48.200000,38.070000 49.970000,42.550000" fill="#776a6e"/><polygon points="49.080000,39.700000 49.500000,39.140000 50.210000,41.050000" fill="#32271b"/><polygon points="54.190000,51.180000 46.210000,51.400000 52.180000,48.320000" fill="#301706"/><polygon points="49.080000,39.700000 50.210000,41.050000 49.790000,41.360000" fill="#32271b"/><polygon points="46.210000,51.400000 48.330000,48.100000 52.180000,48.320000" fill="#2f190e"/><polygon points="45.040000,45.180000 45.180000,44.960000 42.930000,45.970000" fill="#13100f"/><polygon points="45.180000,39.930000 46.060000,42.540000 45.910000,42.510000" fill="#6d6366"/><polygon points="51.050000,38.410000 50.210000,41.050000 49.500000,39.140000" fill="#3a2c1f"/><polygon points="51.430000,48.350000 48.200000,47.140000 49.970000,42.550000" fill="#6b6265"/><polygon points="54.460000,34.870000 58.800000,36.330000 54.640000,38.150000" fill="#2f1708"/><polygon points="45.910000,42.510000 45.040000,45.180000 41.940000,42.580000" fill="#191617"/><polygon points="51.050000,38.410000 52.290000,40.790000 50.210000,41.050000" fill="#3a2c1f"/><polygon points="49.600000,43.530000 47.030000,46.890000 46.990000,46.430000" fill="#32281c"/><polygon points="55.300000,43.670000 60.700000,45.440000 54.190000,51.180000" fill="#311806"/><polygon points="50.210000,41.050000 49.600000,43.530000 49.790000,41.360000" fill="#392b1e"/><polygon points="48.200000,47.140000 45.180000,44.960000 46.060000,42.540000" fill="#453223"/><polygon points="45.910000,42.510000 46.060000,42.540000 45.180000,44.960000" fill="#191617"/><polygon points="48.200000,47.140000 46.060000,42.540000 49.970000,42.550000" fill="#453223"/><polygon points="54.460000,34.870000 54.640000,38.150000 51.890000,36.850000" fill="#2f1708"/><polygon points="54.640000,38.150000 52.290000,40.790000 51.050000,38.410000" fill="#2f1706"/><polygon points="58.800000,36.330000 60.700000,45.440000 55.300000,43.670000" fill="#361907"/><polygon points="45.910000,42.510000 45.180000,44.960000 45.040000,45.180000" fill="#191617"/><polygon points="50.180000,43.970000 48.330000,48.100000 47.030000,46.890000" fill="#3c2d20"/><polygon points="49.600000,43.530000 50.180000,43.970000 47.030000,46.890000" fill="#32281c"/><polygon points="50.210000,41.050000 50.180000,43.970000 49.600000,43.530000" fill="#392b1e"/><polygon points="54.640000,38.150000 51.050000,38.410000 51.890000,36.850000" fill="#2f1706"/><polygon points="50.210000,41.050000 52.290000,40.790000 51.920000,44.200000" fill="#392b1e"/><polygon points="50.180000,43.970000 51.920000,44.200000 48.330000,48.100000" fill="#3c2d20"/><polygon points="55.300000,43.670000 54.190000,51.180000 52.180000,48.320000" fill="#311806"/><polygon points="52.180000,48.320000 48.330000,48.100000 51.920000,44.200000" fill="#311a0e"/><polygon points="50.210000,41.050000 51.920000,44.200000 50.180000,43.970000" fill="#392b1e"/><polygon points="58.800000,36.330000 55.300000,43.670000 54.640000,38.150000" fill="#361907"/><polygon points="55.300000,43.670000 51.920000,44.200000 52.290000,40.790000" fill="#311806"/><polygon points="55.300000,43.670000 52.290000,40.790000 54.640000,38.150000" fill="#311806"/><polygon points="52.180000,48.320000 51.920000,44.200000 55.300000,43.670000" fill="#311a0e"/></svg>