<svg viewBox="0 0 100 100" xmlns="http://www.w3.org/2000/svg"><polygon points="48.201468,47.137034 46.056510,42.540232 49.970074,42.550822" fill="#3f3021"/><polygon points="51.425684,48.352292 49.970074,42.550822 53.565488,42.632709" fill="#625d5f"/><polygon points="46.250771,50.689706 48.201468,47.137034 51.425684,48.352292" fill="#504f50"/><polygon points="44.220062,49.062632 45.181808,44.964758 48.201468,47.137034" fill="#35291c"/><polygon points="28.970553,46.379782 32.495566,47.406176 30.278891,49.157294" fill="#4b4b4b"/><polygon points="40.539484,47.241009 42.930882,45.968220 44.220062,49.062632" fill="#31271b"/><polygon points="30.278891,49.157294 35.296848,48.501245 32.346244,50.621244" fill="#31271b"/><polygon points="41.468272,48.429614 44.220062,49.062632 46.250771,50.689706" fill="#4b4b4b"/><polygon points="33.669823,43.236984 35.296848,48.501245 32.495566,47.406176" fill="#46382e"/><polygon points="39.235927,42.941736 41.468272,48.429614 39.713800,43.117909" fill="#31271b"/><polygon points="30.047856,45.464256 33.669823,43.236984 32.495566,47.406176" fill="#605c5e"/><polygon points="39.235927,42.941736 40.896806,45.067021 40.539484,47.241009" fill="#31271b"/><polygon points="30.620508,43.273389 32.495566,39.192396 33.669823,43.236984" fill="#4d484a"/><polygon points="40.539484,38.504202 40.225931,42.754207 39.235927,42.941736" fill="#32271b"/><polygon points="32.495566,39.192396 36.628731,43.276898 33.669823,43.236984" fill="#3c2e21"/><polygon points="40.539484,38.504202 39.713800,43.117909 41.468272,37.437019" fill="#32271b"/><polygon points="30.278891,37.780753 35.296848,38.010065 32.495566,39.192396" fill="#31271b"/><polygon points="44.220061,36.408147 41.468272,37.437019 46.250771,34.826814" fill="#35291c"/><polygon points="28.970553,40.204076 32.495566,39.192396 30.047856,40.928484" fill="#4b4b4b"/><polygon points="42.930882,39.090435 40.539484,38.504202 44.220061,36.408147" fill="#4c4c4c"/><polygon points="45.181808,39.929485 44.220061,36.408147 48.201468,38.070971" fill="#635e60"/><polygon points="48.201468,38.070971 46.250771,34.826814 51.425684,36.818452" fill="#3f3021"/><polygon points="49.970074,42.550822 51.425684,36.818452 53.565488,42.632709" fill="#433223"/><polygon points="46.056510,42.540232 48.201468,38.070971 49.970074,42.550822" fill="#6a6467"/><polygon points="45.181808,39.929485 45.913741,42.507742 45.035776,39.644953" fill="#635e60"/><polygon points="28.970553,40.204076 27.321625,40.965888 27.787042,41.189637" fill="#4b4b4b"/><polygon points="42.930882,39.090435 45.035776,39.644953 42.439388,38.564460" fill="#4c4c4c"/><polygon points="30.047856,40.928484 28.472595,39.736547 28.970553,40.204076" fill="#605b5d"/><polygon points="30.620508,43.273389 29.689932,40.663339 30.047856,40.928484" fill="#4d484a"/><polygon points="30.620508,43.273389 29.689932,45.657374 30.408318,43.229767" fill="#4d484a"/><polygon points="30.047856,45.464256 28.472595,46.792658 29.689932,45.657374" fill="#605c5e"/><polygon points="42.439388,46.426379 40.896806,45.067021 40.232406,45.286725" fill="#000000"/><polygon points="28.970553,46.379782 27.321625,45.798095 28.472595,46.792658" fill="#4b4b4b"/><polygon points="45.035777,45.183707 42.930882,45.968220 42.439388,46.426379" fill="#110f0e"/><polygon points="45.913741,42.507742 45.181808,44.964758 45.035777,45.183707" fill="#161516"/><polygon points="27.970582,43.344408 27.321625,45.798095 26.946822,43.524650" fill="#000000"/><polygon points="45.913741,42.507742 45.035777,45.183707 41.943435,42.580875" fill="#161516"/><polygon points="28.472595,46.792658 27.321625,45.798095 27.970582,43.344408" fill="#110d09"/><polygon points="41.943435,42.580875 45.035777,45.183707 42.439388,46.426379" fill="#000000"/><polygon points="27.970582,43.344408 29.689932,45.657374 28.472595,46.792658" fill="#000000"/><polygon points="42.439388,46.426379 40.232406,45.286725 41.943435,42.580875" fill="#000000"/><polygon points="27.970582,43.344408 30.408318,43.229767 29.689932,45.657374" fill="#000000"/><polygon points="27.970582,43.344408 29.689932,40.663339 30.408318,43.229767" fill="#000000"/><polygon points="27.970582,43.344408 28.472595,39.736547 29.689932,40.663339" fill="#000000"/><polygon points="27.970582,43.344408 27.321625,40.965888 28.472595,39.736547" fill="#000000"/><polygon points="42.439388,38.564460 45.035776,39.644953 41.943435,42.580875" fill="#090705"/><polygon points="27.970582,43.344408 26.946822,43.524650 27.321625,40.965888" fill="#000000"/><polygon points="45.035776,39.644953 45.913741,42.507742 41.943435,42.580875" fill="#201e1e"/><polygon points="35.464199,75.380695 39.706918,77.265710 36.718328,76.035482" fill="#241305"/><polygon points="41.941860,76.652285 39.706918,77.265710 38.467427,76.474634" fill="#271405"/><polygon points="34.155717,74.701561 36.718328,76.035482 34.611209,74.747823" fill="#241305"/><polygon points="43.415307,76.488706 43.798016,77.447411 41.941860,76.652285" fill="#2a1506"/><polygon points="43.415307,76.488706 48.252322,75.856516 47.547697,77.240428" fill="#2a1506"/><polygon points="43.457766,74.025902 47.162284,70.283210 48.252322,75.856516" fill="#2d1706"/><polygon points="42.651836,70.633256 46.311767,62.685490 47.162284,70.283210" fill="#2d1706"/><polygon points="46.206426,51.404039 44.135444,55.338785 37.436986,52.991552" fill="#2c180d"/><polygon points="54.192156,51.184395 46.206426,51.404039 52.184958,48.318240" fill="#2d1606"/><polygon points="55.295453,43.669070 54.192156,51.184395 52.184958,48.318240" fill="#2d1706"/><polygon points="58.803464,36.327319 55.295453,43.669070 54.635076,38.153227" fill="#301807"/><polygon points="54.461971,34.872258 54.635076,38.153227 51.893079,36.854826" fill="#2c1607"/><polygon points="48.021230,31.652622 51.893079,36.854826 44.532025,33.113004" fill="#2d1606"/><polygon points="40.917020,30.470060 48.021230,31.652622 44.532025,33.113004" fill="#291506"/><polygon points="33.047582,29.920211 28.502688,32.269385 30.514026,29.416943" fill="#2d1706"/><polygon points="35.005826,36.074737 30.169524,32.589555 33.047582,29.920211" fill="#301807"/><polygon points="36.393423,37.744795 32.260023,37.708431 35.005826,36.074737" fill="#241305"/><polygon points="36.393423,37.744795 36.286755,37.315890 34.745423,39.829192" fill="#241305"/><polygon points="31.302062,37.084651 32.260023,37.708431 32.571760,38.413673" fill="#31271b"/><polygon points="41.210449,36.061957 36.286755,37.315890 38.230009,31.457791" fill="#382b1e"/><polygon points="31.302062,37.084651 28.502688,32.269385 30.169524,32.589555" fill="#31271b"/><polygon points="40.917020,30.470060 41.210449,36.061957 38.230009,31.457791" fill="#291506"/><polygon points="27.125862,35.237436 30.210769,37.053216 28.901736,38.333022" fill="#241305"/><polygon points="44.532025,33.113004 43.224750,35.694863 40.917020,30.470060" fill="#291506"/><polygon points="24.404547,39.334496 28.901736,38.333022 27.099100,40.325462" fill="#241305"/><polygon points="51.893079,36.854826 45.964887,36.710967 44.532025,33.113004" fill="#2c1708"/><polygon points="24.965230,40.520755 27.099100,40.325462 26.770315,42.401219" fill="#241305"/><polygon points="54.635076,38.153227 51.050033,38.409324 51.893079,36.854826" fill="#2c1606"/><polygon points="26.314405,44.899435 26.770315,42.401219 27.027750,45.190526" fill="#25160d"/><polygon points="55.295453,43.669070 52.293068,40.793063 54.635076,38.153227" fill="#2d1706"/><polygon points="27.629186,48.601070 27.027750,45.190526 28.785123,48.360846" fill="#271913"/><polygon points="52.184958,48.318240 51.916914,44.200062 55.295453,43.669070" fill="#2e190e"/><polygon points="30.412106,51.245680 28.785123,48.360846 30.185254,49.581177" fill="#241305"/><polygon points="46.206426,51.404039 48.332599,48.099527 52.184958,48.318240" fill="#2c180d"/><polygon points="32.482974,52.878650 30.185254,49.581177 32.495566,47.406176" fill="#32271b"/><polygon points="37.436986,52.991552 45.056084,49.530955 46.206426,51.404039" fill="#322619"/><polygon points="32.495566,47.406176 36.717469,48.666842 32.482974,52.878650" fill="#362a1d"/><polygon points="36.717469,48.666842 40.539484,47.241009 37.436986,52.991552" fill="#33281b"/><polygon points="32.260023,37.708431 33.476338,41.436217 32.571760,38.413673" fill="#261405"/><polygon points="36.286755,37.315890 38.425932,41.103259 34.745423,39.829192" fill="#25150b"/><polygon points="33.476338,41.436217 35.903941,43.958165 33.491609,44.086381" fill="#33271b"/><polygon points="35.903941,43.958165 38.425932,41.103259 38.749937,43.842149" fill="#33281b"/><polygon points="33.063830,46.081330 35.903941,43.958165 36.717469,48.666842" fill="#382b1e"/><polygon points="39.559754,45.880724 35.903941,43.958165 38.749937,43.842149" fill="#31271b"/><polygon points="36.136542,74.734110 38.467427,76.474634 35.464199,75.380695" fill="#251405"/><polygon points="38.467427,76.474634 38.606851,75.204241 41.941860,76.652285" fill="#251305"/><polygon points="34.763385,73.295449 35.464199,75.380695 34.155717,74.701561" fill="#241305"/><polygon points="41.941860,76.652285 39.397959,74.135035 43.415307,76.488706" fill="#271405"/><polygon points="34.763385,73.295449 32.951257,72.187202 34.427738,70.136550" fill="#241305"/><polygon points="39.397959,74.135035 43.457766,74.025902 43.415307,76.488706" fill="#271405"/><polygon points="32.998611,62.239395 34.278387,69.238620 32.759333,69.137697" fill="#241305"/><polygon points="38.915396,69.934990 41.346687,63.045022 42.651836,70.633256" fill="#271406"/><polygon points="34.427738,70.136550 32.759333,69.137697 34.278387,69.238620" fill="#241305"/><polygon points="42.651836,70.633256 38.755417,70.816007 38.915396,69.934990" fill="#2d1706"/><polygon points="36.393423,59.358511 34.703195,62.569429 34.715344,58.138148" fill="#251305"/><polygon points="36.393423,59.358511 37.795012,62.871784 36.230731,62.718810" fill="#251305"/><polygon points="34.703195,62.569429 36.555676,69.358122 34.278387,69.238620" fill="#241305"/><polygon points="37.795012,62.871784 36.555676,69.358122 36.230731,62.718810" fill="#271405"/><polygon points="34.427738,70.136550 36.555676,69.358122 36.555676,71.805684" fill="#241305"/><polygon points="38.755417,70.816007 36.555676,69.358122 38.915396,69.934990" fill="#271405"/><polygon points="37.458292,57.968608 38.751774,56.596398 38.115897,58.353440" fill="#423133"/><polygon points="34.414893,54.169304 32.667191,56.396098 33.803777,56.350216" fill="#302622"/><polygon points="37.929562,56.662182 38.433959,54.299967 38.751774,56.596398" fill="#4a3538"/><polygon points="34.806564,53.569209 34.414893,54.169304 36.393423,54.010791" fill="#372a1d"/><polygon points="35.244761,55.401195 36.393423,54.010791 36.230731,55.578418" fill="#3a2c2d"/><polygon points="35.244761,55.401195 36.393423,54.010791 36.353262,53.612125" fill="#3a2c2d"/><polygon points="34.715344,58.138148 35.575292,59.200739 36.393423,59.358511" fill="#241306"/><polygon points="38.115897,58.353440 35.575292,59.200739 37.458292,57.968608" fill="#2c1707"/><polygon points="37.458292,57.968608 35.078779,58.338739 36.644918,57.299515" fill="#423133"/><polygon points="35.244761,55.401195 33.990455,54.257505 34.806564,53.569209" fill="#3a2c2d"/><polygon points="35.847619,54.319365 35.244761,55.401195 36.353262,53.612125" fill="#2b2122"/><polygon points="34.806564,53.569209 33.081679,54.449705 33.445600,53.752148" fill="#372a1d"/><polygon points="36.796586,54.579957 36.353262,53.612125 37.777467,53.879855" fill="#3f2e30"/><polygon points="33.081679,54.449705 32.667191,56.396098 33.445600,53.752148" fill="#35282a"/><polygon points="36.796586,54.579957 37.929562,56.662182 36.782371,56.676618" fill="#3f2e30"/><polygon points="36.644918,57.299515 37.929562,56.662182 37.458292,57.968608" fill="#3a2c2d"/><polygon points="32.446814,56.454992 33.990455,54.257505 34.578004,55.884920" fill="#35282a"/><polygon points="36.782371,56.676618 35.847619,54.319365 36.796586,54.579957" fill="#3e2d2f"/><polygon points="34.578004,55.884920 33.549792,57.126354 32.446814,56.454992" fill="#37292b"/><polygon points="36.644918,57.299515 34.578004,55.884920 36.782371,56.676618" fill="#3a2c2d"/><polygon points="36.393423,54.010791 32.482974,52.878650 36.717469,48.666842" fill="#372a1d"/><polygon points="37.436986,52.991552 36.393423,54.010791 36.717469,48.666842" fill="#322619"/><polygon points="34.414893,54.169304 33.874920,56.702528 32.482974,52.878650" fill="#302622"/><polygon points="40.365227,57.043172 38.433959,54.299967 37.436986,52.991552" fill="#301806"/><polygon points="34.715344,58.138148 33.874920,56.702528 33.803777,56.350216" fill="#241306"/><polygon points="38.115897,58.353440 40.365227,57.043172 40.690807,59.109994" fill="#2c1707"/><polygon points="34.703195,62.569429 33.581461,58.628532 34.715344,58.138148" fill="#241305"/><polygon points="37.795012,62.871784 40.690807,59.109994 41.346687,63.045022" fill="#271405"/><polygon points="45.439874,58.959630 41.346687,63.045022 40.690807,59.109994" fill="#311907"/><polygon points="44.943222,57.142144 40.690807,59.109994 40.365227,57.043172" fill="#321907"/><polygon points="40.365227,57.043172 44.135444,55.338785 44.943222,57.142144" fill="#301806"/><polygon points="36.555676,71.805684 34.889537,70.812799 34.427738,70.136550" fill="#251305"/><polygon points="36.555676,71.805684 38.598069,71.412443 36.878788,71.966156" fill="#251305"/><polygon points="34.763385,73.295449 34.889537,70.812799 35.212292,72.939795" fill="#241305"/><polygon points="38.598069,71.412443 39.397959,74.135035 38.919515,73.598833" fill="#241305"/><polygon points="36.136542,74.734110 35.212292,72.939795 36.599956,74.319281" fill="#251405"/><polygon points="38.919515,73.598833 38.606851,75.204241 38.452271,74.664658" fill="#241305"/><polygon points="37.519585,75.152653 36.599956,74.319281 37.519583,74.711376" fill="#251305"/><polygon points="38.452271,74.664658 37.519585,75.152653 37.519583,74.711376" fill="#241305"/><polygon points="36.599956,74.319281 38.623878,74.034482 37.519583,74.711376" fill="#2b170a"/><polygon points="38.452271,74.664658 38.623878,74.034482 39.555211,73.983432" fill="#241305"/><polygon points="36.599956,74.319281 36.642899,72.441252 37.705459,73.650834" fill="#2b170a"/><polygon points="40.343707,73.077795 38.452271,74.664658 39.555211,73.983432" fill="#332123"/><polygon points="35.212292,72.939795 36.169977,70.800467 36.642899,72.441252" fill="#2e1706"/><polygon points="36.878788,71.966156 36.169977,70.800467 34.889537,70.812799" fill="#241305"/><polygon points="36.878788,71.966156 39.873018,71.392973 38.153239,71.940820" fill="#241305"/><polygon points="38.153239,71.940820 37.705459,73.650834 36.169977,70.800467" fill="#331d21"/><polygon points="39.555211,73.983432 38.153239,71.940820 39.873018,71.392973" fill="#311c20"/><polygon points="36.169977,70.800467 37.705459,73.650834 36.642899,72.441252" fill="#3d2226"/><polygon points="40.343707,73.077795 39.555211,73.983432 39.873018,71.392973" fill="#332123"/><polygon points="33.491609,44.086381 32.131767,45.643016 32.259814,43.877549" fill="#382b1e"/><polygon points="39.560714,45.386048 38.749937,43.842149 39.069837,43.546876" fill="#33281b"/><polygon points="33.476338,41.436217 32.259814,43.877549 32.113133,41.700625" fill="#33271b"/><polygon points="39.069837,43.546876 38.425932,41.103259 39.233181,41.231424" fill="#372a1d"/><polygon points="33.476338,41.436217 31.529844,39.565131 32.571760,38.413673" fill="#33271b"/><polygon points="38.425932,41.103259 39.890549,38.869185 39.233181,41.231424" fill="#34281c"/><polygon points="32.495566,47.406176 32.131767,45.643016 33.063830,46.081330" fill="#362a1d"/><polygon points="40.539484,47.241009 39.560714,45.386048 40.221652,46.745474" fill="#31271b"/><polygon points="32.495566,47.406176 29.375136,48.313499 31.240240,46.963529" fill="#362a1d"/><polygon points="44.259606,48.109750 40.539484,47.241009 40.221652,46.745474" fill="#372a1d"/><polygon points="30.185254,49.581177 28.090045,47.309521 29.375136,48.313499" fill="#31271b"/><polygon points="47.033078,46.891489 45.056084,49.530955 44.259606,48.109750" fill="#392c1f"/><polygon points="28.785123,48.360846 27.171226,44.931902 28.090045,47.309521" fill="#31271b"/><polygon points="50.184513,43.967986 48.332599,48.099527 47.033078,46.891489" fill="#392b1f"/><polygon points="27.027750,45.190526 26.880836,42.497655 27.171226,44.931902" fill="#31271b"/><polygon points="50.214879,41.047396 51.916914,44.200062 50.184513,43.967986" fill="#372a1d"/><polygon points="27.099100,40.325462 26.880836,42.497655 26.770315,42.401219" fill="#31271b"/><polygon points="51.050033,38.409324 50.214879,41.047396 49.504438,39.137011" fill="#382b1e"/><polygon points="28.901736,38.333022 27.112897,40.834031 27.099100,40.325462" fill="#31271b"/><polygon points="45.964887,36.710967 49.504438,39.137011 44.665825,37.784109" fill="#382b1e"/><polygon points="28.901736,38.333022 29.743658,38.308363 27.894755,39.263400" fill="#31271b"/><polygon points="43.073675,37.047160 45.964887,36.710967 44.665825,37.784109" fill="#372a1d"/><polygon points="30.210769,37.053216 30.544370,38.384394 29.743658,38.308363" fill="#31271b"/><polygon points="41.388299,37.371644 43.224750,35.694863 43.073675,37.047160" fill="#362a1d"/><polygon points="31.302062,37.084651 31.529844,39.565131 30.544370,38.384394" fill="#31271b"/><polygon points="39.890549,38.869185 41.210449,36.061957 41.388299,37.371644" fill="#372a1d"/><polygon points="31.529844,39.565131 30.566673,39.057168 30.544370,38.384394" fill="#31271b"/><polygon points="39.890549,38.869185 41.719742,38.076053 40.877119,39.340543" fill="#372a1d"/><polygon points="29.743658,38.308363 30.566673,39.057168 29.907398,38.960994" fill="#31271b"/><polygon points="41.719742,38.076053 43.073675,37.047160 43.235157,37.771969" fill="#392b1e"/><polygon points="29.743658,38.308363 28.524014,39.504241 27.894755,39.263400" fill="#31271b"/><polygon points="43.073675,37.047160 44.973568,38.093152 43.235157,37.771969" fill="#372a1d"/><polygon points="27.894755,39.263400 27.960220,41.225994 27.112897,40.834031" fill="#31271b"/><polygon points="44.665825,37.784109 49.082594,39.704279 44.973568,38.093152" fill="#35291c"/><polygon points="26.880836,42.497655 27.960220,41.225994 27.723932,42.687644" fill="#31271b"/><polygon points="49.082594,39.704279 50.214879,41.047396 49.786283,41.360417" fill="#31271b"/><polygon points="26.880836,42.497655 27.855584,44.509780 27.171226,44.931902" fill="#31271b"/><polygon points="50.214879,41.047396 49.602936,43.528570 49.786283,41.360417" fill="#372a1d"/><polygon points="28.090045,47.309521 27.855584,44.509780 28.682186,46.896884" fill="#31271b"/><polygon points="49.602936,43.528570 47.033078,46.891489 46.990954,46.433135" fill="#32281c"/><polygon points="28.090045,47.309521 29.700494,47.687237 29.375136,48.313499" fill="#31271b"/><polygon points="47.033078,46.891489 44.579641,47.408663 46.990954,46.433135" fill="#392c1f"/><polygon points="29.375136,48.313499 31.445676,46.551954 31.240240,46.963529" fill="#31271b"/><polygon points="44.259606,48.109750 41.043589,46.287782 44.579641,47.408663" fill="#372a1d"/><polygon points="32.131767,45.643016 31.445676,46.551954 32.332395,45.238122" fill="#33281c"/><polygon points="41.043589,46.287782 39.560714,45.386048 40.377663,44.934458" fill="#3b2d20"/><polygon points="31.529844,39.565131 32.314406,41.754101 31.589639,40.075476" fill="#31271b"/><polygon points="40.050938,41.248369 39.890549,38.869185 40.877119,39.340543" fill="#423223"/><polygon points="32.113133,41.700625 32.478014,43.715747 32.314406,41.754101" fill="#31271b"/><polygon points="40.213273,43.330888 39.233181,41.231424 40.050938,41.248369" fill="#433223"/><polygon points="32.259814,43.877549 32.332395,45.238122 32.478014,43.715747" fill="#31271b"/><polygon points="40.377663,44.934458 39.069837,43.546876 40.213273,43.330888" fill="#403122"/><polygon points="36.393423,37.744795 36.968458,37.367141 39.245322,38.700927" fill="#241305"/><polygon points="35.005826,36.074737 35.192209,32.001469 36.968458,37.367141" fill="#301807"/><polygon points="43.214421,27.314585 42.902362,30.925894 46.366707,29.906255" fill="#271405"/><polygon points="48.021230,31.652622 46.366707,29.906255 50.430808,33.526719" fill="#2d1606"/><polygon points="54.461971,34.872258 50.430808,33.526719 56.185544,36.280760" fill="#2c1607"/><polygon points="59.635918,37.539354 54.461971,34.872258 56.185544,36.280760" fill="#2e1706"/><polygon points="60.700333,45.437645 59.635918,37.539354 60.562407,45.069209" fill="#311807"/><polygon points="55.735615,50.000001 60.700333,45.437645 60.562407,45.069209" fill="#2d1a10"/><polygon points="50.981739,52.719984 54.192156,51.184395 55.735615,50.000001" fill="#2a1506"/><polygon points="48.343296,63.903698 49.245024,61.136939 46.327402,64.638174" fill="#2e1707"/><polygon points="48.343296,63.903698 46.311767,62.685490 47.730164,59.780365" fill="#2e1707"/><polygon points="46.972534,57.838598 44.943222,57.142144 46.083435,56.350934" fill="#321907"/><polygon points="47.730164,59.780365 45.439874,58.959630 46.972534,57.838598" fill="#301807"/><polygon points="44.943222,57.142144 45.332074,54.839223 46.083435,56.350934" fill="#321907"/><polygon points="45.332074,54.839223 49.814018,54.127483 50.981739,52.719984" fill="#2f1806"/><polygon points="51.492533,60.386813 55.379941,59.113676 46.876234,61.946819" fill="#2c1606"/><polygon points="49.245024,61.136939 46.876234,61.946819 45.240951,62.750931" fill="#2e1706"/><polygon points="49.245024,61.136939 46.972534,57.838598 51.492533,60.386813" fill="#2e1706"/><polygon points="64.608739,51.323593 60.562407,45.069209 67.689356,43.282459" fill="#2e1707"/><polygon points="55.476775,26.260808 51.247072,25.554723 60.377040,25.408681" fill="#2b1606"/><polygon points="60.086952,37.970291 56.185544,36.280760 58.781178,36.910334" fill="#2f1806"/><polygon points="65.261081,33.805946 58.781178,36.910334 62.650669,30.476055" fill="#2f1806"/><polygon points="68.906160,32.984561 62.650669,30.476055 66.390589,30.053361" fill="#301807"/><polygon points="72.254823,35.742679 66.390589,30.053361 69.827622,32.655342" fill="#301807"/><polygon points="66.390589,30.053361 64.908123,28.205386 69.827622,32.655342" fill="#2e1706"/><polygon points="62.650669,30.476055 60.377040,25.408681 66.390589,30.053361" fill="#2e1706"/><polygon points="58.781178,36.910334 55.476775,26.260808 62.650669,30.476055" fill="#2b1606"/><polygon points="52.223195,34.867463 45.102369,26.318155 55.476775,26.260808" fill="#291506"/><polygon points="36.968458,37.367141 33.092189,31.808849 31.262712,35.715562" fill="#2b1606"/><polygon points="36.968458,37.367141 34.068517,36.748482 39.859948,34.224884" fill="#2b1606"/><polygon points="52.223195,34.867463 41.282731,36.950453 39.859948,34.224884" fill="#291506"/><polygon points="39.245322,38.700927 36.968458,37.367141 39.859948,34.224884" fill="#241305"/><polygon points="39.859948,34.224884 41.282731,36.950453 39.245322,38.700927" fill="#251305"/><polygon points="60.562407,45.069209 60.086952,37.970291 67.689356,43.282459" fill="#311807"/><polygon points="65.261081,33.805946 67.689356,43.282459 60.086952,37.970291" fill="#2f1806"/><polygon points="68.906160,32.984561 69.396760,40.975359 65.261081,33.805946" fill="#301807"/><polygon points="72.254823,35.742679 70.684168,41.057529 68.906160,32.984561" fill="#301807"/><polygon points="59.984585,57.836507 55.885214,54.687496 61.970966,55.030835" fill="#2b1606"/><polygon points="55.885214,54.687496 64.881057,53.319910 61.970966,55.030835" fill="#2d1606"/><polygon points="55.885214,54.687496 55.735615,50.000001 64.608739,51.323593" fill="#2d1606"/><polygon points="46.972534,57.838598 50.981739,52.719984 55.885214,54.687496" fill="#321907"/><polygon points="55.885214,54.687496 51.492533,60.386813 46.972534,57.838598" fill="#2d1606"/><polygon points="46.083435,56.350934 45.332074,54.839223 50.981739,52.719984" fill="#311807"/><polygon points="61.970966,55.030835 69.620997,50.199856 67.769447,49.423618" fill="#2d1b11"/><polygon points="38.444337,41.169216 37.404303,41.193303 37.647457,39.904868" fill="#29160a"/><polygon points="72.809036,38.874966 76.626244,38.561222 73.359469,40.086515" fill="#241305"/><polygon points="37.647457,39.904868 36.442319,40.993644 36.243498,39.641737" fill="#241305"/><polygon points="82.308730,37.822643 77.127478,36.873472 83.915737,35.845371" fill="#2a1506"/><polygon points="36.442319,40.993644 34.608330,43.548466 36.243498,39.641737" fill="#25160d"/><polygon points="82.308730,37.822643 87.062773,40.913620 84.558925,41.882654" fill="#2a1506"/><polygon points="35.570127,44.111840 35.700770,48.891251 34.608330,43.548466" fill="#271405"/><polygon points="84.558925,41.882654 85.253221,48.467091 83.111671,47.823918" fill="#241305"/><polygon points="36.342447,48.399104 37.654375,52.143133 35.700770,48.891251" fill="#2b1a15"/><polygon points="83.111671,47.823918 77.721599,52.796216 77.222380,51.078641" fill="#1a120d"/><polygon points="69.879882,51.942054 77.721599,52.796216 68.460856,53.858380" fill="#2a1506"/><polygon points="37.412190,50.827600 38.198123,50.511596 37.806891,51.561576" fill="#241305"/><polygon points="72.298013,50.643731 77.222380,51.078641 69.879882,51.942054" fill="#261405"/><polygon points="36.342447,48.399104 38.245724,50.000000 37.412190,50.827600" fill="#2b1a15"/><polygon points="78.220263,50.000000 83.111671,47.823918 77.222380,51.078641" fill="#1a110d"/><polygon points="36.591479,44.915969 36.342447,48.399104 35.570127,44.111840" fill="#241712"/><polygon points="37.364735,42.634418 35.570127,44.111840 36.442319,40.993644" fill="#27160b"/><polygon points="82.470113,40.102069 84.558925,41.882654 84.193870,43.060336" fill="#241305"/><polygon points="77.730146,40.608639 82.308730,37.822643 82.470113,40.102069" fill="#2d1606"/><polygon points="37.404303,41.193303 38.457981,43.467551 38.359093,42.763864" fill="#241305"/><polygon points="74.880828,41.668952 76.626244,38.561222 77.730146,40.608639" fill="#2e1706"/><polygon points="64.881057,53.319910 66.555378,50.000000 67.849749,50.632853" fill="#281505"/><polygon points="38.539012,53.146997 40.152193,50.524437 42.055234,52.842436" fill="#241305"/><polygon points="68.460856,53.858380 67.849749,50.632853 69.879882,51.942054" fill="#251305"/><polygon points="66.555378,50.000000 67.689356,43.282459 69.396760,40.975359" fill="#301807"/><polygon points="73.359469,40.086515 70.684168,41.057529 72.809036,38.874966" fill="#2d180d"/><polygon points="37.806891,51.561576 40.255443,50.340891 40.152193,50.524437" fill="#241305"/><polygon points="71.467367,50.420244 69.879882,51.942054 67.849749,50.632853" fill="#2d1706"/><polygon points="68.072541,48.948098 71.467367,50.420244 67.849749,50.632853" fill="#341d11"/><polygon points="72.210644,49.577866 70.182507,47.498136 71.652551,47.686055" fill="#311807"/><polygon points="70.235546,44.490375 70.182507,47.498136 68.072541,48.948098" fill="#35211a"/><polygon points="70.235546,44.490375 73.232916,43.403585 72.024210,45.361744" fill="#35211a"/><polygon points="71.354143,42.105936 74.880828,41.668952 73.232916,43.403585" fill="#31190c"/><polygon points="71.354143,42.105936 69.396760,40.975359 70.684168,41.057529" fill="#31190c"/><polygon points="66.555378,50.000000 70.235546,44.490375 68.072541,48.948098" fill="#301807"/><polygon points="68.072541,48.948098 67.849749,50.632853 66.555378,50.000000" fill="#341d11"/><polygon points="73.963782,43.676174 74.880828,41.668952 75.790218,42.161690" fill="#30190e"/><polygon points="72.024210,45.361744 73.963782,43.676174 72.841051,45.393558" fill="#2e1706"/><polygon points="71.002859,47.515106 72.024210,45.361744 72.841051,45.393558" fill="#2f1807"/><polygon points="40.133838,48.126786 41.704868,47.956784 41.112960,47.941570" fill="#1a110d"/><polygon points="71.652551,47.686055 71.002859,47.515106 72.470139,47.910822" fill="#2c1606"/><polygon points="72.210644,49.577866 72.470139,47.910822 73.027119,49.580765" fill="#311807"/><polygon points="72.100875,50.416907 72.210644,49.577866 73.027119,49.580765" fill="#301c13"/><polygon points="40.255443,50.340891 39.048390,50.338492 40.971397,50.338693" fill="#1a110d"/><polygon points="73.043783,50.425092 71.467367,50.420244 72.100875,50.416907" fill="#241305"/><polygon points="75.790218,42.161690 77.730146,40.608639 78.809786,41.099690" fill="#2e1706"/><polygon points="37.364735,42.634418 38.947241,43.154789 37.831916,43.009215" fill="#27160b"/><polygon points="78.809786,41.099690 82.470113,40.102069 83.432299,40.587969" fill="#2c1606"/><polygon points="36.591479,44.915969 37.831916,43.009215 36.951204,45.116778" fill="#241712"/><polygon points="83.432299,40.587969 84.193870,43.060336 85.359123,43.309262" fill="#241305"/><polygon points="36.591479,44.915969 37.498516,48.256719 37.257019,48.083759" fill="#241712"/><polygon points="37.257019,48.083759 38.948180,50.000000 38.245724,50.000000" fill="#241713"/><polygon points="38.245724,50.000000 39.048390,50.338492 38.198123,50.511596" fill="#1c130e"/><polygon points="78.220263,50.000000 73.043783,50.425092 79.102054,49.999999" fill="#1a110d"/><polygon points="40.366216,49.662827 39.885094,47.652842 40.728667,48.309584" fill="#301c1d"/><polygon points="73.027119,49.580765 74.067083,47.052825 75.306404,48.306772" fill="#291506"/><polygon points="39.291056,48.667325 39.174067,46.352566 39.885094,47.652842" fill="#311c20"/><polygon points="75.306404,48.306772 76.083037,45.340383 77.246988,46.601157" fill="#3b2126"/><polygon points="39.174067,46.352566 38.250253,46.079033 38.710185,45.072243" fill="#311c20"/><polygon points="78.809655,44.874965 76.083037,45.340383 77.734348,43.621334" fill="#392024"/><polygon points="38.250253,46.079033 37.909292,44.307629 38.710185,45.072243" fill="#311c20"/><polygon points="78.809655,44.874965 79.696113,42.502028 80.292109,44.195981" fill="#392024"/><polygon points="38.947241,43.154789 38.710185,45.072243 37.909292,44.307629" fill="#241305"/><polygon points="77.734348,43.621334 78.809786,41.099690 79.696113,42.502028" fill="#3a2025"/><polygon points="39.174067,46.352566 39.173564,43.853794 39.766429,44.965017" fill="#311c20"/><polygon points="76.083037,45.340383 75.790218,42.161690 77.734348,43.621334" fill="#3a2025"/><polygon points="40.486810,46.287769 39.174067,46.352566 39.766429,44.965017" fill="#241305"/><polygon points="72.841051,45.393558 76.083037,45.340383 74.067083,47.052825" fill="#2d1707"/><polygon points="40.728667,48.309584 40.486810,46.287769 41.704868,47.956784" fill="#281613"/><polygon points="72.841051,45.393558 72.470139,47.910822 71.002859,47.515106" fill="#2d1707"/><polygon points="39.048390,50.338492 40.366216,49.662827 40.971397,50.338693" fill="#331d21"/><polygon points="73.043783,50.425092 73.027119,49.580765 75.306404,48.306772" fill="#241305"/><polygon points="38.948180,50.000000 39.291056,48.667325 39.048390,50.338492" fill="#311c20"/><polygon points="75.306404,48.306772 79.102054,49.999999 73.043783,50.425092" fill="#3b2126"/><polygon points="38.250253,46.079033 38.948180,50.000000 37.498516,48.256719" fill="#311c20"/><polygon points="78.809655,44.874965 79.102054,49.999999 77.246988,46.601157" fill="#392024"/><polygon points="37.567841,45.620122 37.498516,48.256719 36.951204,45.116778" fill="#311c20"/><polygon points="80.292109,44.195981 84.040251,47.638908 78.809655,44.874965" fill="#3b2125"/><polygon points="37.831916,43.009215 37.567841,45.620122 36.951204,45.116778" fill="#281506"/><polygon points="80.292109,44.195981 83.432299,40.587969 85.359123,43.309262" fill="#3b2125"/><polygon points="38.947241,43.154789 37.909292,44.307629 37.831916,43.009215" fill="#241305"/><polygon points="83.432299,40.587969 79.696113,42.502028 78.809786,41.099690" fill="#241305"/><polygon points="85.253221,48.467091 88.377622,41.675907 87.254727,48.487366" fill="#211610"/><polygon points="87.062773,40.913620 85.780668,37.187806 88.377622,41.675907" fill="#301806"/><polygon points="83.915737,35.845371 79.290375,38.300955 85.780668,37.187806" fill="#2a1506"/><polygon points="37.647457,39.904868 41.187340,41.816688 38.444337,41.169216" fill="#241305"/><polygon points="77.127478,36.873472 74.036606,39.825695 79.290375,38.300955" fill="#251305"/><polygon points="70.684168,41.057529 74.036606,39.825695 72.809036,38.874966" fill="#301807"/><polygon points="48.201468,47.137034 45.181808,44.964758 46.056510,42.540232" fill="#3f3021"/><polygon points="51.425684,48.352292 48.201468,47.137034 49.970074,42.550822" fill="#625d5f"/><polygon points="46.250771,50.689706 44.220062,49.062632 48.201468,47.137034" fill="#504f50"/><polygon points="44.220062,49.062632 42.930882,45.968220 45.181808,44.964758" fill="#35291c"/><polygon points="28.970553,46.379782 30.047856,45.464256 32.495566,47.406176" fill="#4b4b4b"/><polygon points="40.539484,47.241009 40.896806,45.067021 42.930882,45.968220" fill="#31271b"/><polygon points="30.278891,49.157294 32.495566,47.406176 35.296848,48.501245" fill="#31271b"/><polygon points="41.468272,48.429614 40.539484,47.241009 44.220062,49.062632" fill="#4b4b4b"/><polygon points="33.669823,43.236984 36.628731,43.276898 35.296848,48.501245" fill="#46382e"/><polygon points="39.235927,42.941736 40.539484,47.241009 41.468272,48.429614" fill="#31271b"/><polygon points="30.047856,45.464256 30.620508,43.273389 33.669823,43.236984" fill="#605c5e"/><polygon points="39.235927,42.941736 40.225931,42.754207 40.896806,45.067021" fill="#31271b"/><polygon points="30.620508,43.273389 30.047856,40.928484 32.495566,39.192396" fill="#4d484a"/><polygon points="40.539484,38.504202 40.896806,40.134010 40.225931,42.754207" fill="#32271b"/><polygon points="32.495566,39.192396 35.296848,38.010065 36.628731,43.276898" fill="#3c2e21"/><polygon points="40.539484,38.504202 39.235927,42.941736 39.713800,43.117909" fill="#32271b"/><polygon points="30.278891,37.780753 32.346244,36.332931 35.296848,38.010065" fill="#31271b"/><polygon points="44.220061,36.408147 40.539484,38.504202 41.468272,37.437019" fill="#35291c"/><polygon points="28.970553,40.204076 30.278891,37.780753 32.495566,39.192396" fill="#4b4b4b"/><polygon points="42.930882,39.090435 40.896806,40.134010 40.539484,38.504202" fill="#4c4c4c"/><polygon points="45.181808,39.929485 42.930882,39.090435 44.220061,36.408147" fill="#635e60"/><polygon points="48.201468,38.070971 44.220061,36.408147 46.250771,34.826814" fill="#3f3021"/><polygon points="49.970074,42.550822 48.201468,38.070971 51.425684,36.818452" fill="#433223"/><polygon points="46.056510,42.540232 45.181808,39.929485 48.201468,38.070971" fill="#6a6467"/><polygon points="45.181808,39.929485 46.056510,42.540232 45.913741,42.507742" fill="#635e60"/><polygon points="28.970553,40.204076 28.472595,39.736547 27.321625,40.965888" fill="#4b4b4b"/><polygon points="42.930882,39.090435 45.181808,39.929485 45.035776,39.644953" fill="#4c4c4c"/><polygon points="30.047856,40.928484 29.689932,40.663339 28.472595,39.736547" fill="#605b5d"/><polygon points="30.620508,43.273389 30.408318,43.229767 29.689932,40.663339" fill="#4d484a"/><polygon points="30.620508,43.273389 30.047856,45.464256 29.689932,45.657374" fill="#4d484a"/><polygon points="30.047856,45.464256 28.970553,46.379782 28.472595,46.792658" fill="#605c5e"/><polygon points="42.439388,46.426379 42.930882,45.968220 40.896806,45.067021" fill="#000000"/><polygon points="28.970553,46.379782 27.787042,45.594833 27.321625,45.798095" fill="#4b4b4b"/><polygon points="45.035777,45.183707 45.181808,44.964758 42.930882,45.968220" fill="#110f0e"/><polygon points="45.913741,42.507742 46.056510,42.540232 45.181808,44.964758" fill="#161516"/><polygon points="35.464199,75.380695 38.467427,76.474634 39.706918,77.265710" fill="#241305"/><polygon points="41.941860,76.652285 43.798016,77.447411 39.706918,77.265710" fill="#271405"/><polygon points="34.155717,74.701561 35.464199,75.380695 36.718328,76.035482" fill="#241305"/><polygon points="43.415307,76.488706 47.547697,77.240428 43.798016,77.447411" fill="#2a1506"/><polygon points="43.415307,76.488706 43.457766,74.025902 48.252322,75.856516" fill="#2a1506"/><polygon points="43.457766,74.025902 42.651836,70.633256 47.162284,70.283210" fill="#2d1706"/><polygon points="42.651836,70.633256 41.346687,63.045022 46.311767,62.685490" fill="#2d1706"/><polygon points="46.206426,51.404039 49.814018,54.127483 44.135444,55.338785" fill="#2c180d"/><polygon points="54.192156,51.184395 49.814018,54.127483 46.206426,51.404039" fill="#2d1606"/><polygon points="55.295453,43.669070 60.700333,45.437645 54.192156,51.184395" fill="#2d1706"/><polygon points="58.803464,36.327319 60.700333,45.437645 55.295453,43.669070" fill="#301807"/><polygon points="54.461971,34.872258 58.803464,36.327319 54.635076,38.153227" fill="#2c1607"/><polygon points="48.021230,31.652622 54.461971,34.872258 51.893079,36.854826" fill="#2d1606"/><polygon points="40.917020,30.470060 43.214421,27.314585 48.021230,31.652622" fill="#291506"/><polygon points="33.047582,29.920211 30.169524,32.589555 28.502688,32.269385" fill="#2d1706"/><polygon points="35.005826,36.074737 32.260023,37.708431 30.169524,32.589555" fill="#301807"/><polygon points="36.393423,37.744795 34.745423,39.829192 32.260023,37.708431" fill="#241305"/><polygon points="36.393423,37.744795 37.479153,35.807402 36.286755,37.315890" fill="#241305"/><polygon points="31.302062,37.084651 30.169524,32.589555 32.260023,37.708431" fill="#31271b"/><polygon points="41.210449,36.061957 39.070815,37.817946 36.286755,37.315890" fill="#382b1e"/><polygon points="31.302062,37.084651 30.210769,37.053216 28.502688,32.269385" fill="#31271b"/><polygon points="40.917020,30.470060 43.224750,35.694863 41.210449,36.061957" fill="#291506"/><polygon points="27.125862,35.237436 28.502688,32.269385 30.210769,37.053216" fill="#241305"/><polygon points="44.532025,33.113004 45.964887,36.710967 43.224750,35.694863" fill="#291506"/><polygon points="24.404547,39.334496 27.125862,35.237436 28.901736,38.333022" fill="#241305"/><polygon points="51.893079,36.854826 51.050033,38.409324 45.964887,36.710967" fill="#2c1708"/><polygon points="24.965230,40.520755 24.404547,39.334496 27.099100,40.325462" fill="#241305"/><polygon points="54.635076,38.153227 52.293068,40.793063 51.050033,38.409324" fill="#2c1606"/><polygon points="26.314405,44.899435 24.965230,40.520755 26.770315,42.401219" fill="#25160d"/><polygon points="55.295453,43.669070 51.916914,44.200062 52.293068,40.793063" fill="#2d1706"/><polygon points="27.629186,48.601070 26.314405,44.899435 27.027750,45.190526" fill="#271913"/><polygon points="52.184958,48.318240 48.332599,48.099527 51.916914,44.200062" fill="#2e190e"/><polygon points="30.412106,51.245680 27.629186,48.601070 28.785123,48.360846" fill="#241305"/><polygon points="46.206426,51.404039 45.056084,49.530955 48.332599,48.099527" fill="#2c180d"/><polygon points="32.482974,52.878650 30.412106,51.245680 30.185254,49.581177" fill="#32271b"/><polygon points="37.436986,52.991552 40.539484,47.241009 45.056084,49.530955" fill="#322619"/><polygon points="32.495566,47.406176 33.063830,46.081330 36.717469,48.666842" fill="#362a1d"/><polygon points="36.717469,48.666842 39.559754,45.880724 40.539484,47.241009" fill="#33281b"/><polygon points="32.260023,37.708431 34.745423,39.829192 33.476338,41.436217" fill="#261405"/><polygon points="36.286755,37.315890 39.070815,37.817946 38.425932,41.103259" fill="#25150b"/><polygon points="33.476338,41.436217 34.745423,39.829192 35.903941,43.958165" fill="#33271b"/><polygon points="35.903941,43.958165 34.745423,39.829192 38.425932,41.103259" fill="#33281b"/><polygon points="33.063830,46.081330 33.491609,44.086381 35.903941,43.958165" fill="#382b1e"/><polygon points="39.559754,45.880724 36.717469,48.666842 35.903941,43.958165" fill="#31271b"/><polygon points="36.136542,74.734110 37.519585,75.152653 38.467427,76.474634" fill="#251405"/><polygon points="38.467427,76.474634 37.519585,75.152653 38.606851,75.204241" fill="#251305"/><polygon points="34.763385,73.295449 36.136542,74.734110 35.464199,75.380695" fill="#241305"/><polygon points="41.941860,76.652285 38.606851,75.204241 39.397959,74.135035" fill="#271405"/><polygon points="34.763385,73.295449 34.155717,74.701561 32.951257,72.187202" fill="#241305"/><polygon points="39.397959,74.135035 38.755417,70.816007 43.457766,74.025902" fill="#271405"/><polygon points="32.998611,62.239395 34.703195,62.569429 34.278387,69.238620" fill="#241305"/><polygon points="38.915396,69.934990 37.795012,62.871784 41.346687,63.045022" fill="#271406"/><polygon points="34.427738,70.136550 32.951257,72.187202 32.759333,69.137697" fill="#241305"/><polygon points="42.651836,70.633256 43.457766,74.025902 38.755417,70.816007" fill="#2d1706"/><polygon points="36.393423,59.358511 36.230731,62.718810 34.703195,62.569429" fill="#251305"/><polygon points="36.393423,59.358511 38.115897,58.353440 37.795012,62.871784" fill="#251305"/><polygon points="34.703195,62.569429 36.230731,62.718810 36.555676,69.358122" fill="#241305"/><polygon points="37.795012,62.871784 38.915396,69.934990 36.555676,69.358122" fill="#271405"/><polygon points="34.427738,70.136550 34.278387,69.238620 36.555676,69.358122" fill="#241305"/><polygon points="38.755417,70.816007 36.555676,71.805684 36.555676,69.358122" fill="#271405"/><polygon points="37.458292,57.968608 37.929562,56.662182 38.751774,56.596398" fill="#423133"/><polygon points="34.414893,54.169304 33.445600,53.752148 32.667191,56.396098" fill="#302622"/><polygon points="37.929562,56.662182 37.777467,53.879855 38.433959,54.299967" fill="#4a3538"/><polygon points="34.806564,53.569209 33.445600,53.752148 34.414893,54.169304" fill="#372a1d"/><polygon points="35.244761,55.401195 34.806564,53.569209 36.393423,54.010791" fill="#3a2c2d"/><polygon points="34.715344,58.138148 33.745539,57.743258 35.575292,59.200739" fill="#241306"/><polygon points="38.115897,58.353440 36.393423,59.358511 35.575292,59.200739" fill="#2c1707"/><polygon points="37.458292,57.968608 35.575292,59.200739 35.078779,58.338739" fill="#423133"/><polygon points="35.244761,55.401195 34.578004,55.884920 33.990455,54.257505" fill="#3a2c2d"/><polygon points="35.847619,54.319365 34.578004,55.884920 35.244761,55.401195" fill="#2b2122"/><polygon points="34.806564,53.569209 33.990455,54.257505 33.081679,54.449705" fill="#372a1d"/><polygon points="36.796586,54.579957 35.847619,54.319365 36.353262,53.612125" fill="#3f2e30"/><polygon points="33.081679,54.449705 32.446814,56.454992 32.667191,56.396098" fill="#35282a"/><polygon points="36.796586,54.579957 37.777467,53.879855 37.929562,56.662182" fill="#3f2e30"/><polygon points="36.644918,57.299515 36.782371,56.676618 37.929562,56.662182" fill="#3a2c2d"/><polygon points="32.446814,56.454992 33.081679,54.449705 33.990455,54.257505" fill="#35282a"/><polygon points="36.782371,56.676618 34.578004,55.884920 35.847619,54.319365" fill="#3e2d2f"/><polygon points="34.578004,55.884920 35.078779,58.338739 33.549792,57.126354" fill="#37292b"/><polygon points="36.644918,57.299515 35.078779,58.338739 34.578004,55.884920" fill="#3a2c2d"/><polygon points="36.393423,54.010791 34.414893,54.169304 32.482974,52.878650" fill="#372a1d"/><polygon points="37.436986,52.991552 38.433959,54.299967 36.393423,54.010791" fill="#322619"/><polygon points="34.414893,54.169304 33.803777,56.350216 33.874920,56.702528" fill="#302622"/><polygon points="40.365227,57.043172 38.751774,56.596398 38.433959,54.299967" fill="#301806"/><polygon points="34.715344,58.138148 33.581461,58.628532 33.874920,56.702528" fill="#241306"/><polygon points="38.115897,58.353440 38.751774,56.596398 40.365227,57.043172" fill="#2c1707"/><polygon points="34.703195,62.569429 32.998611,62.239395 33.581461,58.628532" fill="#241305"/><polygon points="37.795012,62.871784 38.115897,58.353440 40.690807,59.109994" fill="#271405"/><polygon points="45.439874,58.959630 46.311767,62.685490 41.346687,63.045022" fill="#311907"/><polygon points="44.943222,57.142144 45.439874,58.959630 40.690807,59.109994" fill="#321907"/><polygon points="40.365227,57.043172 37.436986,52.991552 44.135444,55.338785" fill="#301806"/><polygon points="36.555676,71.805684 36.878788,71.966156 34.889537,70.812799" fill="#251305"/><polygon points="36.555676,71.805684 38.755417,70.816007 38.598069,71.412443" fill="#251305"/><polygon points="34.763385,73.295449 34.427738,70.136550 34.889537,70.812799" fill="#241305"/><polygon points="38.598069,71.412443 38.755417,70.816007 39.397959,74.135035" fill="#241305"/><polygon points="36.136542,74.734110 34.763385,73.295449 35.212292,72.939795" fill="#251405"/><polygon points="38.919515,73.598833 39.397959,74.135035 38.606851,75.204241" fill="#241305"/><polygon points="37.519585,75.152653 36.136542,74.734110 36.599956,74.319281" fill="#251305"/><polygon points="38.452271,74.664658 38.606851,75.204241 37.519585,75.152653" fill="#241305"/><polygon points="36.599956,74.319281 37.705459,73.650834 38.623878,74.034482" fill="#2b170a"/><polygon points="38.452271,74.664658 37.519583,74.711376 38.623878,74.034482" fill="#241305"/><polygon points="36.599956,74.319281 35.212292,72.939795 36.642899,72.441252" fill="#2b170a"/><polygon points="40.343707,73.077795 38.919515,73.598833 38.452271,74.664658" fill="#332123"/><polygon points="35.212292,72.939795 34.889537,70.812799 36.169977,70.800467" fill="#2e1706"/><polygon points="36.878788,71.966156 38.153239,71.940820 36.169977,70.800467" fill="#241305"/><polygon points="36.878788,71.966156 38.598069,71.412443 39.873018,71.392973" fill="#241305"/><polygon points="38.153239,71.940820 38.623878,74.034482 37.705459,73.650834" fill="#331d21"/><polygon points="39.555211,73.983432 38.623878,74.034482 38.153239,71.940820" fill="#311c20"/><polygon points="33.491609,44.086381 33.063830,46.081330 32.131767,45.643016" fill="#382b1e"/><polygon points="39.560714,45.386048 39.559754,45.880724 38.749937,43.842149" fill="#33281b"/><polygon points="33.476338,41.436217 33.491609,44.086381 32.259814,43.877549" fill="#33271b"/><polygon points="39.069837,43.546876 38.749937,43.842149 38.425932,41.103259" fill="#372a1d"/><polygon points="33.476338,41.436217 32.113133,41.700625 31.529844,39.565131" fill="#33271b"/><polygon points="38.425932,41.103259 39.070815,37.817946 39.890549,38.869185" fill="#34281c"/><polygon points="32.495566,47.406176 31.240240,46.963529 32.131767,45.643016" fill="#362a1d"/><polygon points="40.539484,47.241009 39.559754,45.880724 39.560714,45.386048" fill="#31271b"/><polygon points="32.495566,47.406176 30.185254,49.581177 29.375136,48.313499" fill="#362a1d"/><polygon points="44.259606,48.109750 45.056084,49.530955 40.539484,47.241009" fill="#372a1d"/><polygon points="30.185254,49.581177 28.785123,48.360846 28.090045,47.309521" fill="#31271b"/><polygon points="47.033078,46.891489 48.332599,48.099527 45.056084,49.530955" fill="#392c1f"/><polygon points="28.785123,48.360846 27.027750,45.190526 27.171226,44.931902" fill="#31271b"/><polygon points="50.184513,43.967986 51.916914,44.200062 48.332599,48.099527" fill="#392b1f"/><polygon points="27.027750,45.190526 26.770315,42.401219 26.880836,42.497655" fill="#31271b"/><polygon points="50.214879,41.047396 52.293068,40.793063 51.916914,44.200062" fill="#372a1d"/><polygon points="27.099100,40.325462 27.112897,40.834031 26.880836,42.497655" fill="#31271b"/><polygon points="51.050033,38.409324 52.293068,40.793063 50.214879,41.047396" fill="#382b1e"/><polygon points="28.901736,38.333022 27.894755,39.263400 27.112897,40.834031" fill="#31271b"/><polygon points="45.964887,36.710967 51.050033,38.409324 49.504438,39.137011" fill="#382b1e"/><polygon points="28.901736,38.333022 30.210769,37.053216 29.743658,38.308363" fill="#31271b"/><polygon points="43.073675,37.047160 43.224750,35.694863 45.964887,36.710967" fill="#372a1d"/><polygon points="30.210769,37.053216 31.302062,37.084651 30.544370,38.384394" fill="#31271b"/><polygon points="41.388299,37.371644 41.210449,36.061957 43.224750,35.694863" fill="#362a1d"/><polygon points="31.302062,37.084651 32.571760,38.413673 31.529844,39.565131" fill="#31271b"/><polygon points="39.890549,38.869185 39.070815,37.817946 41.210449,36.061957" fill="#372a1d"/><polygon points="31.529844,39.565131 31.589639,40.075476 30.566673,39.057168" fill="#31271b"/><polygon points="39.890549,38.869185 41.388299,37.371644 41.719742,38.076053" fill="#372a1d"/><polygon points="29.743658,38.308363 30.544370,38.384394 30.566673,39.057168" fill="#31271b"/><polygon points="41.719742,38.076053 41.388299,37.371644 43.073675,37.047160" fill="#392b1e"/><polygon points="29.743658,38.308363 29.907398,38.960994 28.524014,39.504241" fill="#31271b"/><polygon points="43.073675,37.047160 44.665825,37.784109 44.973568,38.093152" fill="#372a1d"/><polygon points="27.894755,39.263400 28.524014,39.504241 27.960220,41.225994" fill="#31271b"/><polygon points="44.665825,37.784109 49.504438,39.137011 49.082594,39.704279" fill="#35291c"/><polygon points="26.880836,42.497655 27.112897,40.834031 27.960220,41.225994" fill="#31271b"/><polygon points="49.082594,39.704279 49.504438,39.137011 50.214879,41.047396" fill="#31271b"/><polygon points="26.880836,42.497655 27.723932,42.687644 27.855584,44.509780" fill="#31271b"/><polygon points="50.214879,41.047396 50.184513,43.967986 49.602936,43.528570" fill="#372a1d"/><polygon points="28.090045,47.309521 27.171226,44.931902 27.855584,44.509780" fill="#31271b"/><polygon points="49.602936,43.528570 50.184513,43.967986 47.033078,46.891489" fill="#32281c"/><polygon points="28.090045,47.309521 28.682186,46.896884 29.700494,47.687237" fill="#31271b"/><polygon points="47.033078,46.891489 44.259606,48.109750 44.579641,47.408663" fill="#392c1f"/><polygon points="29.375136,48.313499 29.700494,47.687237 31.445676,46.551954" fill="#31271b"/><polygon points="44.259606,48.109750 40.221652,46.745474 41.043589,46.287782" fill="#372a1d"/><polygon points="32.131767,45.643016 31.240240,46.963529 31.445676,46.551954" fill="#33281c"/><polygon points="41.043589,46.287782 40.221652,46.745474 39.560714,45.386048" fill="#3b2d20"/><polygon points="31.529844,39.565131 32.113133,41.700625 32.314406,41.754101" fill="#31271b"/><polygon points="40.050938,41.248369 39.233181,41.231424 39.890549,38.869185" fill="#423223"/><polygon points="32.113133,41.700625 32.259814,43.877549 32.478014,43.715747" fill="#31271b"/><polygon points="40.213273,43.330888 39.069837,43.546876 39.233181,41.231424" fill="#433223"/><polygon points="32.259814,43.877549 32.131767,45.643016 32.332395,45.238122" fill="#31271b"/><polygon points="40.377663,44.934458 39.560714,45.386048 39.069837,43.546876" fill="#403122"/><polygon points="36.393423,37.744795 35.005826,36.074737 36.968458,37.367141" fill="#241305"/><polygon points="35.005826,36.074737 33.047582,29.920211 35.192209,32.001469" fill="#301807"/><polygon points="43.214421,27.314585 39.234848,28.940998 42.902362,30.925894" fill="#271405"/><polygon points="48.021230,31.652622 43.214421,27.314585 46.366707,29.906255" fill="#2d1606"/><polygon points="54.461971,34.872258 48.021230,31.652622 50.430808,33.526719" fill="#2c1607"/><polygon points="59.635918,37.539354 58.803464,36.327319 54.461971,34.872258" fill="#2e1706"/><polygon points="60.700333,45.437645 58.803464,36.327319 59.635918,37.539354" fill="#311807"/><polygon points="55.735615,50.000001 54.192156,51.184395 60.700333,45.437645" fill="#2d1a10"/><polygon points="50.981739,52.719984 49.814018,54.127483 54.192156,51.184395" fill="#2a1506"/><polygon points="48.343296,63.903698 47.730164,59.780365 49.245024,61.136939" fill="#2e1707"/><polygon points="48.343296,63.903698 47.162284,70.283210 46.311767,62.685490" fill="#2e1707"/><polygon points="46.972534,57.838598 45.439874,58.959630 44.943222,57.142144" fill="#321907"/><polygon points="47.730164,59.780365 46.311767,62.685490 45.439874,58.959630" fill="#301807"/><polygon points="44.943222,57.142144 44.135444,55.338785 45.332074,54.839223" fill="#321907"/><polygon points="45.332074,54.839223 44.135444,55.338785 49.814018,54.127483" fill="#2f1806"/><polygon points="51.492533,60.386813 59.984585,57.836507 55.379941,59.113676" fill="#2c1606"/><polygon points="49.245024,61.136939 51.492533,60.386813 46.876234,61.946819" fill="#2e1706"/><polygon points="49.245024,61.136939 47.730164,59.780365 46.972534,57.838598" fill="#2e1706"/><polygon points="64.608739,51.323593 55.735615,50.000001 60.562407,45.069209" fill="#2e1707"/><polygon points="55.476775,26.260808 45.102369,26.318155 51.247072,25.554723" fill="#2b1606"/><polygon points="60.086952,37.970291 59.635918,37.539354 56.185544,36.280760" fill="#2f1806"/><polygon points="65.261081,33.805946 60.086952,37.970291 58.781178,36.910334" fill="#2f1806"/><polygon points="68.906160,32.984561 65.261081,33.805946 62.650669,30.476055" fill="#301807"/><polygon points="72.254823,35.742679 68.906160,32.984561 66.390589,30.053361" fill="#301807"/><polygon points="66.390589,30.053361 60.377040,25.408681 64.908123,28.205386" fill="#2e1706"/><polygon points="62.650669,30.476055 55.476775,26.260808 60.377040,25.408681" fill="#2e1706"/><polygon points="58.781178,36.910334 52.223195,34.867463 55.476775,26.260808" fill="#2b1606"/><polygon points="52.223195,34.867463 39.859948,34.224884 45.102369,26.318155" fill="#291506"/><polygon points="36.968458,37.367141 35.192209,32.001469 33.092189,31.808849" fill="#2b1606"/><polygon points="36.968458,37.367141 31.262712,35.715562 34.068517,36.748482" fill="#2b1606"/><polygon points="52.223195,34.867463 50.430808,33.526719 41.282731,36.950453" fill="#291506"/><polygon points="60.562407,45.069209 59.635918,37.539354 60.086952,37.970291" fill="#311807"/><polygon points="65.261081,33.805946 69.396760,40.975359 67.689356,43.282459" fill="#2f1806"/><polygon points="68.906160,32.984561 70.684168,41.057529 69.396760,40.975359" fill="#301807"/><polygon points="72.254823,35.742679 72.734915,43.088118 70.684168,41.057529" fill="#301807"/><polygon points="59.984585,57.836507 51.492533,60.386813 55.885214,54.687496" fill="#2b1606"/><polygon points="55.885214,54.687496 64.608739,51.323593 64.881057,53.319910" fill="#2d1606"/><polygon points="55.885214,54.687496 50.981739,52.719984 55.735615,50.000001" fill="#2d1606"/><polygon points="46.972534,57.838598 46.083435,56.350934 50.981739,52.719984" fill="#321907"/><polygon points="61.970966,55.030835 64.881057,53.319910 69.620997,50.199856" fill="#2d1b11"/><polygon points="38.444337,41.169216 37.723597,42.199558 37.404303,41.193303" fill="#29160a"/><polygon points="72.809036,38.874966 77.127478,36.873472 76.626244,38.561222" fill="#241305"/><polygon points="37.647457,39.904868 37.404303,41.193303 36.442319,40.993644" fill="#241305"/><polygon points="82.308730,37.822643 76.626244,38.561222 77.127478,36.873472" fill="#2a1506"/><polygon points="36.442319,40.993644 35.570127,44.111840 34.608330,43.548466" fill="#25160d"/><polygon points="82.308730,37.822643 83.915737,35.845371 87.062773,40.913620" fill="#2a1506"/><polygon points="35.570127,44.111840 36.342447,48.399104 35.700770,48.891251" fill="#271405"/><polygon points="84.558925,41.882654 87.062773,40.913620 85.253221,48.467091" fill="#241305"/><polygon points="36.342447,48.399104 37.412190,50.827600 37.654375,52.143133" fill="#2b1a15"/><polygon points="83.111671,47.823918 85.253221,48.467091 77.721599,52.796216" fill="#1a120d"/><polygon points="69.879882,51.942054 77.222380,51.078641 77.721599,52.796216" fill="#2a1506"/><polygon points="37.412190,50.827600 38.245724,50.000000 38.198123,50.511596" fill="#241305"/><polygon points="72.298013,50.643731 78.220263,50.000000 77.222380,51.078641" fill="#261405"/><polygon points="36.342447,48.399104 37.257019,48.083759 38.245724,50.000000" fill="#2b1a15"/><polygon points="78.220263,50.000000 82.968622,47.415536 83.111671,47.823918" fill="#1a110d"/><polygon points="36.591479,44.915969 37.257019,48.083759 36.342447,48.399104" fill="#241712"/><polygon points="37.364735,42.634418 36.591479,44.915969 35.570127,44.111840" fill="#27160b"/><polygon points="82.470113,40.102069 82.308730,37.822643 84.558925,41.882654" fill="#241305"/><polygon points="77.730146,40.608639 76.626244,38.561222 82.308730,37.822643" fill="#2d1606"/><polygon points="37.404303,41.193303 37.723597,42.199558 38.457981,43.467551" fill="#241305"/><polygon points="74.880828,41.668952 73.359469,40.086515 76.626244,38.561222" fill="#2e1706"/><polygon points="64.881057,53.319910 64.608739,51.323593 66.555378,50.000000" fill="#281505"/><polygon points="38.539012,53.146997 37.806891,51.561576 40.152193,50.524437" fill="#241305"/><polygon points="68.460856,53.858380 64.881057,53.319910 67.849749,50.632853" fill="#251305"/><polygon points="66.555378,50.000000 64.608739,51.323593 67.689356,43.282459" fill="#301807"/><polygon points="73.359469,40.086515 71.354143,42.105936 70.684168,41.057529" fill="#2d180d"/><polygon points="37.806891,51.561576 38.198123,50.511596 40.255443,50.340891" fill="#241305"/><polygon points="71.467367,50.420244 72.298013,50.643731 69.879882,51.942054" fill="#2d1706"/><polygon points="68.072541,48.948098 72.210644,49.577866 71.467367,50.420244" fill="#341d11"/><polygon points="72.210644,49.577866 68.072541,48.948098 70.182507,47.498136" fill="#311807"/><polygon points="70.235546,44.490375 72.024210,45.361744 70.182507,47.498136" fill="#35211a"/><polygon points="70.235546,44.490375 71.354143,42.105936 73.232916,43.403585" fill="#35211a"/><polygon points="71.354143,42.105936 73.359469,40.086515 74.880828,41.668952" fill="#31190c"/><polygon points="71.354143,42.105936 70.235546,44.490375 69.396760,40.975359" fill="#31190c"/><polygon points="66.555378,50.000000 69.396760,40.975359 70.235546,44.490375" fill="#301807"/><polygon points="73.963782,43.676174 73.232916,43.403585 74.880828,41.668952" fill="#30190e"/><polygon points="72.024210,45.361744 73.232916,43.403585 73.963782,43.676174" fill="#2e1706"/><polygon points="71.002859,47.515106 70.182507,47.498136 72.024210,45.361744" fill="#2f1807"/><polygon points="40.133838,48.126786 40.728667,48.309584 41.704868,47.956784" fill="#1a110d"/><polygon points="71.652551,47.686055 70.182507,47.498136 71.002859,47.515106" fill="#2c1606"/><polygon points="72.210644,49.577866 71.652551,47.686055 72.470139,47.910822" fill="#311807"/><polygon points="72.100875,50.416907 71.467367,50.420244 72.210644,49.577866" fill="#301c13"/><polygon points="40.255443,50.340891 38.198123,50.511596 39.048390,50.338492" fill="#1a110d"/><polygon points="73.043783,50.425092 72.298013,50.643731 71.467367,50.420244" fill="#241305"/><polygon points="75.790218,42.161690 74.880828,41.668952 77.730146,40.608639" fill="#2e1706"/><polygon points="37.364735,42.634418 38.359093,42.763864 38.947241,43.154789" fill="#27160b"/><polygon points="78.809786,41.099690 77.730146,40.608639 82.470113,40.102069" fill="#2c1606"/><polygon points="36.591479,44.915969 37.364735,42.634418 37.831916,43.009215" fill="#241712"/><polygon points="83.432299,40.587969 82.470113,40.102069 84.193870,43.060336" fill="#241305"/><polygon points="36.591479,44.915969 36.951204,45.116778 37.498516,48.256719" fill="#241712"/><polygon points="37.257019,48.083759 37.498516,48.256719 38.948180,50.000000" fill="#241713"/><polygon points="38.245724,50.000000 38.948180,50.000000 39.048390,50.338492" fill="#1c130e"/><polygon points="78.220263,50.000000 72.298013,50.643731 73.043783,50.425092" fill="#1a110d"/><polygon points="40.366216,49.662827 39.291056,48.667325 39.885094,47.652842" fill="#301c1d"/><polygon points="73.027119,49.580765 72.470139,47.910822 74.067083,47.052825" fill="#291506"/><polygon points="39.291056,48.667325 38.825064,47.364504 39.174067,46.352566" fill="#311c20"/><polygon points="75.306404,48.306772 74.067083,47.052825 76.083037,45.340383" fill="#3b2126"/><polygon points="39.174067,46.352566 38.825064,47.364504 38.250253,46.079033" fill="#311c20"/><polygon points="78.809655,44.874965 77.246988,46.601157 76.083037,45.340383" fill="#392024"/><polygon points="38.250253,46.079033 37.567841,45.620122 37.909292,44.307629" fill="#311c20"/><polygon points="78.809655,44.874965 77.734348,43.621334 79.696113,42.502028" fill="#392024"/><polygon points="38.947241,43.154789 39.173564,43.853794 38.710185,45.072243" fill="#241305"/><polygon points="77.734348,43.621334 75.790218,42.161690 78.809786,41.099690" fill="#3a2025"/><polygon points="39.174067,46.352566 38.710185,45.072243 39.173564,43.853794" fill="#311c20"/><polygon points="76.083037,45.340383 73.963782,43.676174 75.790218,42.161690" fill="#3a2025"/><polygon points="40.486810,46.287769 39.885094,47.652842 39.174067,46.352566" fill="#241305"/><polygon points="72.841051,45.393558 73.963782,43.676174 76.083037,45.340383" fill="#2d1707"/><polygon points="40.728667,48.309584 39.885094,47.652842 40.486810,46.287769" fill="#281613"/><polygon points="72.841051,45.393558 74.067083,47.052825 72.470139,47.910822" fill="#2d1707"/><polygon points="39.048390,50.338492 39.291056,48.667325 40.366216,49.662827" fill="#331d21"/><polygon points="73.043783,50.425092 72.100875,50.416907 73.027119,49.580765" fill="#241305"/><polygon points="38.948180,50.000000 38.825064,47.364504 39.291056,48.667325" fill="#311c20"/><polygon points="75.306404,48.306772 77.246988,46.601157 79.102054,49.999999" fill="#3b2126"/><polygon points="38.250253,46.079033 38.825064,47.364504 38.948180,50.000000" fill="#311c20"/><polygon points="78.809655,44.874965 84.040251,47.638908 79.102054,49.999999" fill="#392024"/><polygon points="37.567841,45.620122 38.250253,46.079033 37.498516,48.256719" fill="#311c20"/><polygon points="80.292109,44.195981 85.359123,43.309262 84.040251,47.638908" fill="#3b2125"/><polygon points="37.831916,43.009215 37.909292,44.307629 37.567841,45.620122" fill="#281506"/><polygon points="80.292109,44.195981 79.696113,42.502028 83.432299,40.587969" fill="#3b2125"/><polygon points="85.253221,48.467091 87.062773,40.913620 88.377622,41.675907" fill="#211610"/><polygon points="87.062773,40.913620 83.915737,35.845371 85.780668,37.187806" fill="#301806"/><polygon points="83.915737,35.845371 77.127478,36.873472 79.290375,38.300955" fill="#2a1506"/><polygon points="37.647457,39.904868 40.213921,40.941666 41.187340,41.816688" fill="#241305"/><polygon points="77.127478,36.873472 72.809036,38.874966 74.036606,39.825695" fill="#251305"/><polygon points="70.684168,41.057529 72.734915,43.088118 74.036606,39.825695" fill="#301807"/></svg>