<svg viewBox="0 0 100 100" xmlns="http://www.w3.org/2000/svg" shape-rendering="crispEdges"><path d="M35.57 44.11 L35.70 48.89 L34.61 43.55 z" fill="#666666"/><path d="M36.44 40.99 L35.57 44.11 L34.61 43.55 z" fill="#666666"/><path d="M36.59 44.92 L37.83 43.01 L36.95 45.12 z" fill="#877d80"/><path d="M37.57 45.62 L37.50 48.26 L36.95 45.12 z" fill="#666666"/><path d="M37.83 43.01 L37.57 45.62 L36.95 45.12 z" fill="#666666"/><path d="M36.34 48.40 L37.65 52.14 L35.70 48.89 z" fill="#666666"/><path d="M35.57 44.11 L36.34 48.40 L35.70 48.89 z" fill="#666666"/><path d="M38.25 46.08 L38.95 50.00 L37.50 48.26 z" fill="#666666"/><path d="M36.59 44.92 L36.95 45.12 L37.50 48.26 z" fill="#897e82"/><path d="M37.57 45.62 L38.25 46.08 L37.50 48.26 z" fill="#666666"/><path d="M37.65 39.90 L36.44 40.99 L36.24 39.64 z" fill="#666666"/><path d="M36.44 40.99 L34.61 43.55 L36.24 39.64 z" fill="#666666"/><path d="M37.36 42.63 L38.95 43.15 L37.83 43.01 z" fill="#666666"/><path d="M38.95 43.15 L37.91 44.31 L37.83 43.01 z" fill="#666666"/><path d="M36.59 44.92 L37.36 42.63 L37.83 43.01 z" fill="#8b8083"/><path d="M36.59 44.92 L36.34 48.40 L35.57 44.11 z" fill="#8d8185"/><path d="M37.36 42.63 L36.59 44.92 L35.57 44.11 z" fill="#7f787a"/><path d="M36.59 44.92 L37.50 48.26 L37.26 48.08 z" fill="#877d80"/><path d="M36.59 44.92 L37.26 48.08 L36.34 48.40 z" fill="#8a7f83"/><path d="M37.36 42.63 L35.57 44.11 L36.44 40.99 z" fill="#80787a"/><path d="M37.65 39.90 L37.40 41.19 L36.44 40.99 z" fill="#666666"/><path d="M38.36 42.76 L37.36 42.63 L36.44 40.99 z" fill="#666666"/><path d="M37.83 43.01 L37.91 44.31 L37.57 45.62 z" fill="#666666"/><path d="M38.95 43.15 L38.71 45.07 L37.91 44.31 z" fill="#696869"/><path d="M38.25 46.08 L37.57 45.62 L37.91 44.31 z" fill="#666666"/><path d="M37.26 48.08 L37.50 48.26 L38.95 50.00 z" fill="#7c7577"/><path d="M38.25 46.08 L38.83 47.36 L38.95 50.00 z" fill="#666666"/><path d="M37.36 42.63 L38.36 42.76 L38.95 43.15 z" fill="#666666"/><path d="M39.17 46.35 L38.83 47.36 L38.25 46.08 z" fill="#666666"/><path d="M37.26 48.08 L38.95 50.00 L38.25 50.00 z" fill="#7e7779"/><path d="M36.34 48.40 L37.26 48.08 L38.25 50.00 z" fill="#736f70"/><path d="M39.17 46.35 L38.25 46.08 L38.71 45.07 z" fill="#666666"/><path d="M38.25 46.08 L37.91 44.31 L38.71 45.07 z" fill="#666666"/><path d="M38.95 43.15 L39.17 43.85 L38.71 45.07 z" fill="#666666"/><path d="M36.34 48.40 L37.41 50.83 L37.65 52.14 z" fill="#666666"/><path d="M38.44 41.17 L37.40 41.19 L37.65 39.90 z" fill="#666666"/><path d="M36.34 48.40 L38.25 50.00 L37.41 50.83 z" fill="#736f70"/><path d="M38.36 42.76 L36.44 40.99 L37.40 41.19 z" fill="#666666"/><path d="M38.44 41.17 L37.72 42.20 L37.40 41.19 z" fill="#666666"/><path d="M39.29 48.67 L38.83 47.36 L39.17 46.35 z" fill="#666666"/><path d="M40.49 46.29 L39.89 47.65 L39.17 46.35 z" fill="#666666"/><path d="M39.17 46.35 L38.71 45.07 L39.17 43.85 z" fill="#666666"/><path d="M38.95 50.00 L38.83 47.36 L39.29 48.67 z" fill="#666666"/><path d="M37.65 39.90 L40.21 40.94 L41.19 41.82 z" fill="#777274"/><path d="M39.04 42.78 L38.44 41.17 L41.19 41.82 z" fill="#867c7f"/><path d="M38.80 43.66 L38.93 44.76 L38.46 43.47 z" fill="#666666"/><path d="M39.04 42.78 L41.19 41.82 L43.33 44.31 z" fill="#897e82"/><path d="M39.29 48.67 L39.17 46.35 L39.89 47.65 z" fill="#666666"/><path d="M40.37 49.66 L39.29 48.67 L39.89 47.65 z" fill="#666666"/><path d="M39.17 46.35 L39.17 43.85 L39.77 44.97 z" fill="#666666"/><path d="M40.49 46.29 L39.17 46.35 L39.77 44.97 z" fill="#666666"/><path d="M39.05 50.34 L39.29 48.67 L40.37 49.66 z" fill="#757072"/><path d="M40.73 48.31 L39.89 47.65 L40.49 46.29 z" fill="#666666"/><path d="M39.53 45.52 L39.89 46.26 L38.93 44.76 z" fill="#666666"/><path d="M38.80 43.66 L38.46 43.47 L37.72 42.20 z" fill="#666666"/><path d="M39.04 42.78 L38.80 43.66 L37.72 42.20 z" fill="#666666"/><path d="M40.37 49.66 L39.89 47.65 L40.73 48.31 z" fill="#666666"/><path d="M38.95 50.00 L39.29 48.67 L39.05 50.34 z" fill="#666666"/><path d="M40.26 50.34 L38.20 50.51 L39.05 50.34 z" fill="#676666"/><path d="M38.25 50.00 L38.95 50.00 L39.05 50.34 z" fill="#6a6969"/><path d="M39.04 42.78 L37.72 42.20 L38.44 41.17 z" fill="#676767"/><path d="M37.65 39.90 L41.19 41.82 L38.44 41.17 z" fill="#7b7476"/><path d="M40.26 50.34 L39.05 50.34 L40.97 50.34 z" fill="#666666"/><path d="M39.05 50.34 L40.37 49.66 L40.97 50.34 z" fill="#7d7679"/><path d="M40.40 49.13 L40.26 50.34 L39.77 49.66 z" fill="#666666"/><path d="M41.11 47.94 L40.40 49.13 L39.77 49.66 z" fill="#666666"/><path d="M39.53 45.52 L41.11 47.94 L39.89 46.26 z" fill="#666666"/><path d="M41.11 47.94 L39.77 49.66 L40.13 48.13 z" fill="#696869"/><path d="M38.25 50.00 L39.05 50.34 L38.20 50.51 z" fill="#666666"/><path d="M37.41 50.83 L38.25 50.00 L38.20 50.51 z" fill="#666666"/><path d="M40.73 48.31 L40.49 46.29 L41.70 47.96 z" fill="#696869"/><path d="M37.81 51.56 L38.20 50.51 L40.26 50.34 z" fill="#716e6f"/><path d="M39.53 45.52 L38.93 44.76 L38.80 43.66 z" fill="#666666"/><path d="M37.41 50.83 L38.20 50.51 L37.81 51.56 z" fill="#666666"/><path d="M37.65 52.14 L37.41 50.83 L37.81 51.56 z" fill="#666666"/><path d="M37.65 52.14 L37.81 51.56 L38.54 53.15 z" fill="#666666"/><path d="M37.81 51.56 L40.26 50.34 L40.15 50.52 z" fill="#666666"/><path d="M38.54 53.15 L37.81 51.56 L40.15 50.52 z" fill="#736f70"/><path d="M38.54 53.15 L40.15 50.52 L42.06 52.84 z" fill="#716e6f"/><path d="M33.91 39.04 L31.39 40.21 L34.02 36.99 z" fill="#666666"/><path d="M33.91 39.04 L34.02 36.99 L37.72 33.59 z" fill="#666666"/><path d="M26.10 37.77 L24.97 40.52 L24.37 39.41 z" fill="#666666"/><path d="M64.74 53.59 L61.97 55.03 L67.77 49.42 z" fill="#857b7e"/><path d="M55.48 26.26 L45.10 26.32 L51.25 25.55 z" fill="#6c6a6b"/><path d="M66.39 30.05 L60.38 25.41 L64.91 28.21 z" fill="#81787b"/><path d="M24.37 39.41 L24.97 40.52 L26.31 44.90 z" fill="#666666"/><path d="M72.25 35.74 L66.39 30.05 L69.83 32.66 z" fill="#847b7e"/><path d="M66.39 30.05 L64.91 28.21 L69.83 32.66 z" fill="#82797c"/><path d="M24.97 40.52 L27.10 40.33 L26.77 42.40 z" fill="#676667"/><path d="M27.10 40.33 L26.88 42.50 L26.77 42.40 z" fill="#666666"/><path d="M26.31 44.90 L24.97 40.52 L26.77 42.40 z" fill="#666666"/><path d="M26.31 44.90 L26.77 42.40 L27.03 45.19 z" fill="#666666"/><path d="M27.63 48.60 L26.31 44.90 L27.03 45.19 z" fill="#666666"/><path d="M24.40 39.33 L28.90 38.33 L27.10 40.33 z" fill="#6c6a6b"/><path d="M28.90 38.33 L27.11 40.83 L27.10 40.33 z" fill="#666666"/><path d="M24.97 40.52 L24.40 39.33 L27.10 40.33 z" fill="#666666"/><path d="M27.03 45.19 L26.77 42.40 L26.88 42.50 z" fill="#666666"/><path d="M27.10 40.33 L27.11 40.83 L26.88 42.50 z" fill="#666666"/><path d="M27.03 45.19 L26.88 42.50 L27.17 44.93 z" fill="#666666"/><path d="M26.88 42.50 L27.86 44.51 L27.17 44.93 z" fill="#757072"/><path d="M28.79 48.36 L27.03 45.19 L27.17 44.93 z" fill="#666666"/><path d="M26.88 42.50 L27.96 41.23 L27.72 42.69 z" fill="#797375"/><path d="M29.07 50.98 L30.41 51.25 L32.53 53.63 z" fill="#666666"/><path d="M27.89 39.26 L27.96 41.23 L27.11 40.83 z" fill="#666666"/><path d="M26.88 42.50 L27.72 42.69 L27.86 44.51 z" fill="#7d7678"/><path d="M28.09 47.31 L27.17 44.93 L27.86 44.51 z" fill="#6a6969"/><path d="M59.98 57.84 L55.89 54.69 L61.97 55.03 z" fill="#82797c"/><path d="M55.89 54.69 L64.88 53.32 L61.97 55.03 z" fill="#767173"/><path d="M64.74 53.59 L59.98 57.84 L61.97 55.03 z" fill="#837a7d"/><path d="M27.89 39.26 L28.52 39.50 L27.96 41.23 z" fill="#706d6e"/><path d="M26.88 42.50 L27.11 40.83 L27.96 41.23 z" fill="#787274"/><path d="M51.49 60.39 L55.38 59.11 L46.88 61.95 z" fill="#726e70"/><path d="M49.25 61.14 L51.49 60.39 L46.88 61.95 z" fill="#726e70"/><path d="M27.63 48.60 L27.03 45.19 L28.79 48.36 z" fill="#666666"/><path d="M30.41 51.25 L27.63 48.60 L28.79 48.36 z" fill="#666666"/><path d="M55.48 26.26 L51.25 25.55 L60.38 25.41 z" fill="#6b6a6a"/><path d="M62.65 30.48 L55.48 26.26 L60.38 25.41 z" fill="#857c7f"/><path d="M27.79 45.59 L30.28 49.16 L28.33 47.54 z" fill="#666666"/><path d="M34.07 36.75 L37.77 29.08 L45.10 26.32 z" fill="#666666"/><path d="M52.22 34.87 L39.86 34.22 L45.10 26.32 z" fill="#757072"/><path d="M33.73 52.40 L37.79 55.97 L38.39 57.36 z" fill="#666666"/><path d="M68.91 32.98 L62.65 30.48 L66.39 30.05 z" fill="#80787b"/><path d="M62.65 30.48 L60.38 25.41 L66.39 30.05 z" fill="#867c7f"/><path d="M72.25 35.74 L68.91 32.98 L66.39 30.05 z" fill="#837a7d"/><path d="M30.19 49.58 L28.79 48.36 L28.09 47.31 z" fill="#666666"/><path d="M28.09 47.31 L27.86 44.51 L28.68 46.90 z" fill="#757072"/><path d="M87.06 40.91 L83.92 35.85 L85.78 37.19 z" fill="#8a7f83"/><path d="M72.84 45.39 L72.47 47.91 L71.00 47.52 z" fill="#696869"/><path d="M71.65 47.69 L70.18 47.50 L71.00 47.52 z" fill="#6b696a"/><path d="M35.46 75.38 L39.71 77.27 L36.72 76.04 z" fill="#666666"/><path d="M34.16 74.70 L35.46 75.38 L36.72 76.04 z" fill="#666666"/><path d="M27.13 35.24 L30.21 37.05 L28.90 38.33 z" fill="#6a6969"/><path d="M24.40 39.33 L27.13 35.24 L28.90 38.33 z" fill="#6c6a6b"/><path d="M33.73 52.40 L37.34 54.56 L37.79 55.97 z" fill="#666666"/><path d="M30.28 49.16 L35.30 48.50 L32.35 50.62 z" fill="#736f70"/><path d="M36.13 55.03 L32.53 53.63 L30.41 51.25 z" fill="#666666"/><path d="M29.07 50.98 L27.63 48.60 L30.41 51.25 z" fill="#666666"/><path d="M27.97 43.34 L27.32 45.80 L26.95 43.52 z" fill="#666666"/><path d="M73.04 50.43 L71.47 50.42 L72.10 50.42 z" fill="#666666"/><path d="M34.76 73.30 L35.46 75.38 L34.16 74.70 z" fill="#666666"/><path d="M72.21 49.58 L71.65 47.69 L72.47 47.91 z" fill="#8f8387"/><path d="M72.84 45.39 L74.07 47.05 L72.47 47.91 z" fill="#6f6c6d"/><path d="M72.21 49.58 L68.07 48.95 L70.18 47.50 z" fill="#7f777a"/><path d="M70.24 44.49 L72.02 45.36 L70.18 47.50 z" fill="#80787b"/><path d="M72.02 45.36 L73.96 43.68 L72.84 45.39 z" fill="#897e82"/><path d="M71.00 47.52 L72.02 45.36 L72.84 45.39 z" fill="#857b7f"/><path d="M75.79 42.16 L77.73 40.61 L78.81 41.10 z" fill="#827a7c"/><path d="M83.43 40.59 L79.70 42.50 L78.81 41.10 z" fill="#757172"/><path d="M77.73 43.62 L75.79 42.16 L78.81 41.10 z" fill="#81797c"/><path d="M78.81 41.10 L82.47 40.10 L83.43 40.59 z" fill="#736f70"/><path d="M80.29 44.20 L79.70 42.50 L83.43 40.59 z" fill="#82797c"/><path d="M55.89 54.69 L64.61 51.32 L64.88 53.32 z" fill="#767173"/><path d="M72.21 49.58 L72.47 47.91 L73.03 49.58 z" fill="#8f8286"/><path d="M72.10 50.42 L72.21 49.58 L73.03 49.58 z" fill="#81797c"/><path d="M73.04 50.43 L72.10 50.42 L73.03 49.58 z" fill="#666666"/><path d="M34.76 73.30 L34.16 74.70 L32.95 72.19 z" fill="#666666"/><path d="M29.74 38.31 L29.91 38.96 L28.52 39.50 z" fill="#6c6a6b"/><path d="M27.97 43.34 L26.95 43.52 L27.32 40.97 z" fill="#666666"/><path d="M75.31 48.31 L77.25 46.60 L79.10 50.00 z" fill="#81797c"/><path d="M78.81 44.87 L84.04 47.64 L79.10 50.00 z" fill="#7c7578"/><path d="M28.90 38.33 L29.74 38.31 L27.89 39.26 z" fill="#666666"/><path d="M29.74 38.31 L28.52 39.50 L27.89 39.26 z" fill="#787274"/><path d="M72.84 45.39 L76.08 45.34 L74.07 47.05 z" fill="#747071"/><path d="M73.03 49.58 L72.47 47.91 L74.07 47.05 z" fill="#6e6b6c"/><path d="M72.02 45.36 L73.23 43.40 L73.96 43.68 z" fill="#887e81"/><path d="M30.41 51.25 L28.79 48.36 L30.19 49.58 z" fill="#666666"/><path d="M32.48 52.88 L30.41 51.25 L30.19 49.58 z" fill="#666666"/><path d="M33.05 29.92 L28.50 32.27 L30.51 29.42 z" fill="#6b696a"/><path d="M79.77 52.30 L85.25 48.47 L87.25 48.49 z" fill="#7b7476"/><path d="M85.25 48.47 L88.38 41.68 L87.25 48.49 z" fill="#8f8387"/><path d="M80.29 44.20 L85.36 43.31 L84.04 47.64 z" fill="#82797c"/><path d="M73.96 43.68 L74.88 41.67 L75.79 42.16 z" fill="#857b7f"/><path d="M76.08 45.34 L73.96 43.68 L75.79 42.16 z" fill="#7a7476"/><path d="M49.25 61.14 L46.97 57.84 L51.49 60.39 z" fill="#8c8184"/><path d="M68.07 48.95 L72.21 49.58 L71.47 50.42 z" fill="#7c7578"/><path d="M73.04 50.43 L72.30 50.64 L71.47 50.42 z" fill="#666666"/><path d="M27.79 41.19 L28.33 39.74 L30.28 37.78 z" fill="#666666"/><path d="M75.31 48.31 L74.07 47.05 L76.08 45.34 z" fill="#747071"/><path d="M78.81 44.87 L77.25 46.60 L76.08 45.34 z" fill="#777274"/><path d="M72.84 45.39 L73.96 43.68 L76.08 45.34 z" fill="#747071"/><path d="M72.21 49.58 L70.18 47.50 L71.65 47.69 z" fill="#696869"/><path d="M78.81 44.87 L76.08 45.34 L77.73 43.62 z" fill="#767173"/><path d="M76.08 45.34 L75.79 42.16 L77.73 43.62 z" fill="#7c7577"/><path d="M80.29 44.20 L83.43 40.59 L85.36 43.31 z" fill="#7f777a"/><path d="M73.03 49.58 L74.07 47.05 L75.31 48.31 z" fill="#716d6f"/><path d="M73.04 50.43 L73.03 49.58 L75.31 48.31 z" fill="#666666"/><path d="M75.31 48.31 L76.08 45.34 L77.25 46.60 z" fill="#7b7577"/><path d="M78.81 44.87 L79.10 50.00 L77.25 46.60 z" fill="#7e7679"/><path d="M70.24 44.49 L73.23 43.40 L72.02 45.36 z" fill="#81797c"/><path d="M71.00 47.52 L70.18 47.50 L72.02 45.36 z" fill="#857b7f"/><path d="M28.09 47.31 L28.68 46.90 L29.70 47.69 z" fill="#6a6969"/><path d="M77.73 40.61 L82.31 37.82 L82.47 40.10 z" fill="#7c7577"/><path d="M78.81 41.10 L77.73 40.61 L82.47 40.10 z" fill="#736f70"/><path d="M36.14 74.73 L38.47 76.47 L35.46 75.38 z" fill="#666666"/><path d="M34.76 73.30 L36.14 74.73 L35.46 75.38 z" fill="#666666"/><path d="M74.88 41.67 L76.63 38.56 L77.73 40.61 z" fill="#877d80"/><path d="M75.79 42.16 L74.88 41.67 L77.73 40.61 z" fill="#827a7c"/><path d="M72.10 50.42 L71.47 50.42 L72.21 49.58 z" fill="#857b7e"/><path d="M80.29 44.20 L84.04 47.64 L78.81 44.87 z" fill="#767173"/><path d="M30.19 49.58 L28.09 47.31 L29.38 48.31 z" fill="#666666"/><path d="M28.09 47.31 L29.70 47.69 L29.38 48.31 z" fill="#6a6869"/><path d="M32.50 47.41 L30.19 49.58 L29.38 48.31 z" fill="#6e6b6c"/><path d="M77.73 43.62 L78.81 41.10 L79.70 42.50 z" fill="#696868"/><path d="M78.81 44.87 L77.73 43.62 L79.70 42.50 z" fill="#726f70"/><path d="M84.19 43.06 L83.11 47.82 L82.97 47.42 z" fill="#666666"/><path d="M28.97 46.38 L32.50 47.41 L30.28 49.16 z" fill="#6d6a6b"/><path d="M27.79 45.59 L28.97 46.38 L30.28 49.16 z" fill="#666666"/><path d="M35.01 36.07 L33.05 29.92 L35.19 32.00 z" fill="#897f82"/><path d="M33.00 62.24 L34.28 69.24 L32.76 69.14 z" fill="#666666"/><path d="M34.43 70.14 L32.95 72.19 L32.76 69.14 z" fill="#666666"/><path d="M70.24 44.49 L70.18 47.50 L68.07 48.95 z" fill="#8e8286"/><path d="M66.56 50.00 L70.24 44.49 L68.07 48.95 z" fill="#8b8083"/><path d="M27.13 35.24 L28.50 32.27 L30.21 37.05 z" fill="#6e6b6c"/><path d="M78.81 44.87 L79.70 42.50 L80.29 44.20 z" fill="#6f6c6d"/><path d="M82.47 40.10 L84.56 41.88 L84.19 43.06 z" fill="#666666"/><path d="M82.31 37.82 L77.13 36.87 L83.92 35.85 z" fill="#7d7678"/><path d="M29.74 38.31 L30.57 39.06 L29.91 38.96 z" fill="#666666"/><path d="M87.06 40.91 L85.78 37.19 L88.38 41.68 z" fill="#8a7f83"/><path d="M85.25 48.47 L87.06 40.91 L88.38 41.68 z" fill="#8f8387"/><path d="M64.88 53.32 L66.56 50.00 L67.85 50.63 z" fill="#82797c"/><path d="M71.47 50.42 L69.88 51.94 L67.85 50.63 z" fill="#736f70"/><path d="M68.07 48.95 L71.47 50.42 L67.85 50.63 z" fill="#887d81"/><path d="M68.46 53.86 L64.88 53.32 L67.85 50.63 z" fill="#666666"/><path d="M71.35 42.11 L74.88 41.67 L73.23 43.40 z" fill="#837a7d"/><path d="M70.24 44.49 L71.35 42.11 L73.23 43.40 z" fill="#82797c"/><path d="M30.21 37.05 L30.54 38.38 L29.74 38.31 z" fill="#666666"/><path d="M28.90 38.33 L30.21 37.05 L29.74 38.31 z" fill="#666666"/><path d="M66.56 50.00 L69.40 40.98 L70.24 44.49 z" fill="#8e8286"/><path d="M75.31 48.31 L79.10 50.00 L73.04 50.43 z" fill="#867c7f"/><path d="M78.22 50.00 L72.30 50.64 L73.04 50.43 z" fill="#666666"/><path d="M71.35 42.11 L73.36 40.09 L74.88 41.67 z" fill="#80787b"/><path d="M73.96 43.68 L73.23 43.40 L74.88 41.67 z" fill="#877d81"/><path d="M82.31 37.82 L76.63 38.56 L77.13 36.87 z" fill="#7d7678"/><path d="M48.34 63.90 L47.73 59.78 L49.25 61.14 z" fill="#8c8084"/><path d="M27.79 41.19 L30.28 37.78 L28.97 40.20 z" fill="#666666"/><path d="M77.73 40.61 L76.63 38.56 L82.31 37.82 z" fill="#7c7678"/><path d="M71.35 42.11 L69.40 40.98 L70.68 41.06 z" fill="#897e82"/><path d="M72.25 35.74 L72.73 43.09 L70.68 41.06 z" fill="#908387"/><path d="M73.36 40.09 L71.35 42.11 L70.68 41.06 z" fill="#716e6f"/><path d="M73.36 40.09 L70.68 41.06 L72.81 38.87 z" fill="#6b696a"/><path d="M83.11 47.82 L85.25 48.47 L77.72 52.80 z" fill="#787274"/><path d="M69.88 51.94 L77.22 51.08 L77.72 52.80 z" fill="#857b7f"/><path d="M27.97 43.34 L27.32 40.97 L28.47 39.74 z" fill="#666666"/><path d="M30.05 40.93 L29.69 40.66 L28.47 39.74 z" fill="#777274"/><path d="M72.81 38.87 L77.13 36.87 L76.63 38.56 z" fill="#797375"/><path d="M74.88 41.67 L73.36 40.09 L76.63 38.56 z" fill="#867c7f"/><path d="M84.56 41.88 L85.25 48.47 L83.11 47.82 z" fill="#767173"/><path d="M78.22 50.00 L82.97 47.42 L83.11 47.82 z" fill="#666666"/><path d="M84.19 43.06 L84.56 41.88 L83.11 47.82 z" fill="#666666"/><path d="M84.56 41.88 L87.06 40.91 L85.25 48.47 z" fill="#726e70"/><path d="M79.77 52.30 L77.72 52.80 L85.25 48.47 z" fill="#7c7577"/><path d="M27.97 43.34 L29.69 45.66 L28.47 46.79 z" fill="#666666"/><path d="M30.05 45.46 L28.97 46.38 L28.47 46.79 z" fill="#757172"/><path d="M35.46 75.38 L38.47 76.47 L39.71 77.27 z" fill="#666666"/><path d="M41.94 76.65 L43.80 77.45 L39.71 77.27 z" fill="#6d6b6c"/><path d="M83.11 47.82 L77.72 52.80 L77.22 51.08 z" fill="#827a7c"/><path d="M78.22 50.00 L83.11 47.82 L77.22 51.08 z" fill="#666666"/><path d="M72.30 50.64 L78.22 50.00 L77.22 51.08 z" fill="#797375"/><path d="M82.31 37.82 L87.06 40.91 L84.56 41.88 z" fill="#716e6f"/><path d="M82.47 40.10 L82.31 37.82 L84.56 41.88 z" fill="#666666"/><path d="M33.05 29.92 L30.17 32.59 L28.50 32.27 z" fill="#6a6969"/><path d="M31.30 37.08 L30.21 37.05 L28.50 32.27 z" fill="#666666"/><path d="M72.25 35.74 L70.68 41.06 L68.91 32.98 z" fill="#918488"/><path d="M28.47 46.79 L27.32 45.80 L27.97 43.34 z" fill="#666666"/><path d="M72.81 38.87 L76.63 38.56 L73.36 40.09 z" fill="#777273"/><path d="M35.21 72.94 L36.17 70.80 L36.64 72.44 z" fill="#918489"/><path d="M36.17 70.80 L37.71 73.65 L36.64 72.44 z" fill="#666666"/><path d="M36.60 74.32 L35.21 72.94 L36.64 72.44 z" fill="#867c7f"/><path d="M31.53 39.57 L31.59 40.08 L30.57 39.06 z" fill="#666666"/><path d="M29.74 38.31 L30.54 38.38 L30.57 39.06 z" fill="#666666"/><path d="M31.30 37.08 L31.53 39.57 L30.54 38.38 z" fill="#6d6b6b"/><path d="M31.53 39.57 L30.57 39.06 L30.54 38.38 z" fill="#666666"/><path d="M30.21 37.05 L31.30 37.08 L30.54 38.38 z" fill="#666666"/><path d="M30.28 37.78 L32.35 36.33 L35.30 38.01 z" fill="#726f70"/><path d="M82.31 37.82 L83.92 35.85 L87.06 40.91 z" fill="#777274"/><path d="M35.01 36.07 L35.19 32.00 L36.97 37.37 z" fill="#897f82"/><path d="M36.39 37.74 L35.01 36.07 L36.97 37.37 z" fill="#80787b"/><path d="M69.88 51.94 L77.72 52.80 L68.46 53.86 z" fill="#827a7d"/><path d="M36.60 74.32 L36.64 72.44 L37.71 73.65 z" fill="#837a7d"/><path d="M38.15 71.94 L38.62 74.03 L37.71 73.65 z" fill="#676767"/><path d="M38.15 71.94 L37.71 73.65 L36.17 70.80 z" fill="#686768"/><path d="M35.21 72.94 L34.89 70.81 L36.17 70.80 z" fill="#918489"/><path d="M30.28 49.16 L32.50 47.41 L35.30 48.50 z" fill="#736f71"/><path d="M33.67 43.24 L36.63 43.28 L35.30 48.50 z" fill="#897e82"/><path d="M28.97 40.20 L32.50 39.19 L30.05 40.93 z" fill="#6c6a6b"/><path d="M30.62 43.27 L29.69 40.66 L30.05 40.93 z" fill="#8a7f83"/><path d="M46.97 57.84 L50.98 52.72 L55.89 54.69 z" fill="#82797c"/><path d="M59.98 57.84 L51.49 60.39 L55.89 54.69 z" fill="#867d80"/><path d="M31.53 39.57 L32.31 41.75 L31.59 40.08 z" fill="#666666"/><path d="M72.30 50.64 L77.22 51.08 L69.88 51.94 z" fill="#7d7679"/><path d="M68.46 53.86 L67.85 50.63 L69.88 51.94 z" fill="#666666"/><path d="M71.47 50.42 L72.30 50.64 L69.88 51.94 z" fill="#666666"/><path d="M68.07 48.95 L67.85 50.63 L66.56 50.00 z" fill="#918488"/><path d="M64.88 53.32 L64.61 51.32 L66.56 50.00 z" fill="#867c7f"/><path d="M29.38 48.31 L29.70 47.69 L31.45 46.55 z" fill="#666666"/><path d="M32.13 45.64 L31.24 46.96 L31.45 46.55 z" fill="#666666"/><path d="M41.94 76.65 L39.71 77.27 L38.47 76.47 z" fill="#6c6a6b"/><path d="M36.14 74.73 L37.52 75.15 L38.47 76.47 z" fill="#696868"/><path d="M65.26 33.81 L58.78 36.91 L62.65 30.48 z" fill="#746f71"/><path d="M58.78 36.91 L55.48 26.26 L62.65 30.48 z" fill="#8a7f82"/><path d="M68.91 32.98 L65.26 33.81 L62.65 30.48 z" fill="#81797c"/><path d="M30.28 37.78 L35.30 38.01 L32.50 39.19 z" fill="#736f70"/><path d="M30.62 43.27 L30.05 40.93 L32.50 39.19 z" fill="#7f777a"/><path d="M28.97 40.20 L30.28 37.78 L32.50 39.19 z" fill="#6d6b6c"/><path d="M34.70 62.57 L33.00 62.24 L33.58 58.63 z" fill="#666666"/><path d="M34.76 73.30 L34.89 70.81 L35.21 72.94 z" fill="#6f6c6d"/><path d="M36.14 74.73 L34.76 73.30 L35.21 72.94 z" fill="#6f6c6d"/><path d="M35.01 36.07 L30.17 32.59 L33.05 29.92 z" fill="#877d80"/><path d="M36.60 74.32 L37.71 73.65 L38.62 74.03 z" fill="#6d6b6c"/><path d="M38.45 74.66 L37.52 74.71 L38.62 74.03 z" fill="#666666"/><path d="M34.07 36.75 L45.10 26.32 L39.86 34.22 z" fill="#666666"/><path d="M36.97 37.37 L34.07 36.75 L39.86 34.22 z" fill="#666666"/><path d="M52.22 34.87 L41.28 36.95 L39.86 34.22 z" fill="#757172"/><path d="M39.25 38.70 L36.97 37.37 L39.86 34.22 z" fill="#706d6e"/><path d="M27.97 43.34 L28.47 39.74 L29.69 40.66 z" fill="#666666"/><path d="M30.62 43.27 L30.41 43.23 L29.69 40.66 z" fill="#867c7f"/><path d="M52.22 34.87 L45.10 26.32 L55.48 26.26 z" fill="#706d6e"/><path d="M58.78 36.91 L52.22 34.87 L55.48 26.26 z" fill="#867c80"/><path d="M36.14 74.73 L35.21 72.94 L36.60 74.32 z" fill="#7d7678"/><path d="M37.52 75.15 L36.14 74.73 L36.60 74.32 z" fill="#706d6e"/><path d="M33.67 43.24 L35.30 48.50 L32.50 47.41 z" fill="#8a7f83"/><path d="M30.05 45.46 L33.67 43.24 L32.50 47.41 z" fill="#7d7679"/><path d="M32.48 52.88 L30.19 49.58 L32.50 47.41 z" fill="#666666"/><path d="M28.97 46.38 L30.05 45.46 L32.50 47.41 z" fill="#6b6a6a"/><path d="M34.72 58.14 L33.58 58.63 L33.87 56.70 z" fill="#666666"/><path d="M32.13 45.64 L31.45 46.55 L32.33 45.24 z" fill="#666666"/><path d="M30.05 45.46 L28.47 46.79 L29.69 45.66 z" fill="#777274"/><path d="M27.97 43.34 L30.41 43.23 L29.69 45.66 z" fill="#6c6a6b"/><path d="M30.62 43.27 L30.05 45.46 L29.69 45.66 z" fill="#897f82"/><path d="M33.48 41.44 L32.11 41.70 L31.53 39.57 z" fill="#757072"/><path d="M31.30 37.08 L32.57 38.41 L31.53 39.57 z" fill="#686767"/><path d="M34.43 70.14 L32.76 69.14 L34.28 69.24 z" fill="#666666"/><path d="M34.70 62.57 L36.56 69.36 L34.28 69.24 z" fill="#6a6869"/><path d="M33.00 62.24 L34.70 62.57 L34.28 69.24 z" fill="#666666"/><path d="M34.76 73.30 L32.95 72.19 L34.43 70.14 z" fill="#666666"/><path d="M36.56 71.81 L34.89 70.81 L34.43 70.14 z" fill="#666666"/><path d="M32.50 47.41 L29.38 48.31 L31.24 46.96 z" fill="#6e6c6c"/><path d="M29.38 48.31 L31.45 46.55 L31.24 46.96 z" fill="#666666"/><path d="M34.76 73.30 L34.43 70.14 L34.89 70.81 z" fill="#716d6f"/><path d="M36.88 71.97 L39.87 71.39 L38.15 71.94 z" fill="#736f71"/><path d="M39.56 73.98 L38.62 74.03 L38.15 71.94 z" fill="#6b6a6a"/><path d="M38.45 74.66 L38.61 75.20 L37.52 75.15 z" fill="#666666"/><path d="M38.45 74.66 L38.62 74.03 L39.56 73.98 z" fill="#666666"/><path d="M37.52 75.15 L36.60 74.32 L37.52 74.71 z" fill="#696869"/><path d="M38.45 74.66 L37.52 75.15 L37.52 74.71 z" fill="#696869"/><path d="M36.60 74.32 L38.62 74.03 L37.52 74.71 z" fill="#6d6b6c"/><path d="M32.50 39.19 L35.30 38.01 L36.63 43.28 z" fill="#897f82"/><path d="M30.62 43.27 L29.69 45.66 L30.41 43.23 z" fill="#867c7f"/><path d="M27.97 43.34 L29.69 40.66 L30.41 43.23 z" fill="#6c6a6b"/><path d="M49.87 75.75 L48.25 75.86 L49.31 69.86 z" fill="#8e8286"/><path d="M33.49 44.09 L33.06 46.08 L32.13 45.64 z" fill="#81787b"/><path d="M32.50 47.41 L31.24 46.96 L32.13 45.64 z" fill="#857c7f"/><path d="M31.30 37.08 L28.50 32.27 L30.17 32.59 z" fill="#666666"/><path d="M35.01 36.07 L32.26 37.71 L30.17 32.59 z" fill="#887e81"/><path d="M31.30 37.08 L32.26 37.71 L32.57 38.41 z" fill="#666666"/><path d="M33.48 41.44 L31.53 39.57 L32.57 38.41 z" fill="#716d6f"/><path d="M36.39 37.74 L36.97 37.37 L39.25 38.70 z" fill="#787274"/><path d="M39.86 34.22 L41.28 36.95 L39.25 38.70 z" fill="#666666"/><path d="M32.50 47.41 L32.13 45.64 L33.06 46.08 z" fill="#7b7577"/><path d="M33.48 41.44 L32.26 43.88 L32.11 41.70 z" fill="#757072"/><path d="M43.42 76.49 L47.55 77.24 L43.80 77.45 z" fill="#716e6f"/><path d="M49.31 69.86 L47.16 70.28 L48.34 63.90 z" fill="#8d8185"/><path d="M30.62 43.27 L32.50 39.19 L33.67 43.24 z" fill="#7d7678"/><path d="M32.50 39.19 L36.63 43.28 L33.67 43.24 z" fill="#897f82"/><path d="M30.05 45.46 L30.62 43.27 L33.67 43.24 z" fill="#7d7679"/><path d="M33.49 44.09 L32.13 45.64 L32.26 43.88 z" fill="#7d7679"/><path d="M33.48 41.44 L33.49 44.09 L32.26 43.88 z" fill="#7f777a"/><path d="M48.34 63.90 L46.31 62.69 L47.73 59.78 z" fill="#8c8185"/><path d="M34.72 58.14 L33.87 56.70 L33.80 56.35 z" fill="#666666"/><path d="M33.48 41.44 L35.90 43.96 L33.49 44.09 z" fill="#676667"/><path d="M66.56 50.00 L67.69 43.28 L69.40 40.98 z" fill="#8c8185"/><path d="M68.91 32.98 L70.68 41.06 L69.40 40.98 z" fill="#8f8287"/><path d="M71.35 42.11 L70.24 44.49 L69.40 40.98 z" fill="#8c8084"/><path d="M38.92 73.60 L38.61 75.20 L38.45 74.66 z" fill="#666666"/><path d="M32.26 37.71 L34.75 39.83 L33.48 41.44 z" fill="#666666"/><path d="M47.73 59.78 L45.44 58.96 L46.97 57.84 z" fill="#8e8286"/><path d="M55.89 54.69 L51.49 60.39 L46.97 57.84 z" fill="#877d80"/><path d="M49.25 61.14 L47.73 59.78 L46.97 57.84 z" fill="#887e81"/><path d="M36.56 71.81 L38.60 71.41 L36.88 71.97 z" fill="#726e70"/><path d="M38.47 76.47 L37.52 75.15 L38.61 75.20 z" fill="#686767"/><path d="M38.92 73.60 L39.40 74.14 L38.61 75.20 z" fill="#666666"/><path d="M36.39 59.36 L36.23 62.72 L34.70 62.57 z" fill="#696869"/><path d="M36.39 59.36 L34.70 62.57 L34.72 58.14 z" fill="#6a6969"/><path d="M34.70 62.57 L33.58 58.63 L34.72 58.14 z" fill="#666666"/><path d="M34.43 70.14 L36.56 69.36 L36.56 71.81 z" fill="#696869"/><path d="M36.39 37.74 L32.26 37.71 L35.01 36.07 z" fill="#827a7c"/><path d="M43.42 76.49 L43.80 77.45 L41.94 76.65 z" fill="#706d6e"/><path d="M38.47 76.47 L38.61 75.20 L41.94 76.65 z" fill="#6d6a6b"/><path d="M34.70 62.57 L36.23 62.72 L36.56 69.36 z" fill="#696869"/><path d="M37.80 62.87 L38.92 69.93 L36.56 69.36 z" fill="#696868"/><path d="M34.43 70.14 L34.28 69.24 L36.56 69.36 z" fill="#696869"/><path d="M38.76 70.82 L36.56 71.81 L36.56 69.36 z" fill="#696869"/><path d="M46.97 57.84 L44.94 57.14 L46.08 56.35 z" fill="#8e8286"/><path d="M44.94 57.14 L45.33 54.84 L46.08 56.35 z" fill="#8e8286"/><path d="M34.81 53.57 L33.08 54.45 L33.45 53.75 z" fill="#666666"/><path d="M39.56 73.98 L38.15 71.94 L39.87 71.39 z" fill="#6a6969"/><path d="M40.34 73.08 L39.56 73.98 L39.87 71.39 z" fill="#6f6c6d"/><path d="M36.88 71.97 L38.60 71.41 L39.87 71.39 z" fill="#736f71"/><path d="M32.67 56.40 L33.55 57.13 L33.75 57.74 z" fill="#666666"/><path d="M55.89 54.69 L55.74 50.00 L64.61 51.32 z" fill="#787274"/><path d="M32.50 47.41 L36.72 48.67 L32.48 52.88 z" fill="#706d6e"/><path d="M34.41 54.17 L33.87 56.70 L32.48 52.88 z" fill="#81797c"/><path d="M36.39 54.01 L34.41 54.17 L32.48 52.88 z" fill="#6a6969"/><path d="M44.94 57.14 L44.14 55.34 L45.33 54.84 z" fill="#8d8185"/><path d="M43.42 76.49 L48.25 75.86 L47.55 77.24 z" fill="#81797c"/><path d="M38.60 71.41 L39.40 74.14 L38.92 73.60 z" fill="#666666"/><path d="M34.58 55.88 L33.55 57.13 L32.45 56.45 z" fill="#6e6c6c"/><path d="M36.39 37.74 L34.75 39.83 L32.26 37.71 z" fill="#81797c"/><path d="M31.30 37.08 L30.17 32.59 L32.26 37.71 z" fill="#666666"/><path d="M34.81 53.57 L33.99 54.26 L33.08 54.45 z" fill="#666666"/><path d="M34.58 55.88 L35.08 58.34 L33.55 57.13 z" fill="#666666"/><path d="M41.94 76.65 L38.61 75.20 L39.40 74.14 z" fill="#736f70"/><path d="M38.60 71.41 L38.76 70.82 L39.40 74.14 z" fill="#666666"/><path d="M36.39 59.36 L37.80 62.87 L36.23 62.72 z" fill="#696869"/><path d="M37.80 62.87 L36.56 69.36 L36.23 62.72 z" fill="#696869"/><path d="M33.06 46.08 L35.90 43.96 L36.72 48.67 z" fill="#6a6869"/><path d="M36.39 54.01 L32.48 52.88 L36.72 48.67 z" fill="#7f777a"/><path d="M37.44 52.99 L36.39 54.01 L36.72 48.67 z" fill="#666666"/><path d="M32.50 47.41 L33.06 46.08 L36.72 48.67 z" fill="#6b696a"/><path d="M41.94 76.65 L39.40 74.14 L43.42 76.49 z" fill="#6e6c6d"/><path d="M39.40 74.14 L43.46 74.03 L43.42 76.49 z" fill="#777173"/><path d="M36.56 71.81 L38.76 70.82 L38.60 71.41 z" fill="#716d6e"/><path d="M35.24 55.40 L33.99 54.26 L34.81 53.57 z" fill="#837a7d"/><path d="M64.61 51.32 L60.56 45.07 L67.69 43.28 z" fill="#8e8286"/><path d="M60.56 45.07 L60.09 37.97 L67.69 43.28 z" fill="#908387"/><path d="M65.26 33.81 L69.40 40.98 L67.69 43.28 z" fill="#918488"/><path d="M66.56 50.00 L64.61 51.32 L67.69 43.28 z" fill="#8d8185"/><path d="M68.91 32.98 L69.40 40.98 L65.26 33.81 z" fill="#908488"/><path d="M35.24 55.40 L34.81 53.57 L36.39 54.01 z" fill="#867c7f"/><path d="M37.44 52.99 L38.43 54.30 L36.39 54.01 z" fill="#666666"/><path d="M35.24 55.40 L36.39 54.01 L36.23 55.58 z" fill="#918489"/><path d="M43.46 74.03 L47.16 70.28 L48.25 75.86 z" fill="#8a7f83"/><path d="M43.42 76.49 L43.46 74.03 L48.25 75.86 z" fill="#827a7d"/><path d="M49.87 75.75 L47.55 77.24 L48.25 75.86 z" fill="#897e82"/><path d="M46.21 51.40 L49.81 54.13 L44.14 55.34 z" fill="#726e6f"/><path d="M40.37 57.04 L37.44 52.99 L44.14 55.34 z" fill="#918488"/><path d="M33.48 41.44 L34.75 39.83 L35.90 43.96 z" fill="#666666"/><path d="M33.06 46.08 L33.49 44.09 L35.90 43.96 z" fill="#676667"/><path d="M39.56 45.88 L36.72 48.67 L35.90 43.96 z" fill="#696868"/><path d="M35.24 55.40 L34.58 55.88 L33.99 54.26 z" fill="#847b7e"/><path d="M32.45 56.45 L33.08 54.45 L33.99 54.26 z" fill="#686767"/><path d="M42.65 70.63 L43.46 74.03 L38.76 70.82 z" fill="#777274"/><path d="M33.75 57.74 L35.08 58.34 L35.58 59.20 z" fill="#666666"/><path d="M38.12 58.35 L36.39 59.36 L35.58 59.20 z" fill="#787274"/><path d="M40.37 57.04 L44.14 55.34 L44.94 57.14 z" fill="#8c8184"/><path d="M46.97 57.84 L45.44 58.96 L44.94 57.14 z" fill="#8d8185"/><path d="M44.22 36.41 L40.54 38.50 L41.47 37.44 z" fill="#666666"/><path d="M42.65 70.63 L38.76 70.82 L38.92 69.93 z" fill="#777274"/><path d="M38.76 70.82 L36.56 69.36 L38.92 69.93 z" fill="#696869"/><path d="M33.75 57.74 L33.55 57.13 L35.08 58.34 z" fill="#666666"/><path d="M37.46 57.97 L35.58 59.20 L35.08 58.34 z" fill="#757072"/><path d="M47.73 59.78 L46.31 62.69 L45.44 58.96 z" fill="#8c8184"/><path d="M36.39 59.36 L38.12 58.35 L37.80 62.87 z" fill="#686768"/><path d="M36.29 37.32 L38.43 41.10 L34.75 39.83 z" fill="#716d6f"/><path d="M60.09 37.97 L56.19 36.28 L58.78 36.91 z" fill="#7b7477"/><path d="M56.19 36.28 L52.22 34.87 L58.78 36.91 z" fill="#736f71"/><path d="M65.26 33.81 L60.09 37.97 L58.78 36.91 z" fill="#6a6969"/><path d="M37.46 57.97 L38.75 56.60 L38.12 58.35 z" fill="#8b8083"/><path d="M36.80 54.58 L35.85 54.32 L36.35 53.61 z" fill="#6e6b6c"/><path d="M39.40 74.14 L38.76 70.82 L43.46 74.03 z" fill="#777273"/><path d="M32.45 56.45 L33.99 54.26 L34.58 55.88 z" fill="#676767"/><path d="M36.64 57.30 L35.08 58.34 L34.58 55.88 z" fill="#6f6c6d"/><path d="M42.65 70.63 L46.31 62.69 L47.16 70.28 z" fill="#897e82"/><path d="M43.46 74.03 L42.65 70.63 L47.16 70.28 z" fill="#897e82"/><path d="M49.31 69.86 L48.25 75.86 L47.16 70.28 z" fill="#8d8185"/><path d="M37.93 56.66 L37.78 53.88 L38.43 54.30 z" fill="#8e8286"/><path d="M40.37 57.04 L38.75 56.60 L38.43 54.30 z" fill="#887e81"/><path d="M42.65 70.63 L41.35 63.05 L46.31 62.69 z" fill="#8b8084"/><path d="M48.34 63.90 L47.16 70.28 L46.31 62.69 z" fill="#8c8185"/><path d="M48.02 31.65 L43.21 27.31 L46.37 29.91 z" fill="#7e7779"/><path d="M36.78 56.68 L34.58 55.88 L35.85 54.32 z" fill="#6b6a6a"/><path d="M38.92 69.93 L41.35 63.05 L42.65 70.63 z" fill="#787274"/><path d="M38.12 58.35 L35.58 59.20 L37.46 57.97 z" fill="#797375"/><path d="M36.64 57.30 L37.93 56.66 L37.46 57.97 z" fill="#777274"/><path d="M44.94 57.14 L40.69 59.11 L40.37 57.04 z" fill="#8e8286"/><path d="M38.12 58.35 L38.75 56.60 L40.37 57.04 z" fill="#80787b"/><path d="M37.93 56.66 L38.43 54.30 L38.75 56.60 z" fill="#8f8286"/><path d="M37.46 57.97 L37.93 56.66 L38.75 56.60 z" fill="#877d81"/><path d="M37.46 57.97 L35.08 58.34 L36.64 57.30 z" fill="#757072"/><path d="M40.54 38.50 L40.23 42.75 L39.24 42.94 z" fill="#666666"/><path d="M38.12 58.35 L40.37 57.04 L40.69 59.11 z" fill="#787274"/><path d="M45.44 58.96 L41.35 63.05 L40.69 59.11 z" fill="#8e8286"/><path d="M37.80 62.87 L38.12 58.35 L40.69 59.11 z" fill="#777274"/><path d="M44.94 57.14 L45.44 58.96 L40.69 59.11 z" fill="#8c8185"/><path d="M36.29 37.32 L39.07 37.82 L38.43 41.10 z" fill="#867c80"/><path d="M35.90 43.96 L34.75 39.83 L38.43 41.10 z" fill="#747071"/><path d="M39.07 43.55 L38.75 43.84 L38.43 41.10 z" fill="#666666"/><path d="M46.08 56.35 L45.33 54.84 L50.98 52.72 z" fill="#747071"/><path d="M46.97 57.84 L46.08 56.35 L50.98 52.72 z" fill="#767173"/><path d="M35.90 43.96 L38.43 41.10 L38.75 43.84 z" fill="#6c6a6b"/><path d="M39.56 45.88 L35.90 43.96 L38.75 43.84 z" fill="#6c6a6b"/><path d="M39.56 45.39 L39.56 45.88 L38.75 43.84 z" fill="#666666"/><path d="M36.80 54.58 L36.35 53.61 L37.78 53.88 z" fill="#6c6a6a"/><path d="M37.80 62.87 L40.69 59.11 L41.35 63.05 z" fill="#767172"/><path d="M38.92 69.93 L37.80 62.87 L41.35 63.05 z" fill="#767172"/><path d="M45.44 58.96 L46.31 62.69 L41.35 63.05 z" fill="#887e81"/><path d="M36.78 56.68 L35.85 54.32 L36.80 54.58 z" fill="#6b696a"/><path d="M41.21 36.06 L39.07 37.82 L36.29 37.32 z" fill="#7e7779"/><path d="M44.22 36.41 L41.47 37.44 L46.25 34.83 z" fill="#666666"/><path d="M48.20 38.07 L44.22 36.41 L46.25 34.83 z" fill="#7a7476"/><path d="M42.93 39.09 L40.90 40.13 L40.54 38.50 z" fill="#666666"/><path d="M36.80 54.58 L37.78 53.88 L37.93 56.66 z" fill="#897e82"/><path d="M36.64 57.30 L36.78 56.68 L37.93 56.66 z" fill="#797375"/><path d="M36.80 54.58 L37.93 56.66 L36.78 56.68 z" fill="#897f82"/><path d="M36.64 57.30 L34.58 55.88 L36.78 56.68 z" fill="#666666"/><path d="M46.21 51.40 L44.14 55.34 L37.44 52.99 z" fill="#777274"/><path d="M36.72 48.67 L40.54 47.24 L37.44 52.99 z" fill="#666666"/><path d="M40.38 44.93 L39.07 43.55 L40.21 43.33 z" fill="#8a7f83"/><path d="M40.21 43.33 L39.23 41.23 L40.05 41.25 z" fill="#8c8184"/><path d="M39.24 42.94 L40.90 45.07 L40.54 47.24 z" fill="#666666"/><path d="M36.72 48.67 L39.56 45.88 L40.54 47.24 z" fill="#686767"/><path d="M44.26 48.11 L45.06 49.53 L40.54 47.24 z" fill="#666666"/><path d="M39.56 45.39 L38.75 43.84 L39.07 43.55 z" fill="#666666"/><path d="M40.38 44.93 L39.56 45.39 L39.07 43.55 z" fill="#8a7f83"/><path d="M39.07 43.55 L38.43 41.10 L39.23 41.23 z" fill="#666666"/><path d="M38.43 41.10 L39.89 38.87 L39.23 41.23 z" fill="#666666"/><path d="M40.21 43.33 L39.07 43.55 L39.23 41.23 z" fill="#8b8084"/><path d="M41.04 46.29 L39.56 45.39 L40.38 44.93 z" fill="#7e7779"/><path d="M65.26 33.81 L67.69 43.28 L60.09 37.97 z" fill="#908387"/><path d="M60.56 45.07 L59.64 37.54 L60.09 37.97 z" fill="#8a7f82"/><path d="M40.54 47.24 L39.56 45.88 L39.56 45.39 z" fill="#666666"/><path d="M41.04 46.29 L40.22 46.75 L39.56 45.39 z" fill="#7e7779"/><path d="M41.47 48.43 L44.22 49.06 L46.25 50.69 z" fill="#666666"/><path d="M55.89 54.69 L50.98 52.72 L55.74 50.00 z" fill="#7d7679"/><path d="M48.02 31.65 L46.37 29.91 L50.43 33.53 z" fill="#7e7779"/><path d="M38.43 41.10 L39.07 37.82 L39.89 38.87 z" fill="#666666"/><path d="M40.05 41.25 L39.23 41.23 L39.89 38.87 z" fill="#8a7f83"/><path d="M39.89 38.87 L41.72 38.08 L40.88 39.34 z" fill="#787274"/><path d="M40.05 41.25 L39.89 38.87 L40.88 39.34 z" fill="#80787b"/><path d="M40.92 30.47 L43.22 35.69 L41.21 36.06 z" fill="#726f70"/><path d="M39.89 38.87 L39.07 37.82 L41.21 36.06 z" fill="#6b696a"/><path d="M39.23 28.94 L40.92 30.47 L38.23 31.46 z" fill="#676666"/><path d="M41.21 36.06 L36.29 37.32 L38.23 31.46 z" fill="#80787b"/><path d="M40.92 30.47 L41.21 36.06 L38.23 31.46 z" fill="#736f70"/><path d="M44.26 48.11 L40.22 46.75 L41.04 46.29 z" fill="#797375"/><path d="M44.26 48.11 L40.54 47.24 L40.22 46.75 z" fill="#666666"/><path d="M39.89 38.87 L41.21 36.06 L41.39 37.37 z" fill="#666666"/><path d="M39.89 38.87 L41.39 37.37 L41.72 38.08 z" fill="#757172"/><path d="M40.54 38.50 L40.90 40.13 L40.23 42.75 z" fill="#666666"/><path d="M44.53 33.11 L45.96 36.71 L43.22 35.69 z" fill="#676767"/><path d="M41.39 37.37 L41.21 36.06 L43.22 35.69 z" fill="#6f6c6d"/><path d="M42.93 39.09 L40.54 38.50 L44.22 36.41 z" fill="#666666"/><path d="M45.18 39.93 L42.93 39.09 L44.22 36.41 z" fill="#777274"/><path d="M41.72 38.08 L43.07 37.05 L43.24 37.77 z" fill="#767173"/><path d="M43.07 37.05 L44.97 38.09 L43.24 37.77 z" fill="#666666"/><path d="M64.61 51.32 L55.74 50.00 L60.56 45.07 z" fill="#857c7f"/><path d="M41.39 37.37 L43.22 35.69 L43.07 37.05 z" fill="#716e6f"/><path d="M41.72 38.08 L41.39 37.37 L43.07 37.05 z" fill="#757072"/><path d="M37.44 52.99 L45.06 49.53 L46.21 51.40 z" fill="#7e7779"/><path d="M54.19 51.18 L49.81 54.13 L46.21 51.40 z" fill="#777274"/><path d="M48.20 38.07 L46.25 34.83 L51.43 36.82 z" fill="#797375"/><path d="M49.97 42.55 L48.20 38.07 L51.43 36.82 z" fill="#8c8084"/><path d="M40.54 47.24 L42.93 45.97 L44.22 49.06 z" fill="#666666"/><path d="M41.47 48.43 L40.54 47.24 L44.22 49.06 z" fill="#666666"/><path d="M39.24 42.94 L40.23 42.75 L40.90 45.07 z" fill="#666666"/><path d="M37.44 52.99 L40.54 47.24 L45.06 49.53 z" fill="#777173"/><path d="M47.03 46.89 L48.33 48.10 L45.06 49.53 z" fill="#7b7476"/><path d="M44.53 33.11 L43.22 35.69 L40.92 30.47 z" fill="#666666"/><path d="M39.23 28.94 L43.21 27.31 L40.92 30.47 z" fill="#666666"/><path d="M44.26 48.11 L41.04 46.29 L44.58 47.41 z" fill="#777274"/><path d="M47.03 46.89 L44.26 48.11 L44.58 47.41 z" fill="#686767"/><path d="M46.25 50.69 L48.20 47.14 L51.43 48.35 z" fill="#797375"/><path d="M40.92 30.47 L43.21 27.31 L48.02 31.65 z" fill="#837a7d"/><path d="M51.89 36.85 L51.05 38.41 L45.96 36.71 z" fill="#666666"/><path d="M43.07 37.05 L43.22 35.69 L45.96 36.71 z" fill="#787274"/><path d="M47.03 46.89 L45.06 49.53 L44.26 48.11 z" fill="#797375"/><path d="M40.54 47.24 L40.90 45.07 L42.93 45.97 z" fill="#666666"/><path d="M55.30 43.67 L60.70 45.44 L54.19 51.18 z" fill="#867c7f"/><path d="M44.67 37.78 L49.08 39.70 L44.97 38.09 z" fill="#666666"/><path d="M43.07 37.05 L44.67 37.78 L44.97 38.09 z" fill="#666666"/><path d="M51.43 48.35 L49.97 42.55 L53.57 42.63 z" fill="#8c8084"/><path d="M49.97 42.55 L51.43 36.82 L53.57 42.63 z" fill="#8c8084"/><path d="M45.18 39.93 L44.22 36.41 L48.20 38.07 z" fill="#797375"/><path d="M46.06 42.54 L45.18 39.93 L48.20 38.07 z" fill="#867d80"/><path d="M46.21 51.40 L45.06 49.53 L48.33 48.10 z" fill="#797375"/><path d="M50.18 43.97 L51.92 44.20 L48.33 48.10 z" fill="#7e7679"/><path d="M49.60 43.53 L47.03 46.89 L46.99 46.43 z" fill="#666666"/><path d="M47.03 46.89 L44.58 47.41 L46.99 46.43 z" fill="#666666"/><path d="M41.94 42.58 L45.04 45.18 L42.44 46.43 z" fill="#777173"/><path d="M60.70 45.44 L58.80 36.33 L59.64 37.54 z" fill="#8b8083"/><path d="M45.96 36.71 L49.50 39.14 L44.67 37.78 z" fill="#7e7779"/><path d="M43.07 37.05 L45.96 36.71 L44.67 37.78 z" fill="#706d6e"/><path d="M45.91 42.51 L45.04 45.18 L41.94 42.58 z" fill="#7b7476"/><path d="M42.44 46.43 L40.23 45.29 L41.94 42.58 z" fill="#6d6b6c"/><path d="M40.23 45.29 L39.40 42.74 L41.94 42.58 z" fill="#676666"/><path d="M39.40 42.74 L40.23 39.87 L41.94 42.58 z" fill="#676666"/><path d="M40.23 39.87 L42.44 38.56 L41.94 42.58 z" fill="#6e6b6c"/><path d="M42.44 38.56 L45.04 39.64 L41.94 42.58 z" fill="#767173"/><path d="M45.04 39.64 L45.91 42.51 L41.94 42.58 z" fill="#7b7476"/><path d="M44.22 49.06 L45.18 44.96 L48.20 47.14 z" fill="#797375"/><path d="M46.25 50.69 L44.22 49.06 L48.20 47.14 z" fill="#7a7476"/><path d="M44.67 37.78 L49.50 39.14 L49.08 39.70 z" fill="#6b6a6a"/><path d="M48.02 31.65 L51.89 36.85 L44.53 33.11 z" fill="#7e7779"/><path d="M40.92 30.47 L48.02 31.65 L44.53 33.11 z" fill="#82797c"/><path d="M51.89 36.85 L45.96 36.71 L44.53 33.11 z" fill="#666666"/><path d="M50.18 43.97 L48.33 48.10 L47.03 46.89 z" fill="#857b7e"/><path d="M49.60 43.53 L50.18 43.97 L47.03 46.89 z" fill="#686767"/><path d="M55.74 50.00 L54.19 51.18 L60.70 45.44 z" fill="#7c7577"/><path d="M50.21 41.05 L50.18 43.97 L49.60 43.53 z" fill="#666666"/><path d="M44.22 49.06 L42.93 45.97 L45.18 44.96 z" fill="#777273"/><path d="M45.91 42.51 L46.06 42.54 L45.18 44.96 z" fill="#887e81"/><path d="M49.08 39.70 L50.21 41.05 L49.79 41.36 z" fill="#666666"/><path d="M50.21 41.05 L49.60 43.53 L49.79 41.36 z" fill="#666666"/><path d="M45.18 39.93 L45.91 42.51 L45.04 39.64 z" fill="#867c7f"/><path d="M48.20 47.14 L46.06 42.54 L49.97 42.55 z" fill="#857c7f"/><path d="M46.06 42.54 L48.20 38.07 L49.97 42.55 z" fill="#857c7f"/><path d="M51.43 48.35 L48.20 47.14 L49.97 42.55 z" fill="#8c8084"/><path d="M48.20 47.14 L45.18 44.96 L46.06 42.54 z" fill="#867c7f"/><path d="M54.19 51.18 L46.21 51.40 L52.18 48.32 z" fill="#7b7476"/><path d="M55.30 43.67 L54.19 51.18 L52.18 48.32 z" fill="#867c80"/><path d="M46.21 51.40 L48.33 48.10 L52.18 48.32 z" fill="#777274"/><path d="M54.64 38.15 L52.29 40.79 L51.05 38.41 z" fill="#6c6a6a"/><path d="M45.91 42.51 L45.18 44.96 L45.04 45.18 z" fill="#857c7f"/><path d="M51.05 38.41 L50.21 41.05 L49.50 39.14 z" fill="#82797c"/><path d="M45.96 36.71 L51.05 38.41 L49.50 39.14 z" fill="#7b7476"/><path d="M50.21 41.05 L51.92 44.20 L50.18 43.97 z" fill="#80787b"/><path d="M45.18 39.93 L46.06 42.54 L45.91 42.51 z" fill="#897e82"/><path d="M51.05 38.41 L52.29 40.79 L50.21 41.05 z" fill="#81797c"/><path d="M49.08 39.70 L49.50 39.14 L50.21 41.05 z" fill="#666666"/><path d="M52.18 48.32 L48.33 48.10 L51.92 44.20 z" fill="#787274"/><path d="M50.21 41.05 L52.29 40.79 L51.92 44.20 z" fill="#827a7d"/><path d="M55.30 43.67 L51.92 44.20 L52.29 40.79 z" fill="#7c7577"/><path d="M52.18 48.32 L51.92 44.20 L55.30 43.67 z" fill="#7c7577"/><path d="M58.80 36.33 L60.70 45.44 L55.30 43.67 z" fill="#877d80"/><path d="M58.80 36.33 L55.30 43.67 L54.64 38.15 z" fill="#81797b"/><path d="M55.30 43.67 L52.29 40.79 L54.64 38.15 z" fill="#706d6e"/><path d="M54.46 34.87 L58.80 36.33 L54.64 38.15 z" fill="#777173"/><path d="M54.46 34.87 L54.64 38.15 L51.89 36.85 z" fill="#8b8084"/><path d="M54.64 38.15 L51.05 38.41 L51.89 36.85 z" fill="#696868"/><path d="M48.02 31.65 L54.46 34.87 L51.89 36.85 z" fill="#7e7779"/></svg>